M48
; DRILL file KiCad 10.0.3 date 2026-07-29T11:16:05
; FORMAT={-:-/ absolute / metric / decimal}
; #@! TF.CreationDate,2026-07-29T11:16:05-04:00
; #@! TF.GenerationSoftware,Kicad,Pcbnew,10.0.3
; #@! TF.FileFunction,Plated,1,2,PTH
FMAT,2
METRIC
; #@! TA.AperFunction,Plated,PTH,ViaDrill
T1C0.300
; #@! TA.AperFunction,Plated,PTH,ComponentDrill
T2C1.000
%
G90
G05
T1
X153.8Y-97.2
X153.8Y-98.4
X153.8Y-99.6
X153.834Y-89.066
X153.9Y-90.825
X154.7Y-91.5
X155.162Y-89.549
X155.3Y-93.0
X155.315Y-92.075
X155.8Y-86.0
X155.8Y-87.3
X156.2Y-89.525
X157.1Y-87.3
X157.1Y-88.9
X157.3Y-81.0
X157.6Y-83.6
X157.7Y-92.175
X158.2Y-93.6
X158.9Y-83.6
X158.9Y-84.9
X158.9Y-94.1
X158.9Y-95.1
X158.9Y-96.1
X159.0Y-78.3
X160.2Y-78.3
X161.4Y-78.3
X161.4Y-95.0
X162.4Y-93.2
X163.05Y-90.1
X163.05Y-91.4
X163.6Y-96.4
X164.1Y-95.1
X164.6Y-99.0
X165.8Y-99.0
X166.2Y-90.2
X166.7Y-89.459
X167.0Y-99.0
X168.2Y-89.3
X168.3Y-97.7
X168.6Y-79.0
X168.6Y-80.5
X168.6Y-82.0
X169.2Y-98.9
X169.4Y-89.3
X169.8Y-79.0
X169.8Y-80.5
X169.8Y-82.0
X170.6Y-89.3
X171.0Y-79.0
X171.0Y-80.5
X171.0Y-82.0
T2
X152.0Y-80.46
X152.0Y-83.0
X152.0Y-85.54
X152.0Y-88.08
X152.0Y-90.62
X152.0Y-93.16
X152.0Y-95.7
X152.0Y-98.24
M30
