%TF.GenerationSoftware,KiCad,Pcbnew,10.0.3*%
%TF.CreationDate,2026-07-29T11:16:19-04:00*%
%TF.ProjectId,SPI NAND Breakout,53504920-4e41-44e4-9420-427265616b6f,rev?*%
%TF.SameCoordinates,Original*%
%TF.FileFunction,Legend,Bot*%
%TF.FilePolarity,Positive*%
%FSLAX46Y46*%
G04 Gerber Fmt 4.6, Leading zero omitted, Abs format (unit mm)*
G04 Created by KiCad (PCBNEW 10.0.3) date 2026-07-29 11:16:19*
%MOMM*%
%LPD*%
G01*
G04 APERTURE LIST*
%ADD10C,0.080000*%
%ADD11C,0.300000*%
G04 APERTURE END LIST*
D10*
X171661654Y-99672744D02*
X171828321Y-99672744D01*
X171828321Y-99934649D02*
X171828321Y-99434649D01*
X171828321Y-99434649D02*
X171590226Y-99434649D01*
X171328321Y-99934649D02*
X171375940Y-99910840D01*
X171375940Y-99910840D02*
X171399750Y-99863220D01*
X171399750Y-99863220D02*
X171399750Y-99434649D01*
X170923559Y-99934649D02*
X170923559Y-99672744D01*
X170923559Y-99672744D02*
X170947369Y-99625125D01*
X170947369Y-99625125D02*
X170994988Y-99601316D01*
X170994988Y-99601316D02*
X171090226Y-99601316D01*
X171090226Y-99601316D02*
X171137845Y-99625125D01*
X170923559Y-99910840D02*
X170971178Y-99934649D01*
X170971178Y-99934649D02*
X171090226Y-99934649D01*
X171090226Y-99934649D02*
X171137845Y-99910840D01*
X171137845Y-99910840D02*
X171161654Y-99863220D01*
X171161654Y-99863220D02*
X171161654Y-99815601D01*
X171161654Y-99815601D02*
X171137845Y-99767982D01*
X171137845Y-99767982D02*
X171090226Y-99744173D01*
X171090226Y-99744173D02*
X170971178Y-99744173D01*
X170971178Y-99744173D02*
X170923559Y-99720363D01*
X170709273Y-99910840D02*
X170661654Y-99934649D01*
X170661654Y-99934649D02*
X170566416Y-99934649D01*
X170566416Y-99934649D02*
X170518797Y-99910840D01*
X170518797Y-99910840D02*
X170494988Y-99863220D01*
X170494988Y-99863220D02*
X170494988Y-99839411D01*
X170494988Y-99839411D02*
X170518797Y-99791792D01*
X170518797Y-99791792D02*
X170566416Y-99767982D01*
X170566416Y-99767982D02*
X170637845Y-99767982D01*
X170637845Y-99767982D02*
X170685464Y-99744173D01*
X170685464Y-99744173D02*
X170709273Y-99696554D01*
X170709273Y-99696554D02*
X170709273Y-99672744D01*
X170709273Y-99672744D02*
X170685464Y-99625125D01*
X170685464Y-99625125D02*
X170637845Y-99601316D01*
X170637845Y-99601316D02*
X170566416Y-99601316D01*
X170566416Y-99601316D02*
X170518797Y-99625125D01*
X170280702Y-99934649D02*
X170280702Y-99434649D01*
X170066416Y-99934649D02*
X170066416Y-99672744D01*
X170066416Y-99672744D02*
X170090226Y-99625125D01*
X170090226Y-99625125D02*
X170137845Y-99601316D01*
X170137845Y-99601316D02*
X170209273Y-99601316D01*
X170209273Y-99601316D02*
X170256892Y-99625125D01*
X170256892Y-99625125D02*
X170280702Y-99648935D01*
X169828321Y-99887030D02*
X169804511Y-99910840D01*
X169804511Y-99910840D02*
X169828321Y-99934649D01*
X169828321Y-99934649D02*
X169852130Y-99910840D01*
X169852130Y-99910840D02*
X169828321Y-99887030D01*
X169828321Y-99887030D02*
X169828321Y-99934649D01*
X169828321Y-99625125D02*
X169804511Y-99648935D01*
X169804511Y-99648935D02*
X169828321Y-99672744D01*
X169828321Y-99672744D02*
X169852130Y-99648935D01*
X169852130Y-99648935D02*
X169828321Y-99625125D01*
X169828321Y-99625125D02*
X169828321Y-99672744D01*
X169233083Y-99791792D02*
X168994988Y-99791792D01*
X169280702Y-99934649D02*
X169114036Y-99434649D01*
X169114036Y-99434649D02*
X168947369Y-99934649D01*
X168804512Y-99910840D02*
X168733084Y-99934649D01*
X168733084Y-99934649D02*
X168614036Y-99934649D01*
X168614036Y-99934649D02*
X168566417Y-99910840D01*
X168566417Y-99910840D02*
X168542608Y-99887030D01*
X168542608Y-99887030D02*
X168518798Y-99839411D01*
X168518798Y-99839411D02*
X168518798Y-99791792D01*
X168518798Y-99791792D02*
X168542608Y-99744173D01*
X168542608Y-99744173D02*
X168566417Y-99720363D01*
X168566417Y-99720363D02*
X168614036Y-99696554D01*
X168614036Y-99696554D02*
X168709274Y-99672744D01*
X168709274Y-99672744D02*
X168756893Y-99648935D01*
X168756893Y-99648935D02*
X168780703Y-99625125D01*
X168780703Y-99625125D02*
X168804512Y-99577506D01*
X168804512Y-99577506D02*
X168804512Y-99529887D01*
X168804512Y-99529887D02*
X168780703Y-99482268D01*
X168780703Y-99482268D02*
X168756893Y-99458459D01*
X168756893Y-99458459D02*
X168709274Y-99434649D01*
X168709274Y-99434649D02*
X168590227Y-99434649D01*
X168590227Y-99434649D02*
X168518798Y-99458459D01*
X168066418Y-99434649D02*
X168304513Y-99434649D01*
X168304513Y-99434649D02*
X168328322Y-99672744D01*
X168328322Y-99672744D02*
X168304513Y-99648935D01*
X168304513Y-99648935D02*
X168256894Y-99625125D01*
X168256894Y-99625125D02*
X168137846Y-99625125D01*
X168137846Y-99625125D02*
X168090227Y-99648935D01*
X168090227Y-99648935D02*
X168066418Y-99672744D01*
X168066418Y-99672744D02*
X168042608Y-99720363D01*
X168042608Y-99720363D02*
X168042608Y-99839411D01*
X168042608Y-99839411D02*
X168066418Y-99887030D01*
X168066418Y-99887030D02*
X168090227Y-99910840D01*
X168090227Y-99910840D02*
X168137846Y-99934649D01*
X168137846Y-99934649D02*
X168256894Y-99934649D01*
X168256894Y-99934649D02*
X168304513Y-99910840D01*
X168304513Y-99910840D02*
X168328322Y-99887030D01*
X167661656Y-99672744D02*
X167828323Y-99672744D01*
X167828323Y-99934649D02*
X167828323Y-99434649D01*
X167828323Y-99434649D02*
X167590228Y-99434649D01*
X167137847Y-99934649D02*
X167423561Y-99934649D01*
X167280704Y-99934649D02*
X167280704Y-99434649D01*
X167280704Y-99434649D02*
X167328323Y-99506078D01*
X167328323Y-99506078D02*
X167375942Y-99553697D01*
X167375942Y-99553697D02*
X167423561Y-99577506D01*
X166852133Y-99648935D02*
X166899752Y-99625125D01*
X166899752Y-99625125D02*
X166923562Y-99601316D01*
X166923562Y-99601316D02*
X166947371Y-99553697D01*
X166947371Y-99553697D02*
X166947371Y-99529887D01*
X166947371Y-99529887D02*
X166923562Y-99482268D01*
X166923562Y-99482268D02*
X166899752Y-99458459D01*
X166899752Y-99458459D02*
X166852133Y-99434649D01*
X166852133Y-99434649D02*
X166756895Y-99434649D01*
X166756895Y-99434649D02*
X166709276Y-99458459D01*
X166709276Y-99458459D02*
X166685467Y-99482268D01*
X166685467Y-99482268D02*
X166661657Y-99529887D01*
X166661657Y-99529887D02*
X166661657Y-99553697D01*
X166661657Y-99553697D02*
X166685467Y-99601316D01*
X166685467Y-99601316D02*
X166709276Y-99625125D01*
X166709276Y-99625125D02*
X166756895Y-99648935D01*
X166756895Y-99648935D02*
X166852133Y-99648935D01*
X166852133Y-99648935D02*
X166899752Y-99672744D01*
X166899752Y-99672744D02*
X166923562Y-99696554D01*
X166923562Y-99696554D02*
X166947371Y-99744173D01*
X166947371Y-99744173D02*
X166947371Y-99839411D01*
X166947371Y-99839411D02*
X166923562Y-99887030D01*
X166923562Y-99887030D02*
X166899752Y-99910840D01*
X166899752Y-99910840D02*
X166852133Y-99934649D01*
X166852133Y-99934649D02*
X166756895Y-99934649D01*
X166756895Y-99934649D02*
X166709276Y-99910840D01*
X166709276Y-99910840D02*
X166685467Y-99887030D01*
X166685467Y-99887030D02*
X166661657Y-99839411D01*
X166661657Y-99839411D02*
X166661657Y-99744173D01*
X166661657Y-99744173D02*
X166685467Y-99696554D01*
X166685467Y-99696554D02*
X166709276Y-99672744D01*
X166709276Y-99672744D02*
X166756895Y-99648935D01*
X166185467Y-99458459D02*
X166233086Y-99434649D01*
X166233086Y-99434649D02*
X166304515Y-99434649D01*
X166304515Y-99434649D02*
X166375943Y-99458459D01*
X166375943Y-99458459D02*
X166423562Y-99506078D01*
X166423562Y-99506078D02*
X166447372Y-99553697D01*
X166447372Y-99553697D02*
X166471181Y-99648935D01*
X166471181Y-99648935D02*
X166471181Y-99720363D01*
X166471181Y-99720363D02*
X166447372Y-99815601D01*
X166447372Y-99815601D02*
X166423562Y-99863220D01*
X166423562Y-99863220D02*
X166375943Y-99910840D01*
X166375943Y-99910840D02*
X166304515Y-99934649D01*
X166304515Y-99934649D02*
X166256896Y-99934649D01*
X166256896Y-99934649D02*
X166185467Y-99910840D01*
X166185467Y-99910840D02*
X166161658Y-99887030D01*
X166161658Y-99887030D02*
X166161658Y-99720363D01*
X166161658Y-99720363D02*
X166256896Y-99720363D01*
X165852134Y-99434649D02*
X165804515Y-99434649D01*
X165804515Y-99434649D02*
X165756896Y-99458459D01*
X165756896Y-99458459D02*
X165733086Y-99482268D01*
X165733086Y-99482268D02*
X165709277Y-99529887D01*
X165709277Y-99529887D02*
X165685467Y-99625125D01*
X165685467Y-99625125D02*
X165685467Y-99744173D01*
X165685467Y-99744173D02*
X165709277Y-99839411D01*
X165709277Y-99839411D02*
X165733086Y-99887030D01*
X165733086Y-99887030D02*
X165756896Y-99910840D01*
X165756896Y-99910840D02*
X165804515Y-99934649D01*
X165804515Y-99934649D02*
X165852134Y-99934649D01*
X165852134Y-99934649D02*
X165899753Y-99910840D01*
X165899753Y-99910840D02*
X165923562Y-99887030D01*
X165923562Y-99887030D02*
X165947372Y-99839411D01*
X165947372Y-99839411D02*
X165971181Y-99744173D01*
X165971181Y-99744173D02*
X165971181Y-99625125D01*
X165971181Y-99625125D02*
X165947372Y-99529887D01*
X165947372Y-99529887D02*
X165923562Y-99482268D01*
X165923562Y-99482268D02*
X165899753Y-99458459D01*
X165899753Y-99458459D02*
X165852134Y-99434649D01*
X165256896Y-99601316D02*
X165256896Y-99934649D01*
X165375944Y-99410840D02*
X165494991Y-99767982D01*
X165494991Y-99767982D02*
X165185468Y-99767982D01*
X165018801Y-99910840D02*
X164947373Y-99934649D01*
X164947373Y-99934649D02*
X164828325Y-99934649D01*
X164828325Y-99934649D02*
X164780706Y-99910840D01*
X164780706Y-99910840D02*
X164756897Y-99887030D01*
X164756897Y-99887030D02*
X164733087Y-99839411D01*
X164733087Y-99839411D02*
X164733087Y-99791792D01*
X164733087Y-99791792D02*
X164756897Y-99744173D01*
X164756897Y-99744173D02*
X164780706Y-99720363D01*
X164780706Y-99720363D02*
X164828325Y-99696554D01*
X164828325Y-99696554D02*
X164923563Y-99672744D01*
X164923563Y-99672744D02*
X164971182Y-99648935D01*
X164971182Y-99648935D02*
X164994992Y-99625125D01*
X164994992Y-99625125D02*
X165018801Y-99577506D01*
X165018801Y-99577506D02*
X165018801Y-99529887D01*
X165018801Y-99529887D02*
X164994992Y-99482268D01*
X164994992Y-99482268D02*
X164971182Y-99458459D01*
X164971182Y-99458459D02*
X164923563Y-99434649D01*
X164923563Y-99434649D02*
X164804516Y-99434649D01*
X164804516Y-99434649D02*
X164733087Y-99458459D01*
X164518802Y-99934649D02*
X164518802Y-99434649D01*
X164518802Y-99434649D02*
X164233088Y-99934649D01*
X164233088Y-99934649D02*
X164233088Y-99434649D01*
X163994992Y-99934649D02*
X163994992Y-99434649D01*
X163994992Y-99434649D02*
X163875944Y-99434649D01*
X163875944Y-99434649D02*
X163804516Y-99458459D01*
X163804516Y-99458459D02*
X163756897Y-99506078D01*
X163756897Y-99506078D02*
X163733087Y-99553697D01*
X163733087Y-99553697D02*
X163709278Y-99648935D01*
X163709278Y-99648935D02*
X163709278Y-99720363D01*
X163709278Y-99720363D02*
X163733087Y-99815601D01*
X163733087Y-99815601D02*
X163756897Y-99863220D01*
X163756897Y-99863220D02*
X163804516Y-99910840D01*
X163804516Y-99910840D02*
X163875944Y-99934649D01*
X163875944Y-99934649D02*
X163994992Y-99934649D01*
X163494992Y-99744173D02*
X163114040Y-99744173D01*
X162614039Y-99934649D02*
X162899753Y-99934649D01*
X162756896Y-99934649D02*
X162756896Y-99434649D01*
X162756896Y-99434649D02*
X162804515Y-99506078D01*
X162804515Y-99506078D02*
X162852134Y-99553697D01*
X162852134Y-99553697D02*
X162899753Y-99577506D01*
X162304516Y-99434649D02*
X162256897Y-99434649D01*
X162256897Y-99434649D02*
X162209278Y-99458459D01*
X162209278Y-99458459D02*
X162185468Y-99482268D01*
X162185468Y-99482268D02*
X162161659Y-99529887D01*
X162161659Y-99529887D02*
X162137849Y-99625125D01*
X162137849Y-99625125D02*
X162137849Y-99744173D01*
X162137849Y-99744173D02*
X162161659Y-99839411D01*
X162161659Y-99839411D02*
X162185468Y-99887030D01*
X162185468Y-99887030D02*
X162209278Y-99910840D01*
X162209278Y-99910840D02*
X162256897Y-99934649D01*
X162256897Y-99934649D02*
X162304516Y-99934649D01*
X162304516Y-99934649D02*
X162352135Y-99910840D01*
X162352135Y-99910840D02*
X162375944Y-99887030D01*
X162375944Y-99887030D02*
X162399754Y-99839411D01*
X162399754Y-99839411D02*
X162423563Y-99744173D01*
X162423563Y-99744173D02*
X162423563Y-99625125D01*
X162423563Y-99625125D02*
X162399754Y-99529887D01*
X162399754Y-99529887D02*
X162375944Y-99482268D01*
X162375944Y-99482268D02*
X162352135Y-99458459D01*
X162352135Y-99458459D02*
X162304516Y-99434649D01*
X161685469Y-99934649D02*
X161923564Y-99934649D01*
X161923564Y-99934649D02*
X161923564Y-99434649D01*
X161518802Y-99934649D02*
X161518802Y-99434649D01*
X161280707Y-99934649D02*
X161280707Y-99434649D01*
X161280707Y-99434649D02*
X160994993Y-99934649D01*
X160994993Y-99934649D02*
X160994993Y-99434649D01*
D11*
X158095546Y-83646501D02*
X158166974Y-83717930D01*
X158166974Y-83717930D02*
X158381260Y-83789358D01*
X158381260Y-83789358D02*
X158524117Y-83789358D01*
X158524117Y-83789358D02*
X158738403Y-83717930D01*
X158738403Y-83717930D02*
X158881260Y-83575072D01*
X158881260Y-83575072D02*
X158952689Y-83432215D01*
X158952689Y-83432215D02*
X159024117Y-83146501D01*
X159024117Y-83146501D02*
X159024117Y-82932215D01*
X159024117Y-82932215D02*
X158952689Y-82646501D01*
X158952689Y-82646501D02*
X158881260Y-82503644D01*
X158881260Y-82503644D02*
X158738403Y-82360787D01*
X158738403Y-82360787D02*
X158524117Y-82289358D01*
X158524117Y-82289358D02*
X158381260Y-82289358D01*
X158381260Y-82289358D02*
X158166974Y-82360787D01*
X158166974Y-82360787D02*
X158095546Y-82432215D01*
X157524117Y-83717930D02*
X157309832Y-83789358D01*
X157309832Y-83789358D02*
X156952689Y-83789358D01*
X156952689Y-83789358D02*
X156809832Y-83717930D01*
X156809832Y-83717930D02*
X156738403Y-83646501D01*
X156738403Y-83646501D02*
X156666974Y-83503644D01*
X156666974Y-83503644D02*
X156666974Y-83360787D01*
X156666974Y-83360787D02*
X156738403Y-83217930D01*
X156738403Y-83217930D02*
X156809832Y-83146501D01*
X156809832Y-83146501D02*
X156952689Y-83075072D01*
X156952689Y-83075072D02*
X157238403Y-83003644D01*
X157238403Y-83003644D02*
X157381260Y-82932215D01*
X157381260Y-82932215D02*
X157452689Y-82860787D01*
X157452689Y-82860787D02*
X157524117Y-82717930D01*
X157524117Y-82717930D02*
X157524117Y-82575072D01*
X157524117Y-82575072D02*
X157452689Y-82432215D01*
X157452689Y-82432215D02*
X157381260Y-82360787D01*
X157381260Y-82360787D02*
X157238403Y-82289358D01*
X157238403Y-82289358D02*
X156881260Y-82289358D01*
X156881260Y-82289358D02*
X156666974Y-82360787D01*
X156095546Y-82789358D02*
X155024118Y-82789358D01*
X155666975Y-82146501D02*
X156095546Y-84075072D01*
X155166975Y-83432215D02*
X156238403Y-83432215D01*
X155595546Y-84075072D02*
X155166975Y-82146501D01*
X159588346Y-79800828D02*
X158659774Y-79800828D01*
X158659774Y-79800828D02*
X159159774Y-80372257D01*
X159159774Y-80372257D02*
X158945489Y-80372257D01*
X158945489Y-80372257D02*
X158802632Y-80443685D01*
X158802632Y-80443685D02*
X158731203Y-80515114D01*
X158731203Y-80515114D02*
X158659774Y-80657971D01*
X158659774Y-80657971D02*
X158659774Y-81015114D01*
X158659774Y-81015114D02*
X158731203Y-81157971D01*
X158731203Y-81157971D02*
X158802632Y-81229400D01*
X158802632Y-81229400D02*
X158945489Y-81300828D01*
X158945489Y-81300828D02*
X159374060Y-81300828D01*
X159374060Y-81300828D02*
X159516917Y-81229400D01*
X159516917Y-81229400D02*
X159588346Y-81157971D01*
X158016918Y-81157971D02*
X157945489Y-81229400D01*
X157945489Y-81229400D02*
X158016918Y-81300828D01*
X158016918Y-81300828D02*
X158088346Y-81229400D01*
X158088346Y-81229400D02*
X158016918Y-81157971D01*
X158016918Y-81157971D02*
X158016918Y-81300828D01*
X157445489Y-79800828D02*
X156516917Y-79800828D01*
X156516917Y-79800828D02*
X157016917Y-80372257D01*
X157016917Y-80372257D02*
X156802632Y-80372257D01*
X156802632Y-80372257D02*
X156659775Y-80443685D01*
X156659775Y-80443685D02*
X156588346Y-80515114D01*
X156588346Y-80515114D02*
X156516917Y-80657971D01*
X156516917Y-80657971D02*
X156516917Y-81015114D01*
X156516917Y-81015114D02*
X156588346Y-81157971D01*
X156588346Y-81157971D02*
X156659775Y-81229400D01*
X156659775Y-81229400D02*
X156802632Y-81300828D01*
X156802632Y-81300828D02*
X157231203Y-81300828D01*
X157231203Y-81300828D02*
X157374060Y-81229400D01*
X157374060Y-81229400D02*
X157445489Y-81157971D01*
X156088346Y-79800828D02*
X155588346Y-81300828D01*
X155588346Y-81300828D02*
X155088346Y-79800828D01*
X159445489Y-86300828D02*
X159445489Y-84800828D01*
X158445488Y-84800828D02*
X158159774Y-84800828D01*
X158159774Y-84800828D02*
X158016917Y-84872257D01*
X158016917Y-84872257D02*
X157874060Y-85015114D01*
X157874060Y-85015114D02*
X157802631Y-85300828D01*
X157802631Y-85300828D02*
X157802631Y-85800828D01*
X157802631Y-85800828D02*
X157874060Y-86086542D01*
X157874060Y-86086542D02*
X158016917Y-86229400D01*
X158016917Y-86229400D02*
X158159774Y-86300828D01*
X158159774Y-86300828D02*
X158445488Y-86300828D01*
X158445488Y-86300828D02*
X158588346Y-86229400D01*
X158588346Y-86229400D02*
X158731203Y-86086542D01*
X158731203Y-86086542D02*
X158802631Y-85800828D01*
X158802631Y-85800828D02*
X158802631Y-85300828D01*
X158802631Y-85300828D02*
X158731203Y-85015114D01*
X158731203Y-85015114D02*
X158588346Y-84872257D01*
X158588346Y-84872257D02*
X158445488Y-84800828D01*
X155231202Y-86300828D02*
X156088345Y-86300828D01*
X155659774Y-86300828D02*
X155659774Y-84800828D01*
X155659774Y-84800828D02*
X155802631Y-85015114D01*
X155802631Y-85015114D02*
X155945488Y-85157971D01*
X155945488Y-85157971D02*
X156088345Y-85229400D01*
X159445489Y-91300828D02*
X159445489Y-89800828D01*
X158445488Y-89800828D02*
X158159774Y-89800828D01*
X158159774Y-89800828D02*
X158016917Y-89872257D01*
X158016917Y-89872257D02*
X157874060Y-90015114D01*
X157874060Y-90015114D02*
X157802631Y-90300828D01*
X157802631Y-90300828D02*
X157802631Y-90800828D01*
X157802631Y-90800828D02*
X157874060Y-91086542D01*
X157874060Y-91086542D02*
X158016917Y-91229400D01*
X158016917Y-91229400D02*
X158159774Y-91300828D01*
X158159774Y-91300828D02*
X158445488Y-91300828D01*
X158445488Y-91300828D02*
X158588346Y-91229400D01*
X158588346Y-91229400D02*
X158731203Y-91086542D01*
X158731203Y-91086542D02*
X158802631Y-90800828D01*
X158802631Y-90800828D02*
X158802631Y-90300828D01*
X158802631Y-90300828D02*
X158731203Y-90015114D01*
X158731203Y-90015114D02*
X158588346Y-89872257D01*
X158588346Y-89872257D02*
X158445488Y-89800828D01*
X155731202Y-89800828D02*
X155588345Y-89800828D01*
X155588345Y-89800828D02*
X155445488Y-89872257D01*
X155445488Y-89872257D02*
X155374060Y-89943685D01*
X155374060Y-89943685D02*
X155302631Y-90086542D01*
X155302631Y-90086542D02*
X155231202Y-90372257D01*
X155231202Y-90372257D02*
X155231202Y-90729400D01*
X155231202Y-90729400D02*
X155302631Y-91015114D01*
X155302631Y-91015114D02*
X155374060Y-91157971D01*
X155374060Y-91157971D02*
X155445488Y-91229400D01*
X155445488Y-91229400D02*
X155588345Y-91300828D01*
X155588345Y-91300828D02*
X155731202Y-91300828D01*
X155731202Y-91300828D02*
X155874060Y-91229400D01*
X155874060Y-91229400D02*
X155945488Y-91157971D01*
X155945488Y-91157971D02*
X156016917Y-91015114D01*
X156016917Y-91015114D02*
X156088345Y-90729400D01*
X156088345Y-90729400D02*
X156088345Y-90372257D01*
X156088345Y-90372257D02*
X156016917Y-90086542D01*
X156016917Y-90086542D02*
X155945488Y-89943685D01*
X155945488Y-89943685D02*
X155874060Y-89872257D01*
X155874060Y-89872257D02*
X155731202Y-89800828D01*
X158659774Y-97372257D02*
X158802632Y-97300828D01*
X158802632Y-97300828D02*
X159016917Y-97300828D01*
X159016917Y-97300828D02*
X159231203Y-97372257D01*
X159231203Y-97372257D02*
X159374060Y-97515114D01*
X159374060Y-97515114D02*
X159445489Y-97657971D01*
X159445489Y-97657971D02*
X159516917Y-97943685D01*
X159516917Y-97943685D02*
X159516917Y-98157971D01*
X159516917Y-98157971D02*
X159445489Y-98443685D01*
X159445489Y-98443685D02*
X159374060Y-98586542D01*
X159374060Y-98586542D02*
X159231203Y-98729400D01*
X159231203Y-98729400D02*
X159016917Y-98800828D01*
X159016917Y-98800828D02*
X158874060Y-98800828D01*
X158874060Y-98800828D02*
X158659774Y-98729400D01*
X158659774Y-98729400D02*
X158588346Y-98657971D01*
X158588346Y-98657971D02*
X158588346Y-98157971D01*
X158588346Y-98157971D02*
X158874060Y-98157971D01*
X157945489Y-98800828D02*
X157945489Y-97300828D01*
X157945489Y-97300828D02*
X157088346Y-98800828D01*
X157088346Y-98800828D02*
X157088346Y-97300828D01*
X156374060Y-98800828D02*
X156374060Y-97300828D01*
X156374060Y-97300828D02*
X156016917Y-97300828D01*
X156016917Y-97300828D02*
X155802631Y-97372257D01*
X155802631Y-97372257D02*
X155659774Y-97515114D01*
X155659774Y-97515114D02*
X155588345Y-97657971D01*
X155588345Y-97657971D02*
X155516917Y-97943685D01*
X155516917Y-97943685D02*
X155516917Y-98157971D01*
X155516917Y-98157971D02*
X155588345Y-98443685D01*
X155588345Y-98443685D02*
X155659774Y-98586542D01*
X155659774Y-98586542D02*
X155802631Y-98729400D01*
X155802631Y-98729400D02*
X156016917Y-98800828D01*
X156016917Y-98800828D02*
X156374060Y-98800828D01*
X160016917Y-93729400D02*
X159802632Y-93800828D01*
X159802632Y-93800828D02*
X159445489Y-93800828D01*
X159445489Y-93800828D02*
X159302632Y-93729400D01*
X159302632Y-93729400D02*
X159231203Y-93657971D01*
X159231203Y-93657971D02*
X159159774Y-93515114D01*
X159159774Y-93515114D02*
X159159774Y-93372257D01*
X159159774Y-93372257D02*
X159231203Y-93229400D01*
X159231203Y-93229400D02*
X159302632Y-93157971D01*
X159302632Y-93157971D02*
X159445489Y-93086542D01*
X159445489Y-93086542D02*
X159731203Y-93015114D01*
X159731203Y-93015114D02*
X159874060Y-92943685D01*
X159874060Y-92943685D02*
X159945489Y-92872257D01*
X159945489Y-92872257D02*
X160016917Y-92729400D01*
X160016917Y-92729400D02*
X160016917Y-92586542D01*
X160016917Y-92586542D02*
X159945489Y-92443685D01*
X159945489Y-92443685D02*
X159874060Y-92372257D01*
X159874060Y-92372257D02*
X159731203Y-92300828D01*
X159731203Y-92300828D02*
X159374060Y-92300828D01*
X159374060Y-92300828D02*
X159159774Y-92372257D01*
X157659775Y-93657971D02*
X157731203Y-93729400D01*
X157731203Y-93729400D02*
X157945489Y-93800828D01*
X157945489Y-93800828D02*
X158088346Y-93800828D01*
X158088346Y-93800828D02*
X158302632Y-93729400D01*
X158302632Y-93729400D02*
X158445489Y-93586542D01*
X158445489Y-93586542D02*
X158516918Y-93443685D01*
X158516918Y-93443685D02*
X158588346Y-93157971D01*
X158588346Y-93157971D02*
X158588346Y-92943685D01*
X158588346Y-92943685D02*
X158516918Y-92657971D01*
X158516918Y-92657971D02*
X158445489Y-92515114D01*
X158445489Y-92515114D02*
X158302632Y-92372257D01*
X158302632Y-92372257D02*
X158088346Y-92300828D01*
X158088346Y-92300828D02*
X157945489Y-92300828D01*
X157945489Y-92300828D02*
X157731203Y-92372257D01*
X157731203Y-92372257D02*
X157659775Y-92443685D01*
X156302632Y-93800828D02*
X157016918Y-93800828D01*
X157016918Y-93800828D02*
X157016918Y-92300828D01*
X155802632Y-93800828D02*
X155802632Y-92300828D01*
X154945489Y-93800828D02*
X155588346Y-92943685D01*
X154945489Y-92300828D02*
X155802632Y-93157971D01*
X165588346Y-87300828D02*
X165231203Y-88800828D01*
X165231203Y-88800828D02*
X164945489Y-87729400D01*
X164945489Y-87729400D02*
X164659774Y-88800828D01*
X164659774Y-88800828D02*
X164302632Y-87300828D01*
X163731203Y-88800828D02*
X163731203Y-87300828D01*
X163731203Y-87300828D02*
X163159774Y-87300828D01*
X163159774Y-87300828D02*
X163016917Y-87372257D01*
X163016917Y-87372257D02*
X162945488Y-87443685D01*
X162945488Y-87443685D02*
X162874060Y-87586542D01*
X162874060Y-87586542D02*
X162874060Y-87800828D01*
X162874060Y-87800828D02*
X162945488Y-87943685D01*
X162945488Y-87943685D02*
X163016917Y-88015114D01*
X163016917Y-88015114D02*
X163159774Y-88086542D01*
X163159774Y-88086542D02*
X163731203Y-88086542D01*
X162302631Y-87800828D02*
X161231203Y-87800828D01*
X161874060Y-87157971D02*
X162302631Y-89086542D01*
X161374060Y-88443685D02*
X162445488Y-88443685D01*
X161802631Y-89086542D02*
X161374060Y-87157971D01*
X159659774Y-87229400D02*
X160945488Y-89157971D01*
X159159774Y-88800828D02*
X159159774Y-87300828D01*
X158159773Y-87300828D02*
X157874059Y-87300828D01*
X157874059Y-87300828D02*
X157731202Y-87372257D01*
X157731202Y-87372257D02*
X157588345Y-87515114D01*
X157588345Y-87515114D02*
X157516916Y-87800828D01*
X157516916Y-87800828D02*
X157516916Y-88300828D01*
X157516916Y-88300828D02*
X157588345Y-88586542D01*
X157588345Y-88586542D02*
X157731202Y-88729400D01*
X157731202Y-88729400D02*
X157874059Y-88800828D01*
X157874059Y-88800828D02*
X158159773Y-88800828D01*
X158159773Y-88800828D02*
X158302631Y-88729400D01*
X158302631Y-88729400D02*
X158445488Y-88586542D01*
X158445488Y-88586542D02*
X158516916Y-88300828D01*
X158516916Y-88300828D02*
X158516916Y-87800828D01*
X158516916Y-87800828D02*
X158445488Y-87515114D01*
X158445488Y-87515114D02*
X158302631Y-87372257D01*
X158302631Y-87372257D02*
X158159773Y-87300828D01*
X155802630Y-87443685D02*
X155731202Y-87372257D01*
X155731202Y-87372257D02*
X155588345Y-87300828D01*
X155588345Y-87300828D02*
X155231202Y-87300828D01*
X155231202Y-87300828D02*
X155088345Y-87372257D01*
X155088345Y-87372257D02*
X155016916Y-87443685D01*
X155016916Y-87443685D02*
X154945487Y-87586542D01*
X154945487Y-87586542D02*
X154945487Y-87729400D01*
X154945487Y-87729400D02*
X155016916Y-87943685D01*
X155016916Y-87943685D02*
X155874059Y-88800828D01*
X155874059Y-88800828D02*
X154945487Y-88800828D01*
X167945489Y-96300828D02*
X167945489Y-94800828D01*
X167945489Y-95515114D02*
X167088346Y-95515114D01*
X167088346Y-96300828D02*
X167088346Y-94800828D01*
X166088345Y-94800828D02*
X165802631Y-94800828D01*
X165802631Y-94800828D02*
X165659774Y-94872257D01*
X165659774Y-94872257D02*
X165516917Y-95015114D01*
X165516917Y-95015114D02*
X165445488Y-95300828D01*
X165445488Y-95300828D02*
X165445488Y-95800828D01*
X165445488Y-95800828D02*
X165516917Y-96086542D01*
X165516917Y-96086542D02*
X165659774Y-96229400D01*
X165659774Y-96229400D02*
X165802631Y-96300828D01*
X165802631Y-96300828D02*
X166088345Y-96300828D01*
X166088345Y-96300828D02*
X166231203Y-96229400D01*
X166231203Y-96229400D02*
X166374060Y-96086542D01*
X166374060Y-96086542D02*
X166445488Y-95800828D01*
X166445488Y-95800828D02*
X166445488Y-95300828D01*
X166445488Y-95300828D02*
X166374060Y-95015114D01*
X166374060Y-95015114D02*
X166231203Y-94872257D01*
X166231203Y-94872257D02*
X166088345Y-94800828D01*
X164088345Y-96300828D02*
X164802631Y-96300828D01*
X164802631Y-96300828D02*
X164802631Y-94800828D01*
X163588345Y-96300828D02*
X163588345Y-94800828D01*
X163588345Y-94800828D02*
X163231202Y-94800828D01*
X163231202Y-94800828D02*
X163016916Y-94872257D01*
X163016916Y-94872257D02*
X162874059Y-95015114D01*
X162874059Y-95015114D02*
X162802630Y-95157971D01*
X162802630Y-95157971D02*
X162731202Y-95443685D01*
X162731202Y-95443685D02*
X162731202Y-95657971D01*
X162731202Y-95657971D02*
X162802630Y-95943685D01*
X162802630Y-95943685D02*
X162874059Y-96086542D01*
X162874059Y-96086542D02*
X163016916Y-96229400D01*
X163016916Y-96229400D02*
X163231202Y-96300828D01*
X163231202Y-96300828D02*
X163588345Y-96300828D01*
X162159773Y-95300828D02*
X161088345Y-95300828D01*
X161731202Y-94657971D02*
X162159773Y-96586542D01*
X161231202Y-95943685D02*
X162302630Y-95943685D01*
X161659773Y-96586542D02*
X161231202Y-94657971D01*
X159516916Y-94729400D02*
X160802630Y-96657971D01*
X159016916Y-96300828D02*
X159016916Y-94800828D01*
X158016915Y-94800828D02*
X157731201Y-94800828D01*
X157731201Y-94800828D02*
X157588344Y-94872257D01*
X157588344Y-94872257D02*
X157445487Y-95015114D01*
X157445487Y-95015114D02*
X157374058Y-95300828D01*
X157374058Y-95300828D02*
X157374058Y-95800828D01*
X157374058Y-95800828D02*
X157445487Y-96086542D01*
X157445487Y-96086542D02*
X157588344Y-96229400D01*
X157588344Y-96229400D02*
X157731201Y-96300828D01*
X157731201Y-96300828D02*
X158016915Y-96300828D01*
X158016915Y-96300828D02*
X158159773Y-96229400D01*
X158159773Y-96229400D02*
X158302630Y-96086542D01*
X158302630Y-96086542D02*
X158374058Y-95800828D01*
X158374058Y-95800828D02*
X158374058Y-95300828D01*
X158374058Y-95300828D02*
X158302630Y-95015114D01*
X158302630Y-95015114D02*
X158159773Y-94872257D01*
X158159773Y-94872257D02*
X158016915Y-94800828D01*
X155731201Y-94800828D02*
X154802629Y-94800828D01*
X154802629Y-94800828D02*
X155302629Y-95372257D01*
X155302629Y-95372257D02*
X155088344Y-95372257D01*
X155088344Y-95372257D02*
X154945487Y-95443685D01*
X154945487Y-95443685D02*
X154874058Y-95515114D01*
X154874058Y-95515114D02*
X154802629Y-95657971D01*
X154802629Y-95657971D02*
X154802629Y-96015114D01*
X154802629Y-96015114D02*
X154874058Y-96157971D01*
X154874058Y-96157971D02*
X154945487Y-96229400D01*
X154945487Y-96229400D02*
X155088344Y-96300828D01*
X155088344Y-96300828D02*
X155516915Y-96300828D01*
X155516915Y-96300828D02*
X155659772Y-96229400D01*
X155659772Y-96229400D02*
X155731201Y-96157971D01*
M02*
