%TF.GenerationSoftware,KiCad,Pcbnew,10.0.3*%
%TF.CreationDate,2026-07-29T11:16:19-04:00*%
%TF.ProjectId,SPI NAND Breakout,53504920-4e41-44e4-9420-427265616b6f,rev?*%
%TF.SameCoordinates,Original*%
%TF.FileFunction,Paste,Top*%
%TF.FilePolarity,Positive*%
%FSLAX46Y46*%
G04 Gerber Fmt 4.6, Leading zero omitted, Abs format (unit mm)*
G04 Created by KiCad (PCBNEW 10.0.3) date 2026-07-29 11:16:19*
%MOMM*%
%LPD*%
G01*
G04 APERTURE LIST*
G04 Aperture macros list*
%AMRoundRect*
0 Rectangle with rounded corners*
0 $1 Rounding radius*
0 $2 $3 $4 $5 $6 $7 $8 $9 X,Y pos of 4 corners*
0 Add a 4 corners polygon primitive as box body*
4,1,4,$2,$3,$4,$5,$6,$7,$8,$9,$2,$3,0*
0 Add four circle primitives for the rounded corners*
1,1,$1+$1,$2,$3*
1,1,$1+$1,$4,$5*
1,1,$1+$1,$6,$7*
1,1,$1+$1,$8,$9*
0 Add four rect primitives between the rounded corners*
20,1,$1+$1,$2,$3,$4,$5,0*
20,1,$1+$1,$4,$5,$6,$7,0*
20,1,$1+$1,$6,$7,$8,$9,0*
20,1,$1+$1,$8,$9,$2,$3,0*%
G04 Aperture macros list end*
%ADD10RoundRect,0.250000X0.250000X0.475000X-0.250000X0.475000X-0.250000X-0.475000X0.250000X-0.475000X0*%
%ADD11RoundRect,0.250000X-0.475000X0.250000X-0.475000X-0.250000X0.475000X-0.250000X0.475000X0.250000X0*%
%ADD12RoundRect,0.250000X0.475000X-0.250000X0.475000X0.250000X-0.475000X0.250000X-0.475000X-0.250000X0*%
%ADD13RoundRect,0.250000X-0.450000X0.262500X-0.450000X-0.262500X0.450000X-0.262500X0.450000X0.262500X0*%
%ADD14RoundRect,0.150000X-0.512500X-0.150000X0.512500X-0.150000X0.512500X0.150000X-0.512500X0.150000X0*%
%ADD15RoundRect,0.250000X0.262500X0.450000X-0.262500X0.450000X-0.262500X-0.450000X0.262500X-0.450000X0*%
%ADD16RoundRect,0.250000X-0.262500X-0.450000X0.262500X-0.450000X0.262500X0.450000X-0.262500X0.450000X0*%
%ADD17RoundRect,0.100000X0.637500X0.100000X-0.637500X0.100000X-0.637500X-0.100000X0.637500X-0.100000X0*%
%ADD18O,0.940000X0.440000*%
G04 APERTURE END LIST*
D10*
%TO.C,C2*%
X166050000Y-78300000D03*
X164150000Y-78300000D03*
%TD*%
%TO.C,C4*%
X157150000Y-94600000D03*
X155250000Y-94600000D03*
%TD*%
D11*
%TO.C,C3*%
X160963512Y-84534420D03*
X160963512Y-86434420D03*
%TD*%
D12*
%TO.C,C6*%
X170200000Y-92750000D03*
X170200000Y-90850000D03*
%TD*%
D10*
%TO.C,C1*%
X156850000Y-78300000D03*
X154950000Y-78300000D03*
%TD*%
D13*
%TO.C,R4*%
X167100000Y-84587500D03*
X167100000Y-86412500D03*
%TD*%
D14*
%TO.C,U3*%
X158862500Y-80050000D03*
X158862500Y-81000000D03*
X158862500Y-81950000D03*
X161137500Y-81950000D03*
X161137500Y-80050000D03*
%TD*%
D15*
%TO.C,R2*%
X157100000Y-97300000D03*
X155275000Y-97300000D03*
%TD*%
D13*
%TO.C,R1*%
X164800000Y-84587500D03*
X164800000Y-86412500D03*
%TD*%
D16*
%TO.C,R3*%
X155275000Y-99600000D03*
X157100000Y-99600000D03*
%TD*%
D17*
%TO.C,U2*%
X164787523Y-92708502D03*
X164787523Y-92058502D03*
X164787523Y-91408502D03*
X164787523Y-90758502D03*
X164787523Y-90108502D03*
X164787523Y-89458502D03*
X164787523Y-88808502D03*
X164787523Y-88158502D03*
X159062523Y-88158502D03*
X159062523Y-88808502D03*
X159062523Y-89458502D03*
X159062523Y-90108502D03*
X159062523Y-90758502D03*
X159062523Y-91408502D03*
X159062523Y-92058502D03*
X159062523Y-92708502D03*
%TD*%
D18*
%TO.C,U1*%
X162505000Y-95095000D03*
X162505000Y-96365000D03*
X162505000Y-97635000D03*
X162505000Y-98905000D03*
X170295000Y-98905000D03*
X170295000Y-97635000D03*
X170295000Y-96365000D03*
X170295000Y-95095000D03*
%TD*%
D12*
%TO.C,C5*%
X167700000Y-92750000D03*
X167700000Y-90850000D03*
%TD*%
M02*
