%TF.GenerationSoftware,KiCad,Pcbnew,10.0.3*%
%TF.CreationDate,2026-07-29T11:16:19-04:00*%
%TF.ProjectId,SPI NAND Breakout,53504920-4e41-44e4-9420-427265616b6f,rev?*%
%TF.SameCoordinates,Original*%
%TF.FileFunction,Copper,L1,Top*%
%TF.FilePolarity,Positive*%
%FSLAX46Y46*%
G04 Gerber Fmt 4.6, Leading zero omitted, Abs format (unit mm)*
G04 Created by KiCad (PCBNEW 10.0.3) date 2026-07-29 11:16:19*
%MOMM*%
%LPD*%
G01*
G04 APERTURE LIST*
G04 Aperture macros list*
%AMRoundRect*
0 Rectangle with rounded corners*
0 $1 Rounding radius*
0 $2 $3 $4 $5 $6 $7 $8 $9 X,Y pos of 4 corners*
0 Add a 4 corners polygon primitive as box body*
4,1,4,$2,$3,$4,$5,$6,$7,$8,$9,$2,$3,0*
0 Add four circle primitives for the rounded corners*
1,1,$1+$1,$2,$3*
1,1,$1+$1,$4,$5*
1,1,$1+$1,$6,$7*
1,1,$1+$1,$8,$9*
0 Add four rect primitives between the rounded corners*
20,1,$1+$1,$2,$3,$4,$5,0*
20,1,$1+$1,$4,$5,$6,$7,0*
20,1,$1+$1,$6,$7,$8,$9,0*
20,1,$1+$1,$8,$9,$2,$3,0*%
G04 Aperture macros list end*
%TA.AperFunction,SMDPad,CuDef*%
%ADD10RoundRect,0.250000X0.250000X0.475000X-0.250000X0.475000X-0.250000X-0.475000X0.250000X-0.475000X0*%
%TD*%
%TA.AperFunction,SMDPad,CuDef*%
%ADD11RoundRect,0.250000X-0.475000X0.250000X-0.475000X-0.250000X0.475000X-0.250000X0.475000X0.250000X0*%
%TD*%
%TA.AperFunction,ComponentPad*%
%ADD12R,1.700000X1.700000*%
%TD*%
%TA.AperFunction,ComponentPad*%
%ADD13C,1.700000*%
%TD*%
%TA.AperFunction,SMDPad,CuDef*%
%ADD14RoundRect,0.250000X0.475000X-0.250000X0.475000X0.250000X-0.475000X0.250000X-0.475000X-0.250000X0*%
%TD*%
%TA.AperFunction,SMDPad,CuDef*%
%ADD15RoundRect,0.250000X-0.450000X0.262500X-0.450000X-0.262500X0.450000X-0.262500X0.450000X0.262500X0*%
%TD*%
%TA.AperFunction,SMDPad,CuDef*%
%ADD16RoundRect,0.150000X-0.512500X-0.150000X0.512500X-0.150000X0.512500X0.150000X-0.512500X0.150000X0*%
%TD*%
%TA.AperFunction,SMDPad,CuDef*%
%ADD17RoundRect,0.250000X0.262500X0.450000X-0.262500X0.450000X-0.262500X-0.450000X0.262500X-0.450000X0*%
%TD*%
%TA.AperFunction,SMDPad,CuDef*%
%ADD18RoundRect,0.250000X-0.262500X-0.450000X0.262500X-0.450000X0.262500X0.450000X-0.262500X0.450000X0*%
%TD*%
%TA.AperFunction,SMDPad,CuDef*%
%ADD19RoundRect,0.100000X0.637500X0.100000X-0.637500X0.100000X-0.637500X-0.100000X0.637500X-0.100000X0*%
%TD*%
%TA.AperFunction,SMDPad,CuDef*%
%ADD20O,0.940000X0.440000*%
%TD*%
%TA.AperFunction,ViaPad*%
%ADD21C,0.600000*%
%TD*%
%TA.AperFunction,Conductor*%
%ADD22C,0.200000*%
%TD*%
%TA.AperFunction,Conductor*%
%ADD23C,0.400000*%
%TD*%
%TA.AperFunction,Conductor*%
%ADD24C,0.300000*%
%TD*%
G04 APERTURE END LIST*
D10*
%TO.P,C2,1*%
%TO.N,GND*%
X166050000Y-78300000D03*
%TO.P,C2,2*%
%TO.N,Net-(U1-VCC)*%
X164150000Y-78300000D03*
%TD*%
%TO.P,C4,1*%
%TO.N,GND*%
X157150000Y-94600000D03*
%TO.P,C4,2*%
%TO.N,Net-(J1-Pin_1)*%
X155250000Y-94600000D03*
%TD*%
D11*
%TO.P,C3,1*%
%TO.N,GND*%
X160963512Y-84534420D03*
%TO.P,C3,2*%
%TO.N,Net-(U1-VCC)*%
X160963512Y-86434420D03*
%TD*%
D12*
%TO.P,J1,1,Pin_1_1*%
%TO.N,Net-(J1-Pin_1)*%
X152000000Y-80460000D03*
D13*
%TO.P,J1,2,Pin_2_2*%
%TO.N,Net-(J1-Pin_2)*%
X152000000Y-83000000D03*
%TO.P,J1,3,Pin_3_3*%
%TO.N,Net-(J1-Pin_3)*%
X152000000Y-85540000D03*
%TO.P,J1,4,Pin_4_4*%
%TO.N,Net-(J1-Pin_4)*%
X152000000Y-88080000D03*
%TO.P,J1,5,Pin_5_5*%
%TO.N,Net-(J1-Pin_5)*%
X152000000Y-90620000D03*
%TO.P,J1,6,Pin_6_6*%
%TO.N,Net-(J1-Pin_6)*%
X152000000Y-93160000D03*
%TO.P,J1,7,Pin_7_7*%
%TO.N,Net-(J1-Pin_7)*%
X152000000Y-95700000D03*
%TO.P,J1,8,Pin_8_8*%
%TO.N,GND*%
X152000000Y-98240000D03*
%TD*%
D14*
%TO.P,C6,1*%
%TO.N,Net-(U1-VCC)*%
X170200000Y-92750000D03*
%TO.P,C6,2*%
%TO.N,GND*%
X170200000Y-90850000D03*
%TD*%
D10*
%TO.P,C1,1*%
%TO.N,GND*%
X156850000Y-78300000D03*
%TO.P,C1,2*%
%TO.N,Net-(J1-Pin_1)*%
X154950000Y-78300000D03*
%TD*%
D15*
%TO.P,R4,1*%
%TO.N,Net-(U1-VCC)*%
X167100000Y-84587500D03*
%TO.P,R4,2*%
%TO.N,Net-(U1-HOLD#{slash}SIO3)*%
X167100000Y-86412500D03*
%TD*%
D16*
%TO.P,U3,1,VIN_1*%
%TO.N,Net-(J1-Pin_1)*%
X158862500Y-80050000D03*
%TO.P,U3,2,GND_2*%
%TO.N,GND*%
X158862500Y-81000000D03*
%TO.P,U3,3,EN_3*%
%TO.N,Net-(J1-Pin_1)*%
X158862500Y-81950000D03*
%TO.P,U3,4,NC_4*%
%TO.N,unconnected-(U3-NC-Pad4)*%
X161137500Y-81950000D03*
%TO.P,U3,5,VOUT_5*%
%TO.N,Net-(U1-VCC)*%
X161137500Y-80050000D03*
%TD*%
D17*
%TO.P,R2,1*%
%TO.N,Net-(U1-CS#)*%
X157100000Y-97300000D03*
%TO.P,R2,2*%
%TO.N,Net-(U1-VCC)*%
X155275000Y-97300000D03*
%TD*%
D15*
%TO.P,R1,1*%
%TO.N,Net-(U1-VCC)*%
X164800000Y-84587500D03*
%TO.P,R1,2*%
%TO.N,Net-(U2-OE)*%
X164800000Y-86412500D03*
%TD*%
D18*
%TO.P,R3,1*%
%TO.N,Net-(U1-VCC)*%
X155275000Y-99600000D03*
%TO.P,R3,2*%
%TO.N,Net-(U1-WP#{slash}SIO2)*%
X157100000Y-99600000D03*
%TD*%
D19*
%TO.P,U2,1,A1_1*%
%TO.N,Net-(U1-CS#)*%
X164787523Y-92708502D03*
%TO.P,U2,2,V_{CCA}_2*%
%TO.N,Net-(U1-VCC)*%
X164787523Y-92058502D03*
%TO.P,U2,3,A2_3*%
%TO.N,Net-(U1-SO{slash}SIO1)*%
X164787523Y-91408502D03*
%TO.P,U2,4,A3_4*%
%TO.N,Net-(U1-WP#{slash}SIO2)*%
X164787523Y-90758502D03*
%TO.P,U2,5,A4_5*%
%TO.N,Net-(U1-SI{slash}SIO0)*%
X164787523Y-90108502D03*
%TO.P,U2,6,A5_6*%
%TO.N,Net-(U1-SCLK)*%
X164787523Y-89458502D03*
%TO.P,U2,7,A6_7*%
%TO.N,Net-(U1-HOLD#{slash}SIO3)*%
X164787523Y-88808502D03*
%TO.P,U2,8,OE_8*%
%TO.N,Net-(U2-OE)*%
X164787523Y-88158502D03*
%TO.P,U2,9,GND_9*%
%TO.N,GND*%
X159062523Y-88158502D03*
%TO.P,U2,10,B6_10*%
%TO.N,Net-(J1-Pin_7)*%
X159062523Y-88808502D03*
%TO.P,U2,11,B5_11*%
%TO.N,Net-(J1-Pin_6)*%
X159062523Y-89458502D03*
%TO.P,U2,12,B4_12*%
%TO.N,Net-(J1-Pin_5)*%
X159062523Y-90108502D03*
%TO.P,U2,13,B3_13*%
%TO.N,Net-(J1-Pin_4)*%
X159062523Y-90758502D03*
%TO.P,U2,14,B2_14*%
%TO.N,Net-(J1-Pin_3)*%
X159062523Y-91408502D03*
%TO.P,U2,15,V_{CCB}_15*%
%TO.N,Net-(J1-Pin_1)*%
X159062523Y-92058502D03*
%TO.P,U2,16,B1_16*%
%TO.N,Net-(J1-Pin_2)*%
X159062523Y-92708502D03*
%TD*%
D20*
%TO.P,U1,1,CS#_1*%
%TO.N,Net-(U1-CS#)*%
X162505000Y-95095000D03*
%TO.P,U1,2,SO/SIO1_2*%
%TO.N,Net-(U1-SO{slash}SIO1)*%
X162505000Y-96365000D03*
%TO.P,U1,3,WP#/SIO2_3*%
%TO.N,Net-(U1-WP#{slash}SIO2)*%
X162505000Y-97635000D03*
%TO.P,U1,4,VSS_4*%
%TO.N,GND*%
X162505000Y-98905000D03*
%TO.P,U1,5,SI/SIO0_5*%
%TO.N,Net-(U1-SI{slash}SIO0)*%
X170295000Y-98905000D03*
%TO.P,U1,6,SCLK_6*%
%TO.N,Net-(U1-SCLK)*%
X170295000Y-97635000D03*
%TO.P,U1,7,HOLD#/SIO3_7*%
%TO.N,Net-(U1-HOLD#{slash}SIO3)*%
X170295000Y-96365000D03*
%TO.P,U1,8,VCC_8*%
%TO.N,Net-(U1-VCC)*%
X170295000Y-95095000D03*
%TD*%
D14*
%TO.P,C5,1*%
%TO.N,Net-(U1-VCC)*%
X167700000Y-92750000D03*
%TO.P,C5,2*%
%TO.N,GND*%
X167700000Y-90850000D03*
%TD*%
D21*
%TO.N,GND*%
X164600000Y-99000000D03*
X158900000Y-94100000D03*
X167000000Y-99000000D03*
X168600000Y-80500000D03*
X153800000Y-99600000D03*
X158900000Y-95100000D03*
X158900000Y-84900000D03*
X155800000Y-87300000D03*
X155800000Y-86000000D03*
X158900000Y-83600000D03*
X165800000Y-99000000D03*
X157600000Y-83600000D03*
X169400000Y-89300000D03*
X171000000Y-82000000D03*
X159000000Y-78300000D03*
X157100000Y-87300000D03*
X170600000Y-89300000D03*
X171000000Y-79000000D03*
X169800000Y-80500000D03*
X160200000Y-78300000D03*
X157300000Y-81000000D03*
X168600000Y-82000000D03*
X161400000Y-78300000D03*
X153800000Y-97200000D03*
X171000000Y-80500000D03*
X168600000Y-79000000D03*
X153800000Y-98400000D03*
X168200000Y-89300000D03*
X158900000Y-96100000D03*
X169800000Y-82000000D03*
X169800000Y-79000000D03*
%TO.N,Net-(U1-VCC)*%
X164100000Y-95100000D03*
X162400000Y-93200000D03*
%TO.N,Net-(J1-Pin_1)*%
X157700000Y-92175000D03*
X158200000Y-93600000D03*
%TO.N,Net-(J1-Pin_2)*%
X155314579Y-92075000D03*
X155161990Y-89548631D03*
%TO.N,Net-(J1-Pin_3)*%
X154700000Y-91500000D03*
X153834265Y-89065735D03*
%TO.N,Net-(J1-Pin_4)*%
X153900000Y-90825000D03*
%TO.N,Net-(J1-Pin_6)*%
X156200000Y-89525000D03*
X155300000Y-93000000D03*
%TO.N,Net-(J1-Pin_7)*%
X157100000Y-88900000D03*
%TO.N,Net-(U1-WP#{slash}SIO2)*%
X161400000Y-95000000D03*
X163050000Y-90100000D03*
%TO.N,Net-(U1-SO{slash}SIO1)*%
X163050000Y-91400000D03*
X163600000Y-96400000D03*
%TO.N,Net-(U1-SI{slash}SIO0)*%
X169200000Y-98900000D03*
X166200000Y-90200000D03*
%TO.N,Net-(U1-SCLK)*%
X166700000Y-89458502D03*
X168300000Y-97700000D03*
%TD*%
%TO.N,GND*%
D22*
X155841498Y-88158502D02*
X155800000Y-88200000D01*
D23*
X159062523Y-88158502D02*
X155841498Y-88158502D01*
D24*
X158862500Y-81000000D02*
X157300000Y-81000000D01*
%TO.N,Net-(U1-VCC)*%
X162400000Y-92058502D02*
X162400000Y-86400000D01*
X155300000Y-96100000D02*
X157900000Y-96100000D01*
X162400000Y-86400000D02*
X162400000Y-85500000D01*
X162400000Y-80050000D02*
X161137500Y-80050000D01*
X160000000Y-93711616D02*
X160000000Y-93300000D01*
X162400000Y-84600000D02*
X162400000Y-80050000D01*
X159850000Y-96850000D02*
X159850000Y-93861616D01*
X164800000Y-84587500D02*
X162412500Y-84587500D01*
X155275000Y-97300000D02*
X155275000Y-99600000D01*
X155275000Y-97300000D02*
X155300000Y-97300000D01*
X170295000Y-95095000D02*
X168900000Y-95095000D01*
X164150000Y-78300000D02*
X164150000Y-80050000D01*
X162400000Y-93300000D02*
X162400000Y-93200000D01*
X162400000Y-92058502D02*
X164787523Y-92058502D01*
D22*
X162412500Y-84587500D02*
X162400000Y-84600000D01*
D24*
X162700000Y-80050000D02*
X162400000Y-80050000D01*
X170200000Y-92750000D02*
X168900000Y-94050000D01*
X162400000Y-85500000D02*
X162400000Y-84600000D01*
X162400000Y-93200000D02*
X162400000Y-92058502D01*
D22*
X162365580Y-86434420D02*
X162400000Y-86400000D01*
D24*
X157900000Y-96100000D02*
X158650000Y-96850000D01*
X160000000Y-93300000D02*
X162400000Y-93300000D01*
D22*
X160963512Y-86434420D02*
X162365580Y-86434420D01*
D24*
X164890000Y-95100000D02*
X164100000Y-95100000D01*
X164895000Y-95095000D02*
X164890000Y-95100000D01*
X159850000Y-93861616D02*
X160000000Y-93711616D01*
X167700000Y-95095000D02*
X164895000Y-95095000D01*
X164150000Y-80050000D02*
X162700000Y-80050000D01*
X168900000Y-94050000D02*
X168900000Y-95095000D01*
X155300000Y-97300000D02*
X155300000Y-96100000D01*
X168900000Y-95095000D02*
X167700000Y-95095000D01*
X158650000Y-96850000D02*
X159850000Y-96850000D01*
X164800000Y-84587500D02*
X167100000Y-84587500D01*
X167700000Y-92750000D02*
X167700000Y-95095000D01*
%TO.N,Net-(J1-Pin_1)*%
X157816498Y-92058502D02*
X157700000Y-92175000D01*
X159300000Y-87500000D02*
X156000000Y-84200000D01*
X159062523Y-92058502D02*
X157816498Y-92058502D01*
X155700000Y-80050000D02*
X155700000Y-81900000D01*
D22*
X156650000Y-93200000D02*
X155250000Y-94600000D01*
D24*
X154950000Y-80000000D02*
X154950000Y-78300000D01*
X156000000Y-84200000D02*
X156000000Y-81950000D01*
X158862500Y-80050000D02*
X157200000Y-80050000D01*
X154950000Y-80460000D02*
X154950000Y-80000000D01*
X160600000Y-87500000D02*
X159300000Y-87500000D01*
X155750000Y-81950000D02*
X156000000Y-81950000D01*
X152000000Y-80460000D02*
X154950000Y-80460000D01*
D22*
X157800000Y-93200000D02*
X156650000Y-93200000D01*
D24*
X155000000Y-80050000D02*
X154950000Y-80000000D01*
X160600000Y-92058502D02*
X160600000Y-87500000D01*
X155700000Y-81900000D02*
X155750000Y-81950000D01*
X159062523Y-92058502D02*
X160600000Y-92058502D01*
X156000000Y-81950000D02*
X158862500Y-81950000D01*
X157200000Y-80050000D02*
X155000000Y-80050000D01*
D22*
X158200000Y-93600000D02*
X157800000Y-93200000D01*
%TO.N,Net-(J1-Pin_2)*%
X154300000Y-88686641D02*
X154300000Y-85800000D01*
X159062523Y-92708502D02*
X158996025Y-92775000D01*
X155161990Y-89548631D02*
X154300000Y-88686641D01*
X154300000Y-85800000D02*
X152000000Y-83500000D01*
X158996025Y-92775000D02*
X156014579Y-92775000D01*
X152000000Y-83500000D02*
X152000000Y-83000000D01*
X156014579Y-92775000D02*
X155314579Y-92075000D01*
%TO.N,Net-(J1-Pin_3)*%
X153834265Y-89065735D02*
X153834265Y-87374265D01*
X154725000Y-91475000D02*
X154700000Y-91500000D01*
X159062523Y-91408502D02*
X157991498Y-91408502D01*
X157925000Y-91475000D02*
X154725000Y-91475000D01*
X157991498Y-91408502D02*
X157925000Y-91475000D01*
X153834265Y-87374265D02*
X152000000Y-85540000D01*
%TO.N,Net-(J1-Pin_4)*%
X159062523Y-90758502D02*
X158091498Y-90758502D01*
X158025000Y-90825000D02*
X153900000Y-90825000D01*
X158091498Y-90758502D02*
X158025000Y-90825000D01*
X153900000Y-90825000D02*
X153900000Y-90800000D01*
%TO.N,Net-(J1-Pin_5)*%
X159062523Y-90108502D02*
X158996025Y-90175000D01*
X158996025Y-90175000D02*
X152000000Y-90175000D01*
X152000000Y-90175000D02*
X152000000Y-90620000D01*
%TO.N,Net-(J1-Pin_6)*%
X156100000Y-89500000D02*
X156125000Y-89525000D01*
X155300000Y-93000000D02*
X155140000Y-93160000D01*
X155140000Y-93160000D02*
X152000000Y-93160000D01*
X159062523Y-89458502D02*
X158996025Y-89525000D01*
X156200000Y-89525000D02*
X156125000Y-89525000D01*
X158996025Y-89525000D02*
X156200000Y-89525000D01*
%TO.N,Net-(J1-Pin_7)*%
X159062523Y-88808502D02*
X158996025Y-88875000D01*
X158996025Y-88875000D02*
X157125000Y-88875000D01*
X157125000Y-88875000D02*
X157100000Y-88900000D01*
%TO.N,Net-(U1-HOLD#{slash}SIO3)*%
X167100000Y-88808502D02*
X167708502Y-88200000D01*
X167100000Y-86412500D02*
X167100000Y-88808502D01*
X167708502Y-88200000D02*
X171700000Y-88200000D01*
X164787523Y-88808502D02*
X167100000Y-88808502D01*
X171700000Y-88200000D02*
X171700000Y-94960000D01*
X171700000Y-94960000D02*
X170295000Y-96365000D01*
%TO.N,Net-(U1-CS#)*%
X160300000Y-94048012D02*
X163448012Y-94048012D01*
X163098012Y-94398012D02*
X163448012Y-94048012D01*
X157100000Y-97300000D02*
X160300000Y-97300000D01*
X160300000Y-97300000D02*
X160300000Y-94048012D01*
X163448012Y-94048012D02*
X164787523Y-92708502D01*
X162505000Y-95095000D02*
X162505000Y-94991025D01*
X162505000Y-94991025D02*
X163098012Y-94398012D01*
%TO.N,Net-(U2-OE)*%
X164800000Y-88146025D02*
X164787523Y-88158502D01*
X164800000Y-86412500D02*
X164800000Y-88146025D01*
%TO.N,Net-(U1-WP#{slash}SIO2)*%
X162505000Y-97635000D02*
X161400000Y-97635000D01*
X161400000Y-97635000D02*
X161400000Y-96800000D01*
X161400000Y-96800000D02*
X161400000Y-95000000D01*
X163708502Y-90758502D02*
X164787523Y-90758502D01*
X163050000Y-90100000D02*
X163708502Y-90758502D01*
X161400000Y-99600000D02*
X161400000Y-97635000D01*
X164746025Y-90800000D02*
X164787523Y-90758502D01*
X157100000Y-99600000D02*
X161400000Y-99600000D01*
%TO.N,Net-(U1-SO{slash}SIO1)*%
X163565000Y-96365000D02*
X163600000Y-96400000D01*
X164779021Y-91400000D02*
X164787523Y-91408502D01*
X163050000Y-91400000D02*
X164779021Y-91400000D01*
X162505000Y-96365000D02*
X163565000Y-96365000D01*
%TO.N,Net-(U1-SI{slash}SIO0)*%
X166200000Y-90200000D02*
X164879021Y-90200000D01*
D24*
X164879021Y-90200000D02*
X164787523Y-90108502D01*
D22*
X170295000Y-98905000D02*
X169205000Y-98905000D01*
D24*
X169205000Y-98905000D02*
X169200000Y-98900000D01*
%TO.N,Net-(U1-SCLK)*%
D22*
X166700000Y-89458502D02*
X164787523Y-89458502D01*
X168300000Y-97700000D02*
X169170000Y-97700000D01*
X170295000Y-97635000D02*
X169235000Y-97635000D01*
X169170000Y-97700000D02*
X169235000Y-97635000D01*
%TD*%
%TA.AperFunction,Conductor*%
%TO.N,GND*%
G36*
X153912217Y-77520185D02*
G01*
X153957972Y-77572989D01*
X153967916Y-77642147D01*
X153962884Y-77663504D01*
X153960000Y-77672204D01*
X153949500Y-77774983D01*
X153949500Y-78825001D01*
X153949501Y-78825019D01*
X153960000Y-78927796D01*
X153960001Y-78927799D01*
X154015115Y-79094119D01*
X154015186Y-79094334D01*
X154107288Y-79243656D01*
X154231344Y-79367712D01*
X154240591Y-79373416D01*
X154247416Y-79381003D01*
X154256703Y-79385244D01*
X154270390Y-79406541D01*
X154287318Y-79425360D01*
X154289963Y-79436998D01*
X154294477Y-79444022D01*
X154299500Y-79478957D01*
X154299500Y-79685500D01*
X154279815Y-79752539D01*
X154227011Y-79798294D01*
X154175500Y-79809500D01*
X153474499Y-79809500D01*
X153407460Y-79789815D01*
X153361705Y-79737011D01*
X153350499Y-79685500D01*
X153350499Y-79562129D01*
X153350498Y-79562123D01*
X153350497Y-79562116D01*
X153345299Y-79513757D01*
X153344091Y-79502516D01*
X153293797Y-79367671D01*
X153293793Y-79367664D01*
X153207547Y-79252455D01*
X153207544Y-79252452D01*
X153092335Y-79166206D01*
X153092328Y-79166202D01*
X152957482Y-79115908D01*
X152957483Y-79115908D01*
X152897883Y-79109501D01*
X152897881Y-79109500D01*
X152897873Y-79109500D01*
X152897864Y-79109500D01*
X151102129Y-79109500D01*
X151102123Y-79109501D01*
X151042516Y-79115908D01*
X150907671Y-79166202D01*
X150907664Y-79166206D01*
X150792455Y-79252452D01*
X150792452Y-79252455D01*
X150706206Y-79367664D01*
X150706202Y-79367671D01*
X150655908Y-79502517D01*
X150652740Y-79531988D01*
X150649501Y-79562123D01*
X150649500Y-79562135D01*
X150649500Y-81357870D01*
X150649501Y-81357876D01*
X150655908Y-81417483D01*
X150706202Y-81552328D01*
X150706206Y-81552335D01*
X150792452Y-81667544D01*
X150792455Y-81667547D01*
X150907664Y-81753793D01*
X150907671Y-81753797D01*
X151039082Y-81802810D01*
X151095016Y-81844681D01*
X151119433Y-81910145D01*
X151104582Y-81978418D01*
X151083431Y-82006673D01*
X150969889Y-82120215D01*
X150844951Y-82292179D01*
X150748444Y-82481585D01*
X150682753Y-82683760D01*
X150652543Y-82874500D01*
X150649500Y-82893713D01*
X150649500Y-83106287D01*
X150682754Y-83316243D01*
X150718301Y-83425646D01*
X150748444Y-83518414D01*
X150844951Y-83707820D01*
X150969890Y-83879786D01*
X151120213Y-84030109D01*
X151292182Y-84155050D01*
X151300946Y-84159516D01*
X151351742Y-84207491D01*
X151368536Y-84275312D01*
X151345998Y-84341447D01*
X151300946Y-84380484D01*
X151292182Y-84384949D01*
X151120213Y-84509890D01*
X150969890Y-84660213D01*
X150844951Y-84832179D01*
X150748444Y-85021585D01*
X150682753Y-85223760D01*
X150652182Y-85416777D01*
X150649500Y-85433713D01*
X150649500Y-85646287D01*
X150682754Y-85856243D01*
X150728555Y-85997204D01*
X150748444Y-86058414D01*
X150844951Y-86247820D01*
X150969890Y-86419786D01*
X151120213Y-86570109D01*
X151292182Y-86695050D01*
X151300946Y-86699516D01*
X151351742Y-86747491D01*
X151368536Y-86815312D01*
X151345998Y-86881447D01*
X151300946Y-86920484D01*
X151292182Y-86924949D01*
X151120213Y-87049890D01*
X150969890Y-87200213D01*
X150844951Y-87372179D01*
X150748444Y-87561585D01*
X150682753Y-87763760D01*
X150660899Y-87901740D01*
X150649500Y-87973713D01*
X150649500Y-88186287D01*
X150651527Y-88199083D01*
X150681718Y-88389707D01*
X150682754Y-88396243D01*
X150733278Y-88551740D01*
X150748444Y-88598414D01*
X150844951Y-88787820D01*
X150969890Y-88959786D01*
X151120213Y-89110109D01*
X151292182Y-89235050D01*
X151300946Y-89239516D01*
X151351742Y-89287491D01*
X151368536Y-89355312D01*
X151345998Y-89421447D01*
X151300946Y-89460484D01*
X151292182Y-89464949D01*
X151120213Y-89589890D01*
X150969890Y-89740213D01*
X150844951Y-89912179D01*
X150748444Y-90101585D01*
X150682753Y-90303760D01*
X150649500Y-90513713D01*
X150649500Y-90726286D01*
X150678501Y-90909394D01*
X150682754Y-90936243D01*
X150740047Y-91112573D01*
X150748444Y-91138414D01*
X150844951Y-91327820D01*
X150969890Y-91499786D01*
X151120213Y-91650109D01*
X151292182Y-91775050D01*
X151300946Y-91779516D01*
X151351742Y-91827491D01*
X151368536Y-91895312D01*
X151345998Y-91961447D01*
X151300946Y-92000484D01*
X151292182Y-92004949D01*
X151120213Y-92129890D01*
X150969890Y-92280213D01*
X150844951Y-92452179D01*
X150748444Y-92641585D01*
X150682753Y-92843760D01*
X150649500Y-93053713D01*
X150649500Y-93266286D01*
X150675983Y-93433497D01*
X150682754Y-93476243D01*
X150729446Y-93619947D01*
X150748444Y-93678414D01*
X150844951Y-93867820D01*
X150969890Y-94039786D01*
X151120213Y-94190109D01*
X151292182Y-94315050D01*
X151300946Y-94319516D01*
X151351742Y-94367491D01*
X151368536Y-94435312D01*
X151345998Y-94501447D01*
X151300946Y-94540484D01*
X151292182Y-94544949D01*
X151120213Y-94669890D01*
X150969890Y-94820213D01*
X150844951Y-94992179D01*
X150748444Y-95181585D01*
X150682753Y-95383760D01*
X150664303Y-95500252D01*
X150649500Y-95593713D01*
X150649500Y-95806287D01*
X150656879Y-95852875D01*
X150682587Y-96015192D01*
X150682754Y-96016243D01*
X150733035Y-96170992D01*
X150748444Y-96218414D01*
X150844951Y-96407820D01*
X150969890Y-96579786D01*
X151120213Y-96730109D01*
X151292179Y-96855048D01*
X151292181Y-96855049D01*
X151292184Y-96855051D01*
X151301493Y-96859794D01*
X151352290Y-96907766D01*
X151369087Y-96975587D01*
X151346552Y-97041722D01*
X151301505Y-97080760D01*
X151292446Y-97085376D01*
X151292440Y-97085380D01*
X151238282Y-97124727D01*
X151238282Y-97124728D01*
X151870591Y-97757037D01*
X151807007Y-97774075D01*
X151692993Y-97839901D01*
X151599901Y-97932993D01*
X151534075Y-98047007D01*
X151517037Y-98110591D01*
X150884728Y-97478282D01*
X150884727Y-97478282D01*
X150845380Y-97532439D01*
X150748904Y-97721782D01*
X150683242Y-97923869D01*
X150683242Y-97923872D01*
X150650000Y-98133753D01*
X150650000Y-98346246D01*
X150683242Y-98556127D01*
X150683242Y-98556130D01*
X150748904Y-98758217D01*
X150845375Y-98947550D01*
X150884728Y-99001716D01*
X151517037Y-98369408D01*
X151534075Y-98432993D01*
X151599901Y-98547007D01*
X151692993Y-98640099D01*
X151807007Y-98705925D01*
X151870590Y-98722962D01*
X151238282Y-99355269D01*
X151238282Y-99355270D01*
X151292449Y-99394624D01*
X151481782Y-99491095D01*
X151683870Y-99556757D01*
X151893754Y-99590000D01*
X152106246Y-99590000D01*
X152316127Y-99556757D01*
X152316130Y-99556757D01*
X152518217Y-99491095D01*
X152707554Y-99394622D01*
X152761716Y-99355270D01*
X152761717Y-99355270D01*
X152129408Y-98722962D01*
X152192993Y-98705925D01*
X152307007Y-98640099D01*
X152400099Y-98547007D01*
X152465925Y-98432993D01*
X152482962Y-98369408D01*
X153115270Y-99001717D01*
X153115270Y-99001716D01*
X153154622Y-98947554D01*
X153251095Y-98758217D01*
X153316757Y-98556130D01*
X153316757Y-98556127D01*
X153350000Y-98346246D01*
X153350000Y-98133753D01*
X153316757Y-97923872D01*
X153316757Y-97923869D01*
X153251095Y-97721782D01*
X153154624Y-97532449D01*
X153115270Y-97478282D01*
X153115269Y-97478282D01*
X152482962Y-98110590D01*
X152465925Y-98047007D01*
X152400099Y-97932993D01*
X152307007Y-97839901D01*
X152192993Y-97774075D01*
X152129409Y-97757037D01*
X152761716Y-97124728D01*
X152707547Y-97085373D01*
X152707547Y-97085372D01*
X152698500Y-97080763D01*
X152647706Y-97032788D01*
X152630912Y-96964966D01*
X152653451Y-96898832D01*
X152698508Y-96859793D01*
X152707816Y-96855051D01*
X152787007Y-96797515D01*
X152879786Y-96730109D01*
X152879788Y-96730106D01*
X152879792Y-96730104D01*
X153030104Y-96579792D01*
X153030106Y-96579788D01*
X153030109Y-96579786D01*
X153155048Y-96407820D01*
X153155047Y-96407820D01*
X153155051Y-96407816D01*
X153251557Y-96218412D01*
X153317246Y-96016243D01*
X153350500Y-95806287D01*
X153350500Y-95593713D01*
X153317246Y-95383757D01*
X153251557Y-95181588D01*
X153155051Y-94992184D01*
X153155049Y-94992181D01*
X153155048Y-94992179D01*
X153030109Y-94820213D01*
X152879786Y-94669890D01*
X152707820Y-94544951D01*
X152707115Y-94544591D01*
X152699054Y-94540485D01*
X152648259Y-94492512D01*
X152631463Y-94424692D01*
X152653999Y-94358556D01*
X152699054Y-94319515D01*
X152707816Y-94315051D01*
X152741893Y-94290293D01*
X152879786Y-94190109D01*
X152879788Y-94190106D01*
X152879792Y-94190104D01*
X153030104Y-94039792D01*
X153030106Y-94039788D01*
X153030109Y-94039786D01*
X153130108Y-93902147D01*
X153155051Y-93867816D01*
X153165818Y-93846685D01*
X153175235Y-93828205D01*
X153223209Y-93777409D01*
X153285719Y-93760500D01*
X154158433Y-93760500D01*
X154225472Y-93780185D01*
X154271227Y-93832989D01*
X154281171Y-93902147D01*
X154276141Y-93923494D01*
X154260090Y-93971934D01*
X154260000Y-93972206D01*
X154249500Y-94074983D01*
X154249500Y-95125001D01*
X154249501Y-95125019D01*
X154260000Y-95227796D01*
X154260001Y-95227799D01*
X154293442Y-95328716D01*
X154315186Y-95394334D01*
X154407288Y-95543656D01*
X154531344Y-95667712D01*
X154632330Y-95730000D01*
X154635514Y-95731964D01*
X154682238Y-95783912D01*
X154693461Y-95852875D01*
X154684979Y-95884953D01*
X154674500Y-95910251D01*
X154674497Y-95910261D01*
X154649500Y-96035928D01*
X154649500Y-96122911D01*
X154629815Y-96189950D01*
X154590598Y-96228449D01*
X154543844Y-96257287D01*
X154419789Y-96381342D01*
X154327687Y-96530663D01*
X154327686Y-96530666D01*
X154272501Y-96697203D01*
X154272501Y-96697204D01*
X154272500Y-96697204D01*
X154262000Y-96799983D01*
X154262000Y-97800001D01*
X154262001Y-97800019D01*
X154272500Y-97902796D01*
X154272501Y-97902799D01*
X154327685Y-98069331D01*
X154327687Y-98069336D01*
X154343080Y-98094292D01*
X154414627Y-98210289D01*
X154419789Y-98218657D01*
X154543845Y-98342713D01*
X154543844Y-98342713D01*
X154546679Y-98344461D01*
X154548214Y-98346168D01*
X154549513Y-98347195D01*
X154549337Y-98347416D01*
X154593404Y-98396408D01*
X154604627Y-98465370D01*
X154576784Y-98529453D01*
X154546682Y-98555537D01*
X154543846Y-98557285D01*
X154419789Y-98681342D01*
X154327687Y-98830663D01*
X154327686Y-98830666D01*
X154272501Y-98997203D01*
X154272501Y-98997204D01*
X154272500Y-98997204D01*
X154262000Y-99099983D01*
X154262000Y-100100001D01*
X154262001Y-100100019D01*
X154272500Y-100202796D01*
X154280869Y-100228051D01*
X154316805Y-100336496D01*
X154319207Y-100406324D01*
X154283476Y-100466366D01*
X154220955Y-100497559D01*
X154199099Y-100499500D01*
X150224500Y-100499500D01*
X150157461Y-100479815D01*
X150111706Y-100427011D01*
X150100500Y-100375500D01*
X150100500Y-77624500D01*
X150120185Y-77557461D01*
X150172989Y-77511706D01*
X150224500Y-77500500D01*
X153845178Y-77500500D01*
X153912217Y-77520185D01*
G37*
%TD.AperFunction*%
%TA.AperFunction,Conductor*%
G36*
X172191470Y-95390959D02*
G01*
X172218834Y-95392916D01*
X172218836Y-95392917D01*
X172218840Y-95392918D01*
X172249828Y-95416118D01*
X172274767Y-95434788D01*
X172274768Y-95434790D01*
X172274771Y-95434793D01*
X172285334Y-95463118D01*
X172299184Y-95500252D01*
X172299184Y-95500255D01*
X172299185Y-95500258D01*
X172299184Y-95500261D01*
X172299500Y-95509098D01*
X172299500Y-100375500D01*
X172279815Y-100442539D01*
X172227011Y-100488294D01*
X172175500Y-100499500D01*
X158175901Y-100499500D01*
X158148578Y-100491477D01*
X158120542Y-100486457D01*
X158115482Y-100481759D01*
X158108862Y-100479815D01*
X158090218Y-100458299D01*
X158069342Y-100438914D01*
X158067625Y-100432225D01*
X158063107Y-100427011D01*
X158059054Y-100398827D01*
X158051974Y-100371237D01*
X158053700Y-100361593D01*
X158053163Y-100357853D01*
X158058195Y-100336496D01*
X158058196Y-100336495D01*
X158075095Y-100285495D01*
X158114868Y-100228051D01*
X158179384Y-100201228D01*
X158192801Y-100200500D01*
X161479055Y-100200500D01*
X161479057Y-100200500D01*
X161631784Y-100159577D01*
X161768716Y-100080520D01*
X161880520Y-99968716D01*
X161959577Y-99831784D01*
X161993483Y-99705242D01*
X162029845Y-99645587D01*
X162092692Y-99615057D01*
X162137448Y-99615723D01*
X162184084Y-99624999D01*
X162184085Y-99625000D01*
X162285000Y-99625000D01*
X162725000Y-99625000D01*
X162825915Y-99625000D01*
X162825918Y-99624999D01*
X162965008Y-99597332D01*
X162965020Y-99597329D01*
X163096041Y-99543059D01*
X163096054Y-99543052D01*
X163213972Y-99464261D01*
X163213976Y-99464258D01*
X163314258Y-99363976D01*
X163314261Y-99363972D01*
X163393052Y-99246054D01*
X163393057Y-99246044D01*
X163443196Y-99125000D01*
X162725000Y-99125000D01*
X162725000Y-99625000D01*
X162285000Y-99625000D01*
X162285000Y-99029000D01*
X162304685Y-98961961D01*
X162357489Y-98916206D01*
X162409000Y-98905000D01*
X162505000Y-98905000D01*
X162505000Y-98809000D01*
X162524685Y-98741961D01*
X162577489Y-98696206D01*
X162629000Y-98685000D01*
X163443196Y-98685000D01*
X163443195Y-98684999D01*
X163393057Y-98563955D01*
X163393052Y-98563945D01*
X163314261Y-98446027D01*
X163314258Y-98446023D01*
X163226269Y-98358034D01*
X163192784Y-98296711D01*
X163197768Y-98227019D01*
X163226267Y-98182673D01*
X163314649Y-98094292D01*
X163393499Y-97976285D01*
X163447811Y-97845162D01*
X163461951Y-97774075D01*
X163475500Y-97705965D01*
X163475500Y-97564034D01*
X163447812Y-97424844D01*
X163447811Y-97424838D01*
X163425904Y-97371951D01*
X163418436Y-97302483D01*
X163449711Y-97240004D01*
X163509801Y-97204352D01*
X163540466Y-97200500D01*
X163678844Y-97200500D01*
X163678845Y-97200499D01*
X163833497Y-97169737D01*
X163979179Y-97109394D01*
X164110289Y-97021789D01*
X164221789Y-96910289D01*
X164309394Y-96779179D01*
X164369737Y-96633497D01*
X164400500Y-96478842D01*
X164400500Y-96321158D01*
X164400500Y-96321155D01*
X164400499Y-96321153D01*
X164377875Y-96207415D01*
X164369737Y-96166503D01*
X164364905Y-96154838D01*
X164307063Y-96015192D01*
X164309036Y-96014374D01*
X164304045Y-96007264D01*
X164303017Y-95982112D01*
X164297904Y-95957466D01*
X164301615Y-95947799D01*
X164301193Y-95937453D01*
X164313927Y-95915738D01*
X164322950Y-95892240D01*
X164332237Y-95884513D01*
X164336537Y-95877182D01*
X164356763Y-95864109D01*
X164365425Y-95856904D01*
X164369648Y-95854762D01*
X164479179Y-95809394D01*
X164542228Y-95767265D01*
X164548863Y-95763902D01*
X164576193Y-95758826D01*
X164602721Y-95750520D01*
X164604935Y-95750500D01*
X164954069Y-95750500D01*
X164967226Y-95747882D01*
X164991418Y-95745500D01*
X167635931Y-95745500D01*
X167764069Y-95745500D01*
X168835931Y-95745500D01*
X168964069Y-95745500D01*
X169360410Y-95745500D01*
X169427449Y-95765185D01*
X169473204Y-95817989D01*
X169483148Y-95887147D01*
X169463512Y-95938391D01*
X169406502Y-96023711D01*
X169406501Y-96023714D01*
X169352189Y-96154836D01*
X169352187Y-96154844D01*
X169324500Y-96294034D01*
X169324500Y-96294037D01*
X169324500Y-96435963D01*
X169324500Y-96435965D01*
X169324499Y-96435965D01*
X169352187Y-96575155D01*
X169352189Y-96575163D01*
X169406501Y-96706285D01*
X169406502Y-96706288D01*
X169485350Y-96824291D01*
X169489216Y-96829002D01*
X169487860Y-96830114D01*
X169494489Y-96842255D01*
X169508990Y-96858989D01*
X169510906Y-96872320D01*
X169517362Y-96884142D01*
X169515782Y-96906228D01*
X169518934Y-96928147D01*
X169513338Y-96940398D01*
X169512378Y-96953834D01*
X169499107Y-96971560D01*
X169489909Y-96991703D01*
X169478577Y-96998985D01*
X169470506Y-97009767D01*
X169449760Y-97017504D01*
X169431131Y-97029477D01*
X169409212Y-97032628D01*
X169405042Y-97034184D01*
X169396196Y-97034500D01*
X169321669Y-97034500D01*
X169321653Y-97034499D01*
X169314057Y-97034499D01*
X169155943Y-97034499D01*
X169079579Y-97054961D01*
X169003212Y-97075423D01*
X169003211Y-97075424D01*
X168990286Y-97082887D01*
X168974797Y-97087037D01*
X168963221Y-97094477D01*
X168928286Y-97099500D01*
X168879766Y-97099500D01*
X168812727Y-97079815D01*
X168810875Y-97078602D01*
X168679185Y-96990609D01*
X168679172Y-96990602D01*
X168533501Y-96930264D01*
X168533489Y-96930261D01*
X168378845Y-96899500D01*
X168378842Y-96899500D01*
X168221158Y-96899500D01*
X168221155Y-96899500D01*
X168066510Y-96930261D01*
X168066498Y-96930264D01*
X167920827Y-96990602D01*
X167920814Y-96990609D01*
X167789711Y-97078210D01*
X167789707Y-97078213D01*
X167678213Y-97189707D01*
X167678210Y-97189711D01*
X167590609Y-97320814D01*
X167590602Y-97320827D01*
X167530264Y-97466498D01*
X167530261Y-97466510D01*
X167499500Y-97621153D01*
X167499500Y-97778846D01*
X167530261Y-97933489D01*
X167530264Y-97933501D01*
X167590602Y-98079172D01*
X167590609Y-98079185D01*
X167678210Y-98210288D01*
X167678213Y-98210292D01*
X167789707Y-98321786D01*
X167789711Y-98321789D01*
X167920814Y-98409390D01*
X167920827Y-98409397D01*
X168018853Y-98450000D01*
X168066503Y-98469737D01*
X168221153Y-98500499D01*
X168221156Y-98500500D01*
X168313445Y-98500500D01*
X168380484Y-98520185D01*
X168426239Y-98572989D01*
X168436183Y-98642147D01*
X168431159Y-98660411D01*
X168432031Y-98660676D01*
X168430261Y-98666510D01*
X168399500Y-98821153D01*
X168399500Y-98978846D01*
X168430261Y-99133489D01*
X168430264Y-99133501D01*
X168490602Y-99279172D01*
X168490609Y-99279185D01*
X168578210Y-99410288D01*
X168578213Y-99410292D01*
X168689707Y-99521786D01*
X168689711Y-99521789D01*
X168820814Y-99609390D01*
X168820827Y-99609397D01*
X168908199Y-99645587D01*
X168966503Y-99669737D01*
X169121153Y-99700499D01*
X169121156Y-99700500D01*
X169121158Y-99700500D01*
X169278844Y-99700500D01*
X169278845Y-99700499D01*
X169433497Y-99669737D01*
X169579179Y-99609394D01*
X169632609Y-99573692D01*
X169699282Y-99552816D01*
X169748948Y-99562234D01*
X169834838Y-99597811D01*
X169868925Y-99604591D01*
X169974034Y-99625500D01*
X169974037Y-99625500D01*
X170615965Y-99625500D01*
X170686037Y-99611561D01*
X170755162Y-99597811D01*
X170886285Y-99543499D01*
X171004292Y-99464649D01*
X171104649Y-99364292D01*
X171183499Y-99246285D01*
X171237811Y-99115162D01*
X171260377Y-99001717D01*
X171265500Y-98975965D01*
X171265500Y-98834034D01*
X171237812Y-98694844D01*
X171237811Y-98694838D01*
X171183499Y-98563715D01*
X171183497Y-98563713D01*
X171183497Y-98563711D01*
X171104649Y-98445708D01*
X171104646Y-98445704D01*
X171016623Y-98357681D01*
X170983138Y-98296358D01*
X170988122Y-98226666D01*
X171016623Y-98182319D01*
X171104646Y-98094295D01*
X171104649Y-98094292D01*
X171183499Y-97976285D01*
X171237811Y-97845162D01*
X171251951Y-97774075D01*
X171265500Y-97705965D01*
X171265500Y-97564034D01*
X171237812Y-97424844D01*
X171237811Y-97424838D01*
X171183499Y-97293715D01*
X171183497Y-97293713D01*
X171183497Y-97293711D01*
X171104649Y-97175708D01*
X171104646Y-97175704D01*
X171016623Y-97087681D01*
X170983138Y-97026358D01*
X170988122Y-96956666D01*
X171016623Y-96912319D01*
X171104646Y-96824295D01*
X171104649Y-96824292D01*
X171183499Y-96706285D01*
X171237811Y-96575162D01*
X171265500Y-96435963D01*
X171265500Y-96295096D01*
X171285185Y-96228057D01*
X171301819Y-96207415D01*
X171656359Y-95852875D01*
X172068713Y-95440521D01*
X172068716Y-95440520D01*
X172087825Y-95421410D01*
X172132858Y-95396824D01*
X172149142Y-95387932D01*
X172149144Y-95387932D01*
X172149148Y-95387930D01*
X172191470Y-95390959D01*
G37*
%TD.AperFunction*%
%TA.AperFunction,Conductor*%
G36*
X159138773Y-93795548D02*
G01*
X159186384Y-93846685D01*
X159199500Y-93902190D01*
X159199500Y-96075500D01*
X159196949Y-96084185D01*
X159198238Y-96093147D01*
X159187259Y-96117187D01*
X159179815Y-96142539D01*
X159172974Y-96148466D01*
X159169213Y-96156703D01*
X159146978Y-96170992D01*
X159127011Y-96188294D01*
X159116496Y-96190581D01*
X159110435Y-96194477D01*
X159075500Y-96199500D01*
X158970807Y-96199500D01*
X158903768Y-96179815D01*
X158883126Y-96163181D01*
X158314674Y-95594727D01*
X158314673Y-95594726D01*
X158313157Y-95593713D01*
X158208127Y-95523535D01*
X158208124Y-95523533D01*
X158208123Y-95523533D01*
X158168107Y-95506958D01*
X158113703Y-95463118D01*
X158091638Y-95396824D01*
X158097853Y-95353392D01*
X158139505Y-95227694D01*
X158139506Y-95227690D01*
X158149999Y-95124986D01*
X158150000Y-95124973D01*
X158150000Y-94850000D01*
X157274000Y-94850000D01*
X157206961Y-94830315D01*
X157161206Y-94777511D01*
X157150000Y-94726000D01*
X157150000Y-94474000D01*
X157169685Y-94406961D01*
X157222489Y-94361206D01*
X157274000Y-94350000D01*
X157894189Y-94350000D01*
X157941636Y-94359437D01*
X157966503Y-94369737D01*
X157966510Y-94369738D01*
X157966511Y-94369739D01*
X158121153Y-94400499D01*
X158121156Y-94400500D01*
X158121158Y-94400500D01*
X158278844Y-94400500D01*
X158278845Y-94400499D01*
X158433497Y-94369737D01*
X158579179Y-94309394D01*
X158710289Y-94221789D01*
X158821789Y-94110289D01*
X158909394Y-93979179D01*
X158941284Y-93902190D01*
X158960939Y-93854738D01*
X159004779Y-93800334D01*
X159071074Y-93778269D01*
X159138773Y-93795548D01*
G37*
%TD.AperFunction*%
%TA.AperFunction,Conductor*%
G36*
X171042539Y-88820185D02*
G01*
X171088294Y-88872989D01*
X171099500Y-88924500D01*
X171099500Y-89778841D01*
X171079815Y-89845880D01*
X171027011Y-89891635D01*
X170957853Y-89901579D01*
X170936496Y-89896547D01*
X170827697Y-89860494D01*
X170827690Y-89860493D01*
X170724986Y-89850000D01*
X170450000Y-89850000D01*
X170450000Y-90726000D01*
X170430315Y-90793039D01*
X170377511Y-90838794D01*
X170326000Y-90850000D01*
X170200000Y-90850000D01*
X170200000Y-90976000D01*
X170180315Y-91043039D01*
X170127511Y-91088794D01*
X170076000Y-91100000D01*
X167824000Y-91100000D01*
X167756961Y-91080315D01*
X167711206Y-91027511D01*
X167700000Y-90976000D01*
X167700000Y-90850000D01*
X167574000Y-90850000D01*
X167506961Y-90830315D01*
X167461206Y-90777511D01*
X167450000Y-90726000D01*
X167450000Y-90600000D01*
X167950000Y-90600000D01*
X169950000Y-90600000D01*
X169950000Y-89850000D01*
X169675029Y-89850000D01*
X169675012Y-89850001D01*
X169572302Y-89860494D01*
X169405880Y-89915641D01*
X169405875Y-89915643D01*
X169256654Y-90007684D01*
X169132683Y-90131655D01*
X169132680Y-90131659D01*
X169055538Y-90256726D01*
X169003590Y-90303451D01*
X168934628Y-90314672D01*
X168870546Y-90286829D01*
X168844462Y-90256726D01*
X168767319Y-90131659D01*
X168767316Y-90131655D01*
X168643345Y-90007684D01*
X168494124Y-89915643D01*
X168494119Y-89915641D01*
X168327697Y-89860494D01*
X168327690Y-89860493D01*
X168224986Y-89850000D01*
X167950000Y-89850000D01*
X167950000Y-90600000D01*
X167450000Y-90600000D01*
X167450000Y-89828164D01*
X167442780Y-89814942D01*
X167447764Y-89745250D01*
X167449357Y-89741198D01*
X167469737Y-89691999D01*
X167500500Y-89537344D01*
X167500500Y-89379660D01*
X167493119Y-89342555D01*
X167493826Y-89334648D01*
X167491052Y-89327210D01*
X167496895Y-89300347D01*
X167499345Y-89272965D01*
X167504593Y-89264955D01*
X167505903Y-89258937D01*
X167527050Y-89230686D01*
X167580520Y-89177218D01*
X167580521Y-89177216D01*
X167920920Y-88836816D01*
X167982242Y-88803334D01*
X168008600Y-88800500D01*
X170975500Y-88800500D01*
X171042539Y-88820185D01*
G37*
%TD.AperFunction*%
%TA.AperFunction,Conductor*%
G36*
X154992539Y-81130185D02*
G01*
X155038294Y-81182989D01*
X155049500Y-81234500D01*
X155049500Y-81964070D01*
X155059446Y-82014068D01*
X155059446Y-82014070D01*
X155074497Y-82089736D01*
X155074499Y-82089744D01*
X155087120Y-82120215D01*
X155123535Y-82208127D01*
X155194723Y-82314669D01*
X155313182Y-82433128D01*
X155346666Y-82494449D01*
X155349500Y-82520808D01*
X155349500Y-84264069D01*
X155349500Y-84264071D01*
X155349499Y-84264071D01*
X155373544Y-84384946D01*
X155374498Y-84389743D01*
X155423533Y-84508125D01*
X155494726Y-84614673D01*
X155494727Y-84614674D01*
X158197701Y-87317647D01*
X158231186Y-87378970D01*
X158226202Y-87448662D01*
X158184330Y-87504595D01*
X158157474Y-87519889D01*
X158122434Y-87534403D01*
X157997098Y-87630577D01*
X157900922Y-87755915D01*
X157840467Y-87901870D01*
X157833010Y-87958502D01*
X158050720Y-87958502D01*
X158079476Y-87966945D01*
X158108848Y-87972970D01*
X158112656Y-87976688D01*
X158117759Y-87978187D01*
X158137383Y-88000834D01*
X158158837Y-88021784D01*
X158160030Y-88026970D01*
X158163514Y-88030991D01*
X158167779Y-88060658D01*
X158174501Y-88089876D01*
X158172700Y-88094883D01*
X158173458Y-88100149D01*
X158161004Y-88127417D01*
X158150864Y-88155626D01*
X158145713Y-88160900D01*
X158144433Y-88163705D01*
X158126206Y-88180878D01*
X158037589Y-88248876D01*
X157972420Y-88274070D01*
X157962103Y-88274500D01*
X157642350Y-88274500D01*
X157575311Y-88254815D01*
X157573459Y-88253602D01*
X157479184Y-88190609D01*
X157479172Y-88190602D01*
X157333501Y-88130264D01*
X157333489Y-88130261D01*
X157178845Y-88099500D01*
X157178842Y-88099500D01*
X157021158Y-88099500D01*
X157021155Y-88099500D01*
X156866510Y-88130261D01*
X156866498Y-88130264D01*
X156720827Y-88190602D01*
X156720814Y-88190609D01*
X156589711Y-88278210D01*
X156589707Y-88278213D01*
X156478213Y-88389707D01*
X156478210Y-88389711D01*
X156390609Y-88520814D01*
X156390602Y-88520827D01*
X156337947Y-88647952D01*
X156294107Y-88702356D01*
X156227813Y-88724421D01*
X156223386Y-88724500D01*
X156121155Y-88724500D01*
X155966510Y-88755261D01*
X155966498Y-88755264D01*
X155820827Y-88815602D01*
X155820814Y-88815609D01*
X155732202Y-88874819D01*
X155665525Y-88895697D01*
X155598144Y-88877213D01*
X155594440Y-88874832D01*
X155541169Y-88839237D01*
X155541166Y-88839235D01*
X155541165Y-88839235D01*
X155541164Y-88839234D01*
X155395491Y-88778895D01*
X155395481Y-88778892D01*
X155240139Y-88747992D01*
X155178228Y-88715607D01*
X155176650Y-88714056D01*
X154936819Y-88474225D01*
X154903334Y-88412902D01*
X154900500Y-88386544D01*
X154900500Y-85720946D01*
X154900499Y-85720938D01*
X154899115Y-85715771D01*
X154899115Y-85715772D01*
X154899113Y-85715764D01*
X154859577Y-85568215D01*
X154797643Y-85460943D01*
X154780520Y-85431284D01*
X154668716Y-85319480D01*
X154668713Y-85319478D01*
X153185676Y-83836441D01*
X153152191Y-83775118D01*
X153157175Y-83705426D01*
X153162867Y-83692475D01*
X153251557Y-83518412D01*
X153317246Y-83316243D01*
X153350500Y-83106287D01*
X153350500Y-82893713D01*
X153317246Y-82683757D01*
X153251557Y-82481588D01*
X153155051Y-82292184D01*
X153155049Y-82292181D01*
X153155048Y-82292179D01*
X153030109Y-82120213D01*
X152916569Y-82006673D01*
X152883084Y-81945350D01*
X152888068Y-81875658D01*
X152929940Y-81819725D01*
X152960915Y-81802810D01*
X153092331Y-81753796D01*
X153207546Y-81667546D01*
X153293796Y-81552331D01*
X153344091Y-81417483D01*
X153350500Y-81357873D01*
X153350500Y-81234500D01*
X153370185Y-81167461D01*
X153422989Y-81121706D01*
X153474500Y-81110500D01*
X154925500Y-81110500D01*
X154992539Y-81130185D01*
G37*
%TD.AperFunction*%
%TA.AperFunction,Conductor*%
G36*
X172242539Y-77520185D02*
G01*
X172288294Y-77572989D01*
X172299500Y-77624500D01*
X172299500Y-87650902D01*
X172279815Y-87717941D01*
X172227011Y-87763696D01*
X172157853Y-87773640D01*
X172094297Y-87744615D01*
X172087819Y-87738583D01*
X172068717Y-87719481D01*
X172068709Y-87719475D01*
X171931790Y-87640426D01*
X171931786Y-87640424D01*
X171931784Y-87640423D01*
X171779057Y-87599500D01*
X171779056Y-87599500D01*
X167914433Y-87599500D01*
X167847394Y-87579815D01*
X167801639Y-87527011D01*
X167791695Y-87457853D01*
X167820720Y-87394297D01*
X167863984Y-87365423D01*
X167862791Y-87362864D01*
X167869326Y-87359816D01*
X167869334Y-87359814D01*
X168018656Y-87267712D01*
X168142712Y-87143656D01*
X168234814Y-86994334D01*
X168289999Y-86827797D01*
X168300500Y-86725009D01*
X168300499Y-86099992D01*
X168289999Y-85997203D01*
X168234814Y-85830666D01*
X168142712Y-85681344D01*
X168049049Y-85587681D01*
X168015564Y-85526358D01*
X168020548Y-85456666D01*
X168049049Y-85412319D01*
X168084632Y-85376736D01*
X168142712Y-85318656D01*
X168234814Y-85169334D01*
X168289999Y-85002797D01*
X168300500Y-84900009D01*
X168300499Y-84274992D01*
X168299383Y-84264071D01*
X168289999Y-84172203D01*
X168289998Y-84172200D01*
X168276585Y-84131722D01*
X168234814Y-84005666D01*
X168142712Y-83856344D01*
X168018656Y-83732288D01*
X167869334Y-83640186D01*
X167702797Y-83585001D01*
X167702795Y-83585000D01*
X167600010Y-83574500D01*
X166599998Y-83574500D01*
X166599980Y-83574501D01*
X166497203Y-83585000D01*
X166497200Y-83585001D01*
X166330668Y-83640185D01*
X166330663Y-83640187D01*
X166181342Y-83732289D01*
X166057285Y-83856346D01*
X166055537Y-83859182D01*
X166053829Y-83860717D01*
X166052807Y-83862011D01*
X166052585Y-83861836D01*
X166003589Y-83905905D01*
X165934626Y-83917126D01*
X165870544Y-83889282D01*
X165844463Y-83859182D01*
X165842714Y-83856346D01*
X165718657Y-83732289D01*
X165718656Y-83732288D01*
X165569334Y-83640186D01*
X165402797Y-83585001D01*
X165402795Y-83585000D01*
X165300010Y-83574500D01*
X164299998Y-83574500D01*
X164299980Y-83574501D01*
X164197203Y-83585000D01*
X164197200Y-83585001D01*
X164030668Y-83640185D01*
X164030663Y-83640187D01*
X163881342Y-83732289D01*
X163757288Y-83856343D01*
X163757285Y-83856347D01*
X163743870Y-83878097D01*
X163691922Y-83924822D01*
X163638332Y-83937000D01*
X163174500Y-83937000D01*
X163107461Y-83917315D01*
X163061706Y-83864511D01*
X163050500Y-83813000D01*
X163050500Y-80824500D01*
X163070185Y-80757461D01*
X163122989Y-80711706D01*
X163174500Y-80700500D01*
X164214071Y-80700500D01*
X164298615Y-80683682D01*
X164339744Y-80675501D01*
X164458127Y-80626465D01*
X164564669Y-80555276D01*
X164655276Y-80464669D01*
X164726465Y-80358127D01*
X164775501Y-80239744D01*
X164800500Y-80114069D01*
X164800500Y-79478957D01*
X164820185Y-79411918D01*
X164837392Y-79390706D01*
X164847413Y-79380814D01*
X164868656Y-79367712D01*
X164992712Y-79243656D01*
X165002580Y-79227655D01*
X165013185Y-79217189D01*
X165031356Y-79207419D01*
X165046694Y-79193623D01*
X165061506Y-79191211D01*
X165074725Y-79184105D01*
X165095291Y-79185710D01*
X165115656Y-79182395D01*
X165129421Y-79188375D01*
X165144383Y-79189543D01*
X165160817Y-79202013D01*
X165179740Y-79210234D01*
X165195275Y-79228161D01*
X165200042Y-79231778D01*
X165201232Y-79235035D01*
X165205829Y-79240339D01*
X165207681Y-79243341D01*
X165207683Y-79243344D01*
X165331654Y-79367315D01*
X165480875Y-79459356D01*
X165480880Y-79459358D01*
X165647302Y-79514505D01*
X165647309Y-79514506D01*
X165750019Y-79524999D01*
X166300000Y-79524999D01*
X166349972Y-79524999D01*
X166349986Y-79524998D01*
X166452697Y-79514505D01*
X166619119Y-79459358D01*
X166619124Y-79459356D01*
X166768345Y-79367315D01*
X166892315Y-79243345D01*
X166984356Y-79094124D01*
X166984358Y-79094119D01*
X167039505Y-78927697D01*
X167039506Y-78927690D01*
X167049999Y-78824986D01*
X167050000Y-78824973D01*
X167050000Y-78550000D01*
X166300000Y-78550000D01*
X166300000Y-79524999D01*
X165750019Y-79524999D01*
X165799999Y-79524998D01*
X165800000Y-79524998D01*
X165800000Y-78424000D01*
X165819685Y-78356961D01*
X165872489Y-78311206D01*
X165924000Y-78300000D01*
X166050000Y-78300000D01*
X166050000Y-78174000D01*
X166069685Y-78106961D01*
X166122489Y-78061206D01*
X166174000Y-78050000D01*
X167049999Y-78050000D01*
X167049999Y-77775028D01*
X167049998Y-77775013D01*
X167039505Y-77672301D01*
X167036591Y-77663506D01*
X167034188Y-77593677D01*
X167069919Y-77533635D01*
X167132438Y-77502442D01*
X167154296Y-77500500D01*
X172175500Y-77500500D01*
X172242539Y-77520185D01*
G37*
%TD.AperFunction*%
%TA.AperFunction,Conductor*%
G36*
X160077667Y-82468006D02*
G01*
X160101855Y-82495921D01*
X160102139Y-82495702D01*
X160106179Y-82500911D01*
X160106732Y-82501548D01*
X160106919Y-82501865D01*
X160106921Y-82501867D01*
X160106923Y-82501870D01*
X160223129Y-82618076D01*
X160223133Y-82618079D01*
X160223135Y-82618081D01*
X160364602Y-82701744D01*
X160406224Y-82713836D01*
X160522426Y-82747597D01*
X160522429Y-82747597D01*
X160522431Y-82747598D01*
X160559306Y-82750500D01*
X160559314Y-82750500D01*
X161625500Y-82750500D01*
X161692539Y-82770185D01*
X161738294Y-82822989D01*
X161749500Y-82874500D01*
X161749500Y-83425646D01*
X161729815Y-83492685D01*
X161677011Y-83538440D01*
X161607853Y-83548384D01*
X161597891Y-83546037D01*
X161597829Y-83546331D01*
X161591210Y-83544914D01*
X161488498Y-83534420D01*
X161213512Y-83534420D01*
X161213512Y-84410420D01*
X161193827Y-84477459D01*
X161141023Y-84523214D01*
X161089512Y-84534420D01*
X160963512Y-84534420D01*
X160963512Y-84660420D01*
X160943827Y-84727459D01*
X160891023Y-84773214D01*
X160839512Y-84784420D01*
X159738513Y-84784420D01*
X159738513Y-84834406D01*
X159749006Y-84937117D01*
X159804153Y-85103539D01*
X159804155Y-85103544D01*
X159896196Y-85252765D01*
X160020167Y-85376736D01*
X160020171Y-85376739D01*
X160023168Y-85378588D01*
X160024791Y-85380392D01*
X160025835Y-85381218D01*
X160025693Y-85381396D01*
X160069893Y-85430536D01*
X160081114Y-85499499D01*
X160053271Y-85563581D01*
X160023173Y-85589661D01*
X160019861Y-85591703D01*
X160019855Y-85591708D01*
X159895801Y-85715762D01*
X159803699Y-85865083D01*
X159803697Y-85865088D01*
X159775861Y-85949090D01*
X159748513Y-86031623D01*
X159748513Y-86031624D01*
X159748512Y-86031624D01*
X159738012Y-86134403D01*
X159738012Y-86718704D01*
X159718327Y-86785743D01*
X159665523Y-86831498D01*
X159596365Y-86841442D01*
X159532809Y-86812417D01*
X159526331Y-86806385D01*
X156954379Y-84234433D01*
X159738512Y-84234433D01*
X159738512Y-84284420D01*
X160713512Y-84284420D01*
X160713512Y-83534420D01*
X160438541Y-83534420D01*
X160438524Y-83534421D01*
X160335814Y-83544914D01*
X160169392Y-83600061D01*
X160169387Y-83600063D01*
X160020166Y-83692104D01*
X159896196Y-83816074D01*
X159804155Y-83965295D01*
X159804153Y-83965300D01*
X159749006Y-84131722D01*
X159749005Y-84131729D01*
X159738512Y-84234433D01*
X156954379Y-84234433D01*
X156686819Y-83966873D01*
X156653334Y-83905550D01*
X156650500Y-83879192D01*
X156650500Y-82724500D01*
X156670185Y-82657461D01*
X156722989Y-82611706D01*
X156774500Y-82600500D01*
X157884484Y-82600500D01*
X157947605Y-82617768D01*
X158008167Y-82653583D01*
X158089602Y-82701744D01*
X158131224Y-82713836D01*
X158247426Y-82747597D01*
X158247429Y-82747597D01*
X158247431Y-82747598D01*
X158284306Y-82750500D01*
X158284314Y-82750500D01*
X159440686Y-82750500D01*
X159440694Y-82750500D01*
X159477569Y-82747598D01*
X159477571Y-82747597D01*
X159477573Y-82747597D01*
X159557072Y-82724500D01*
X159635398Y-82701744D01*
X159776865Y-82618081D01*
X159893081Y-82501865D01*
X159893267Y-82501549D01*
X159893477Y-82501353D01*
X159897861Y-82495702D01*
X159898772Y-82496409D01*
X159944336Y-82453866D01*
X160013077Y-82441362D01*
X160077667Y-82468006D01*
G37*
%TD.AperFunction*%
%TA.AperFunction,Conductor*%
G36*
X160152289Y-80689355D02*
G01*
X160176352Y-80690129D01*
X160187569Y-80697030D01*
X160197041Y-80699091D01*
X160216620Y-80713747D01*
X160216969Y-80713298D01*
X160223132Y-80718078D01*
X160223135Y-80718081D01*
X160364602Y-80801744D01*
X160406224Y-80813836D01*
X160522426Y-80847597D01*
X160522429Y-80847597D01*
X160522431Y-80847598D01*
X160559306Y-80850500D01*
X160559314Y-80850500D01*
X161625500Y-80850500D01*
X161634185Y-80853050D01*
X161643147Y-80851762D01*
X161667187Y-80862740D01*
X161692539Y-80870185D01*
X161698466Y-80877025D01*
X161706703Y-80880787D01*
X161720992Y-80903021D01*
X161738294Y-80922989D01*
X161740581Y-80933503D01*
X161744477Y-80939565D01*
X161749500Y-80974500D01*
X161749500Y-81025500D01*
X161729815Y-81092539D01*
X161677011Y-81138294D01*
X161625500Y-81149500D01*
X160559298Y-81149500D01*
X160522432Y-81152401D01*
X160522426Y-81152402D01*
X160364606Y-81198254D01*
X160364603Y-81198255D01*
X160223137Y-81281917D01*
X160216969Y-81286702D01*
X160215664Y-81285019D01*
X160163954Y-81313246D01*
X160094263Y-81308251D01*
X160046558Y-81276247D01*
X160022296Y-81250000D01*
X159756815Y-81250000D01*
X159693694Y-81232732D01*
X159635396Y-81198255D01*
X159635393Y-81198254D01*
X159477573Y-81152402D01*
X159477567Y-81152401D01*
X159440701Y-81149500D01*
X159440694Y-81149500D01*
X158284306Y-81149500D01*
X158284298Y-81149500D01*
X158247432Y-81152401D01*
X158247426Y-81152402D01*
X158089606Y-81198254D01*
X158089603Y-81198255D01*
X158031306Y-81232732D01*
X157968185Y-81250000D01*
X157702704Y-81250000D01*
X157693763Y-81259672D01*
X157633802Y-81295538D01*
X157602708Y-81299500D01*
X156474500Y-81299500D01*
X156407461Y-81279815D01*
X156361706Y-81227011D01*
X156350500Y-81175500D01*
X156350500Y-80824500D01*
X156370185Y-80757461D01*
X156422989Y-80711706D01*
X156474500Y-80700500D01*
X157135931Y-80700500D01*
X157602708Y-80700500D01*
X157669747Y-80720185D01*
X157693763Y-80740328D01*
X157702704Y-80750000D01*
X157968185Y-80750000D01*
X158031306Y-80767268D01*
X158089602Y-80801744D01*
X158131224Y-80813836D01*
X158247426Y-80847597D01*
X158247429Y-80847597D01*
X158247431Y-80847598D01*
X158284306Y-80850500D01*
X158284314Y-80850500D01*
X159440686Y-80850500D01*
X159440694Y-80850500D01*
X159477569Y-80847598D01*
X159477571Y-80847597D01*
X159477573Y-80847597D01*
X159557072Y-80824500D01*
X159635398Y-80801744D01*
X159693694Y-80767268D01*
X159756815Y-80750000D01*
X160022294Y-80750000D01*
X160046557Y-80723752D01*
X160056419Y-80717852D01*
X160063304Y-80708656D01*
X160085855Y-80700244D01*
X160106518Y-80687885D01*
X160118003Y-80688254D01*
X160128768Y-80684239D01*
X160152289Y-80689355D01*
G37*
%TD.AperFunction*%
%TA.AperFunction,Conductor*%
G36*
X163112217Y-77520185D02*
G01*
X163157972Y-77572989D01*
X163167916Y-77642147D01*
X163162884Y-77663504D01*
X163160000Y-77672204D01*
X163149500Y-77774983D01*
X163149500Y-78825001D01*
X163149501Y-78825019D01*
X163160000Y-78927796D01*
X163160001Y-78927799D01*
X163215115Y-79094119D01*
X163215186Y-79094334D01*
X163286673Y-79210234D01*
X163286778Y-79210403D01*
X163305218Y-79277796D01*
X163284295Y-79344459D01*
X163230653Y-79389229D01*
X163181239Y-79399500D01*
X162115516Y-79399500D01*
X162052395Y-79382232D01*
X161910396Y-79298255D01*
X161910393Y-79298254D01*
X161752573Y-79252402D01*
X161752567Y-79252401D01*
X161715701Y-79249500D01*
X161715694Y-79249500D01*
X160559306Y-79249500D01*
X160559298Y-79249500D01*
X160522432Y-79252401D01*
X160522426Y-79252402D01*
X160364606Y-79298254D01*
X160364603Y-79298255D01*
X160223137Y-79381917D01*
X160223129Y-79381923D01*
X160106923Y-79498129D01*
X160106914Y-79498140D01*
X160106729Y-79498455D01*
X160106519Y-79498650D01*
X160102139Y-79504298D01*
X160101227Y-79503591D01*
X160055657Y-79546136D01*
X159986915Y-79558637D01*
X159922327Y-79531988D01*
X159898143Y-79504078D01*
X159897861Y-79504298D01*
X159893823Y-79499092D01*
X159893271Y-79498455D01*
X159893085Y-79498140D01*
X159893076Y-79498129D01*
X159776870Y-79381923D01*
X159776862Y-79381917D01*
X159635396Y-79298255D01*
X159635393Y-79298254D01*
X159477573Y-79252402D01*
X159477567Y-79252401D01*
X159440701Y-79249500D01*
X159440694Y-79249500D01*
X158284306Y-79249500D01*
X158284298Y-79249500D01*
X158247432Y-79252401D01*
X158247426Y-79252402D01*
X158089606Y-79298254D01*
X158089603Y-79298255D01*
X157947605Y-79382232D01*
X157931703Y-79386582D01*
X157919419Y-79394477D01*
X157884484Y-79399500D01*
X157818174Y-79399500D01*
X157751135Y-79379815D01*
X157705380Y-79327011D01*
X157695436Y-79257853D01*
X157712635Y-79210403D01*
X157784356Y-79094124D01*
X157784358Y-79094119D01*
X157839505Y-78927697D01*
X157839506Y-78927690D01*
X157849999Y-78824986D01*
X157850000Y-78824973D01*
X157850000Y-78550000D01*
X156974000Y-78550000D01*
X156906961Y-78530315D01*
X156861206Y-78477511D01*
X156850000Y-78426000D01*
X156850000Y-78174000D01*
X156869685Y-78106961D01*
X156922489Y-78061206D01*
X156974000Y-78050000D01*
X157849999Y-78050000D01*
X157849999Y-77775028D01*
X157849998Y-77775013D01*
X157839505Y-77672301D01*
X157836591Y-77663506D01*
X157834188Y-77593677D01*
X157869919Y-77533635D01*
X157932438Y-77502442D01*
X157954296Y-77500500D01*
X163045178Y-77500500D01*
X163112217Y-77520185D01*
G37*
%TD.AperFunction*%
%TD*%
M02*
