%TF.GenerationSoftware,KiCad,Pcbnew,10.0.3*%
%TF.CreationDate,2026-07-29T11:16:19-04:00*%
%TF.ProjectId,SPI NAND Breakout,53504920-4e41-44e4-9420-427265616b6f,rev?*%
%TF.SameCoordinates,Original*%
%TF.FileFunction,AssemblyDrawing,Top*%
%FSLAX46Y46*%
G04 Gerber Fmt 4.6, Leading zero omitted, Abs format (unit mm)*
G04 Created by KiCad (PCBNEW 10.0.3) date 2026-07-29 11:16:19*
%MOMM*%
%LPD*%
G01*
G04 APERTURE LIST*
%ADD10C,0.150000*%
%ADD11C,0.080000*%
%ADD12C,0.110000*%
%ADD13C,0.100000*%
%ADD14C,0.127000*%
%ADD15C,0.200000*%
G04 APERTURE END LIST*
D10*
X164504761Y-77074819D02*
X163933333Y-77074819D01*
X164219047Y-77074819D02*
X164219047Y-76074819D01*
X164219047Y-76074819D02*
X164123809Y-76217676D01*
X164123809Y-76217676D02*
X164028571Y-76312914D01*
X164028571Y-76312914D02*
X163933333Y-76360533D01*
X165361904Y-76408152D02*
X165361904Y-77074819D01*
X164933333Y-76408152D02*
X164933333Y-76931961D01*
X164933333Y-76931961D02*
X164980952Y-77027200D01*
X164980952Y-77027200D02*
X165076190Y-77074819D01*
X165076190Y-77074819D02*
X165219047Y-77074819D01*
X165219047Y-77074819D02*
X165314285Y-77027200D01*
X165314285Y-77027200D02*
X165361904Y-76979580D01*
X166171428Y-76551009D02*
X165838095Y-76551009D01*
X165838095Y-77074819D02*
X165838095Y-76074819D01*
X165838095Y-76074819D02*
X166314285Y-76074819D01*
D11*
X165016666Y-78479530D02*
X164992857Y-78503340D01*
X164992857Y-78503340D02*
X164921428Y-78527149D01*
X164921428Y-78527149D02*
X164873809Y-78527149D01*
X164873809Y-78527149D02*
X164802381Y-78503340D01*
X164802381Y-78503340D02*
X164754762Y-78455720D01*
X164754762Y-78455720D02*
X164730952Y-78408101D01*
X164730952Y-78408101D02*
X164707143Y-78312863D01*
X164707143Y-78312863D02*
X164707143Y-78241435D01*
X164707143Y-78241435D02*
X164730952Y-78146197D01*
X164730952Y-78146197D02*
X164754762Y-78098578D01*
X164754762Y-78098578D02*
X164802381Y-78050959D01*
X164802381Y-78050959D02*
X164873809Y-78027149D01*
X164873809Y-78027149D02*
X164921428Y-78027149D01*
X164921428Y-78027149D02*
X164992857Y-78050959D01*
X164992857Y-78050959D02*
X165016666Y-78074768D01*
X165207143Y-78074768D02*
X165230952Y-78050959D01*
X165230952Y-78050959D02*
X165278571Y-78027149D01*
X165278571Y-78027149D02*
X165397619Y-78027149D01*
X165397619Y-78027149D02*
X165445238Y-78050959D01*
X165445238Y-78050959D02*
X165469047Y-78074768D01*
X165469047Y-78074768D02*
X165492857Y-78122387D01*
X165492857Y-78122387D02*
X165492857Y-78170006D01*
X165492857Y-78170006D02*
X165469047Y-78241435D01*
X165469047Y-78241435D02*
X165183333Y-78527149D01*
X165183333Y-78527149D02*
X165492857Y-78527149D01*
D10*
X154652380Y-93374819D02*
X154080952Y-93374819D01*
X154366666Y-93374819D02*
X154366666Y-92374819D01*
X154366666Y-92374819D02*
X154271428Y-92517676D01*
X154271428Y-92517676D02*
X154176190Y-92612914D01*
X154176190Y-92612914D02*
X154080952Y-92660533D01*
X155271428Y-92374819D02*
X155366666Y-92374819D01*
X155366666Y-92374819D02*
X155461904Y-92422438D01*
X155461904Y-92422438D02*
X155509523Y-92470057D01*
X155509523Y-92470057D02*
X155557142Y-92565295D01*
X155557142Y-92565295D02*
X155604761Y-92755771D01*
X155604761Y-92755771D02*
X155604761Y-92993866D01*
X155604761Y-92993866D02*
X155557142Y-93184342D01*
X155557142Y-93184342D02*
X155509523Y-93279580D01*
X155509523Y-93279580D02*
X155461904Y-93327200D01*
X155461904Y-93327200D02*
X155366666Y-93374819D01*
X155366666Y-93374819D02*
X155271428Y-93374819D01*
X155271428Y-93374819D02*
X155176190Y-93327200D01*
X155176190Y-93327200D02*
X155128571Y-93279580D01*
X155128571Y-93279580D02*
X155080952Y-93184342D01*
X155080952Y-93184342D02*
X155033333Y-92993866D01*
X155033333Y-92993866D02*
X155033333Y-92755771D01*
X155033333Y-92755771D02*
X155080952Y-92565295D01*
X155080952Y-92565295D02*
X155128571Y-92470057D01*
X155128571Y-92470057D02*
X155176190Y-92422438D01*
X155176190Y-92422438D02*
X155271428Y-92374819D01*
X156223809Y-92374819D02*
X156319047Y-92374819D01*
X156319047Y-92374819D02*
X156414285Y-92422438D01*
X156414285Y-92422438D02*
X156461904Y-92470057D01*
X156461904Y-92470057D02*
X156509523Y-92565295D01*
X156509523Y-92565295D02*
X156557142Y-92755771D01*
X156557142Y-92755771D02*
X156557142Y-92993866D01*
X156557142Y-92993866D02*
X156509523Y-93184342D01*
X156509523Y-93184342D02*
X156461904Y-93279580D01*
X156461904Y-93279580D02*
X156414285Y-93327200D01*
X156414285Y-93327200D02*
X156319047Y-93374819D01*
X156319047Y-93374819D02*
X156223809Y-93374819D01*
X156223809Y-93374819D02*
X156128571Y-93327200D01*
X156128571Y-93327200D02*
X156080952Y-93279580D01*
X156080952Y-93279580D02*
X156033333Y-93184342D01*
X156033333Y-93184342D02*
X155985714Y-92993866D01*
X155985714Y-92993866D02*
X155985714Y-92755771D01*
X155985714Y-92755771D02*
X156033333Y-92565295D01*
X156033333Y-92565295D02*
X156080952Y-92470057D01*
X156080952Y-92470057D02*
X156128571Y-92422438D01*
X156128571Y-92422438D02*
X156223809Y-92374819D01*
X156985714Y-92708152D02*
X156985714Y-93374819D01*
X156985714Y-92803390D02*
X157033333Y-92755771D01*
X157033333Y-92755771D02*
X157128571Y-92708152D01*
X157128571Y-92708152D02*
X157271428Y-92708152D01*
X157271428Y-92708152D02*
X157366666Y-92755771D01*
X157366666Y-92755771D02*
X157414285Y-92851009D01*
X157414285Y-92851009D02*
X157414285Y-93374819D01*
X158223809Y-92851009D02*
X157890476Y-92851009D01*
X157890476Y-93374819D02*
X157890476Y-92374819D01*
X157890476Y-92374819D02*
X158366666Y-92374819D01*
D11*
X156116666Y-94779530D02*
X156092857Y-94803340D01*
X156092857Y-94803340D02*
X156021428Y-94827149D01*
X156021428Y-94827149D02*
X155973809Y-94827149D01*
X155973809Y-94827149D02*
X155902381Y-94803340D01*
X155902381Y-94803340D02*
X155854762Y-94755720D01*
X155854762Y-94755720D02*
X155830952Y-94708101D01*
X155830952Y-94708101D02*
X155807143Y-94612863D01*
X155807143Y-94612863D02*
X155807143Y-94541435D01*
X155807143Y-94541435D02*
X155830952Y-94446197D01*
X155830952Y-94446197D02*
X155854762Y-94398578D01*
X155854762Y-94398578D02*
X155902381Y-94350959D01*
X155902381Y-94350959D02*
X155973809Y-94327149D01*
X155973809Y-94327149D02*
X156021428Y-94327149D01*
X156021428Y-94327149D02*
X156092857Y-94350959D01*
X156092857Y-94350959D02*
X156116666Y-94374768D01*
X156545238Y-94493816D02*
X156545238Y-94827149D01*
X156426190Y-94303340D02*
X156307143Y-94660482D01*
X156307143Y-94660482D02*
X156616666Y-94660482D01*
D10*
X159738331Y-87032039D02*
X159738331Y-87603467D01*
X159738331Y-87317753D02*
X158738331Y-87317753D01*
X158738331Y-87317753D02*
X158881188Y-87412991D01*
X158881188Y-87412991D02*
X158976426Y-87508229D01*
X158976426Y-87508229D02*
X159024045Y-87603467D01*
X158738331Y-86412991D02*
X158738331Y-86317753D01*
X158738331Y-86317753D02*
X158785950Y-86222515D01*
X158785950Y-86222515D02*
X158833569Y-86174896D01*
X158833569Y-86174896D02*
X158928807Y-86127277D01*
X158928807Y-86127277D02*
X159119283Y-86079658D01*
X159119283Y-86079658D02*
X159357378Y-86079658D01*
X159357378Y-86079658D02*
X159547854Y-86127277D01*
X159547854Y-86127277D02*
X159643092Y-86174896D01*
X159643092Y-86174896D02*
X159690712Y-86222515D01*
X159690712Y-86222515D02*
X159738331Y-86317753D01*
X159738331Y-86317753D02*
X159738331Y-86412991D01*
X159738331Y-86412991D02*
X159690712Y-86508229D01*
X159690712Y-86508229D02*
X159643092Y-86555848D01*
X159643092Y-86555848D02*
X159547854Y-86603467D01*
X159547854Y-86603467D02*
X159357378Y-86651086D01*
X159357378Y-86651086D02*
X159119283Y-86651086D01*
X159119283Y-86651086D02*
X158928807Y-86603467D01*
X158928807Y-86603467D02*
X158833569Y-86555848D01*
X158833569Y-86555848D02*
X158785950Y-86508229D01*
X158785950Y-86508229D02*
X158738331Y-86412991D01*
X158738331Y-85460610D02*
X158738331Y-85365372D01*
X158738331Y-85365372D02*
X158785950Y-85270134D01*
X158785950Y-85270134D02*
X158833569Y-85222515D01*
X158833569Y-85222515D02*
X158928807Y-85174896D01*
X158928807Y-85174896D02*
X159119283Y-85127277D01*
X159119283Y-85127277D02*
X159357378Y-85127277D01*
X159357378Y-85127277D02*
X159547854Y-85174896D01*
X159547854Y-85174896D02*
X159643092Y-85222515D01*
X159643092Y-85222515D02*
X159690712Y-85270134D01*
X159690712Y-85270134D02*
X159738331Y-85365372D01*
X159738331Y-85365372D02*
X159738331Y-85460610D01*
X159738331Y-85460610D02*
X159690712Y-85555848D01*
X159690712Y-85555848D02*
X159643092Y-85603467D01*
X159643092Y-85603467D02*
X159547854Y-85651086D01*
X159547854Y-85651086D02*
X159357378Y-85698705D01*
X159357378Y-85698705D02*
X159119283Y-85698705D01*
X159119283Y-85698705D02*
X158928807Y-85651086D01*
X158928807Y-85651086D02*
X158833569Y-85603467D01*
X158833569Y-85603467D02*
X158785950Y-85555848D01*
X158785950Y-85555848D02*
X158738331Y-85460610D01*
X159071664Y-84698705D02*
X159738331Y-84698705D01*
X159166902Y-84698705D02*
X159119283Y-84651086D01*
X159119283Y-84651086D02*
X159071664Y-84555848D01*
X159071664Y-84555848D02*
X159071664Y-84412991D01*
X159071664Y-84412991D02*
X159119283Y-84317753D01*
X159119283Y-84317753D02*
X159214521Y-84270134D01*
X159214521Y-84270134D02*
X159738331Y-84270134D01*
X159214521Y-83460610D02*
X159214521Y-83793943D01*
X159738331Y-83793943D02*
X158738331Y-83793943D01*
X158738331Y-83793943D02*
X158738331Y-83317753D01*
D11*
X161143042Y-85567753D02*
X161166852Y-85591562D01*
X161166852Y-85591562D02*
X161190661Y-85662991D01*
X161190661Y-85662991D02*
X161190661Y-85710610D01*
X161190661Y-85710610D02*
X161166852Y-85782038D01*
X161166852Y-85782038D02*
X161119232Y-85829657D01*
X161119232Y-85829657D02*
X161071613Y-85853467D01*
X161071613Y-85853467D02*
X160976375Y-85877276D01*
X160976375Y-85877276D02*
X160904947Y-85877276D01*
X160904947Y-85877276D02*
X160809709Y-85853467D01*
X160809709Y-85853467D02*
X160762090Y-85829657D01*
X160762090Y-85829657D02*
X160714471Y-85782038D01*
X160714471Y-85782038D02*
X160690661Y-85710610D01*
X160690661Y-85710610D02*
X160690661Y-85662991D01*
X160690661Y-85662991D02*
X160714471Y-85591562D01*
X160714471Y-85591562D02*
X160738280Y-85567753D01*
X160690661Y-85401086D02*
X160690661Y-85091562D01*
X160690661Y-85091562D02*
X160881137Y-85258229D01*
X160881137Y-85258229D02*
X160881137Y-85186800D01*
X160881137Y-85186800D02*
X160904947Y-85139181D01*
X160904947Y-85139181D02*
X160928756Y-85115372D01*
X160928756Y-85115372D02*
X160976375Y-85091562D01*
X160976375Y-85091562D02*
X161095423Y-85091562D01*
X161095423Y-85091562D02*
X161143042Y-85115372D01*
X161143042Y-85115372D02*
X161166852Y-85139181D01*
X161166852Y-85139181D02*
X161190661Y-85186800D01*
X161190661Y-85186800D02*
X161190661Y-85329657D01*
X161190661Y-85329657D02*
X161166852Y-85377276D01*
X161166852Y-85377276D02*
X161143042Y-85401086D01*
D10*
X151666666Y-77144819D02*
X151666666Y-77859104D01*
X151666666Y-77859104D02*
X151619047Y-78001961D01*
X151619047Y-78001961D02*
X151523809Y-78097200D01*
X151523809Y-78097200D02*
X151380952Y-78144819D01*
X151380952Y-78144819D02*
X151285714Y-78144819D01*
X152666666Y-78144819D02*
X152095238Y-78144819D01*
X152380952Y-78144819D02*
X152380952Y-77144819D01*
X152380952Y-77144819D02*
X152285714Y-77287676D01*
X152285714Y-77287676D02*
X152190476Y-77382914D01*
X152190476Y-77382914D02*
X152095238Y-77430533D01*
X146690475Y-101369580D02*
X146642856Y-101417200D01*
X146642856Y-101417200D02*
X146499999Y-101464819D01*
X146499999Y-101464819D02*
X146404761Y-101464819D01*
X146404761Y-101464819D02*
X146261904Y-101417200D01*
X146261904Y-101417200D02*
X146166666Y-101321961D01*
X146166666Y-101321961D02*
X146119047Y-101226723D01*
X146119047Y-101226723D02*
X146071428Y-101036247D01*
X146071428Y-101036247D02*
X146071428Y-100893390D01*
X146071428Y-100893390D02*
X146119047Y-100702914D01*
X146119047Y-100702914D02*
X146166666Y-100607676D01*
X146166666Y-100607676D02*
X146261904Y-100512438D01*
X146261904Y-100512438D02*
X146404761Y-100464819D01*
X146404761Y-100464819D02*
X146499999Y-100464819D01*
X146499999Y-100464819D02*
X146642856Y-100512438D01*
X146642856Y-100512438D02*
X146690475Y-100560057D01*
X147261904Y-101464819D02*
X147166666Y-101417200D01*
X147166666Y-101417200D02*
X147119047Y-101369580D01*
X147119047Y-101369580D02*
X147071428Y-101274342D01*
X147071428Y-101274342D02*
X147071428Y-100988628D01*
X147071428Y-100988628D02*
X147119047Y-100893390D01*
X147119047Y-100893390D02*
X147166666Y-100845771D01*
X147166666Y-100845771D02*
X147261904Y-100798152D01*
X147261904Y-100798152D02*
X147404761Y-100798152D01*
X147404761Y-100798152D02*
X147499999Y-100845771D01*
X147499999Y-100845771D02*
X147547618Y-100893390D01*
X147547618Y-100893390D02*
X147595237Y-100988628D01*
X147595237Y-100988628D02*
X147595237Y-101274342D01*
X147595237Y-101274342D02*
X147547618Y-101369580D01*
X147547618Y-101369580D02*
X147499999Y-101417200D01*
X147499999Y-101417200D02*
X147404761Y-101464819D01*
X147404761Y-101464819D02*
X147261904Y-101464819D01*
X148023809Y-100798152D02*
X148023809Y-101464819D01*
X148023809Y-100893390D02*
X148071428Y-100845771D01*
X148071428Y-100845771D02*
X148166666Y-100798152D01*
X148166666Y-100798152D02*
X148309523Y-100798152D01*
X148309523Y-100798152D02*
X148404761Y-100845771D01*
X148404761Y-100845771D02*
X148452380Y-100941009D01*
X148452380Y-100941009D02*
X148452380Y-101464819D01*
X148928571Y-100798152D02*
X148928571Y-101464819D01*
X148928571Y-100893390D02*
X148976190Y-100845771D01*
X148976190Y-100845771D02*
X149071428Y-100798152D01*
X149071428Y-100798152D02*
X149214285Y-100798152D01*
X149214285Y-100798152D02*
X149309523Y-100845771D01*
X149309523Y-100845771D02*
X149357142Y-100941009D01*
X149357142Y-100941009D02*
X149357142Y-101464819D01*
X149595238Y-101560057D02*
X150357142Y-101560057D01*
X150785714Y-100464819D02*
X150880952Y-100464819D01*
X150880952Y-100464819D02*
X150976190Y-100512438D01*
X150976190Y-100512438D02*
X151023809Y-100560057D01*
X151023809Y-100560057D02*
X151071428Y-100655295D01*
X151071428Y-100655295D02*
X151119047Y-100845771D01*
X151119047Y-100845771D02*
X151119047Y-101083866D01*
X151119047Y-101083866D02*
X151071428Y-101274342D01*
X151071428Y-101274342D02*
X151023809Y-101369580D01*
X151023809Y-101369580D02*
X150976190Y-101417200D01*
X150976190Y-101417200D02*
X150880952Y-101464819D01*
X150880952Y-101464819D02*
X150785714Y-101464819D01*
X150785714Y-101464819D02*
X150690476Y-101417200D01*
X150690476Y-101417200D02*
X150642857Y-101369580D01*
X150642857Y-101369580D02*
X150595238Y-101274342D01*
X150595238Y-101274342D02*
X150547619Y-101083866D01*
X150547619Y-101083866D02*
X150547619Y-100845771D01*
X150547619Y-100845771D02*
X150595238Y-100655295D01*
X150595238Y-100655295D02*
X150642857Y-100560057D01*
X150642857Y-100560057D02*
X150690476Y-100512438D01*
X150690476Y-100512438D02*
X150785714Y-100464819D01*
X152071428Y-101464819D02*
X151500000Y-101464819D01*
X151785714Y-101464819D02*
X151785714Y-100464819D01*
X151785714Y-100464819D02*
X151690476Y-100607676D01*
X151690476Y-100607676D02*
X151595238Y-100702914D01*
X151595238Y-100702914D02*
X151500000Y-100750533D01*
X152404762Y-101464819D02*
X152928571Y-100798152D01*
X152404762Y-100798152D02*
X152928571Y-101464819D01*
X153500000Y-100464819D02*
X153595238Y-100464819D01*
X153595238Y-100464819D02*
X153690476Y-100512438D01*
X153690476Y-100512438D02*
X153738095Y-100560057D01*
X153738095Y-100560057D02*
X153785714Y-100655295D01*
X153785714Y-100655295D02*
X153833333Y-100845771D01*
X153833333Y-100845771D02*
X153833333Y-101083866D01*
X153833333Y-101083866D02*
X153785714Y-101274342D01*
X153785714Y-101274342D02*
X153738095Y-101369580D01*
X153738095Y-101369580D02*
X153690476Y-101417200D01*
X153690476Y-101417200D02*
X153595238Y-101464819D01*
X153595238Y-101464819D02*
X153500000Y-101464819D01*
X153500000Y-101464819D02*
X153404762Y-101417200D01*
X153404762Y-101417200D02*
X153357143Y-101369580D01*
X153357143Y-101369580D02*
X153309524Y-101274342D01*
X153309524Y-101274342D02*
X153261905Y-101083866D01*
X153261905Y-101083866D02*
X153261905Y-100845771D01*
X153261905Y-100845771D02*
X153309524Y-100655295D01*
X153309524Y-100655295D02*
X153357143Y-100560057D01*
X153357143Y-100560057D02*
X153404762Y-100512438D01*
X153404762Y-100512438D02*
X153500000Y-100464819D01*
X154404762Y-100893390D02*
X154309524Y-100845771D01*
X154309524Y-100845771D02*
X154261905Y-100798152D01*
X154261905Y-100798152D02*
X154214286Y-100702914D01*
X154214286Y-100702914D02*
X154214286Y-100655295D01*
X154214286Y-100655295D02*
X154261905Y-100560057D01*
X154261905Y-100560057D02*
X154309524Y-100512438D01*
X154309524Y-100512438D02*
X154404762Y-100464819D01*
X154404762Y-100464819D02*
X154595238Y-100464819D01*
X154595238Y-100464819D02*
X154690476Y-100512438D01*
X154690476Y-100512438D02*
X154738095Y-100560057D01*
X154738095Y-100560057D02*
X154785714Y-100655295D01*
X154785714Y-100655295D02*
X154785714Y-100702914D01*
X154785714Y-100702914D02*
X154738095Y-100798152D01*
X154738095Y-100798152D02*
X154690476Y-100845771D01*
X154690476Y-100845771D02*
X154595238Y-100893390D01*
X154595238Y-100893390D02*
X154404762Y-100893390D01*
X154404762Y-100893390D02*
X154309524Y-100941009D01*
X154309524Y-100941009D02*
X154261905Y-100988628D01*
X154261905Y-100988628D02*
X154214286Y-101083866D01*
X154214286Y-101083866D02*
X154214286Y-101274342D01*
X154214286Y-101274342D02*
X154261905Y-101369580D01*
X154261905Y-101369580D02*
X154309524Y-101417200D01*
X154309524Y-101417200D02*
X154404762Y-101464819D01*
X154404762Y-101464819D02*
X154595238Y-101464819D01*
X154595238Y-101464819D02*
X154690476Y-101417200D01*
X154690476Y-101417200D02*
X154738095Y-101369580D01*
X154738095Y-101369580D02*
X154785714Y-101274342D01*
X154785714Y-101274342D02*
X154785714Y-101083866D01*
X154785714Y-101083866D02*
X154738095Y-100988628D01*
X154738095Y-100988628D02*
X154690476Y-100941009D01*
X154690476Y-100941009D02*
X154595238Y-100893390D01*
X154976191Y-101560057D02*
X155738095Y-101560057D01*
X155976191Y-101464819D02*
X155976191Y-100464819D01*
X155976191Y-100464819D02*
X156357143Y-100464819D01*
X156357143Y-100464819D02*
X156452381Y-100512438D01*
X156452381Y-100512438D02*
X156500000Y-100560057D01*
X156500000Y-100560057D02*
X156547619Y-100655295D01*
X156547619Y-100655295D02*
X156547619Y-100798152D01*
X156547619Y-100798152D02*
X156500000Y-100893390D01*
X156500000Y-100893390D02*
X156452381Y-100941009D01*
X156452381Y-100941009D02*
X156357143Y-100988628D01*
X156357143Y-100988628D02*
X155976191Y-100988628D01*
X156976191Y-101464819D02*
X156976191Y-100798152D01*
X156976191Y-100464819D02*
X156928572Y-100512438D01*
X156928572Y-100512438D02*
X156976191Y-100560057D01*
X156976191Y-100560057D02*
X157023810Y-100512438D01*
X157023810Y-100512438D02*
X156976191Y-100464819D01*
X156976191Y-100464819D02*
X156976191Y-100560057D01*
X157452381Y-100798152D02*
X157452381Y-101464819D01*
X157452381Y-100893390D02*
X157500000Y-100845771D01*
X157500000Y-100845771D02*
X157595238Y-100798152D01*
X157595238Y-100798152D02*
X157738095Y-100798152D01*
X157738095Y-100798152D02*
X157833333Y-100845771D01*
X157833333Y-100845771D02*
X157880952Y-100941009D01*
X157880952Y-100941009D02*
X157880952Y-101464819D01*
X141619045Y-80867200D02*
X141523807Y-80914819D01*
X141523807Y-80914819D02*
X141333331Y-80914819D01*
X141333331Y-80914819D02*
X141238093Y-80867200D01*
X141238093Y-80867200D02*
X141190474Y-80819580D01*
X141190474Y-80819580D02*
X141142855Y-80724342D01*
X141142855Y-80724342D02*
X141142855Y-80438628D01*
X141142855Y-80438628D02*
X141190474Y-80343390D01*
X141190474Y-80343390D02*
X141238093Y-80295771D01*
X141238093Y-80295771D02*
X141333331Y-80248152D01*
X141333331Y-80248152D02*
X141523807Y-80248152D01*
X141523807Y-80248152D02*
X141619045Y-80295771D01*
X142190474Y-80914819D02*
X142095236Y-80867200D01*
X142095236Y-80867200D02*
X142047617Y-80819580D01*
X142047617Y-80819580D02*
X141999998Y-80724342D01*
X141999998Y-80724342D02*
X141999998Y-80438628D01*
X141999998Y-80438628D02*
X142047617Y-80343390D01*
X142047617Y-80343390D02*
X142095236Y-80295771D01*
X142095236Y-80295771D02*
X142190474Y-80248152D01*
X142190474Y-80248152D02*
X142333331Y-80248152D01*
X142333331Y-80248152D02*
X142428569Y-80295771D01*
X142428569Y-80295771D02*
X142476188Y-80343390D01*
X142476188Y-80343390D02*
X142523807Y-80438628D01*
X142523807Y-80438628D02*
X142523807Y-80724342D01*
X142523807Y-80724342D02*
X142476188Y-80819580D01*
X142476188Y-80819580D02*
X142428569Y-80867200D01*
X142428569Y-80867200D02*
X142333331Y-80914819D01*
X142333331Y-80914819D02*
X142190474Y-80914819D01*
X142952379Y-80248152D02*
X142952379Y-80914819D01*
X142952379Y-80343390D02*
X142999998Y-80295771D01*
X142999998Y-80295771D02*
X143095236Y-80248152D01*
X143095236Y-80248152D02*
X143238093Y-80248152D01*
X143238093Y-80248152D02*
X143333331Y-80295771D01*
X143333331Y-80295771D02*
X143380950Y-80391009D01*
X143380950Y-80391009D02*
X143380950Y-80914819D01*
X143857141Y-80248152D02*
X143857141Y-80914819D01*
X143857141Y-80343390D02*
X143904760Y-80295771D01*
X143904760Y-80295771D02*
X143999998Y-80248152D01*
X143999998Y-80248152D02*
X144142855Y-80248152D01*
X144142855Y-80248152D02*
X144238093Y-80295771D01*
X144238093Y-80295771D02*
X144285712Y-80391009D01*
X144285712Y-80391009D02*
X144285712Y-80914819D01*
X145142855Y-80867200D02*
X145047617Y-80914819D01*
X145047617Y-80914819D02*
X144857141Y-80914819D01*
X144857141Y-80914819D02*
X144761903Y-80867200D01*
X144761903Y-80867200D02*
X144714284Y-80771961D01*
X144714284Y-80771961D02*
X144714284Y-80391009D01*
X144714284Y-80391009D02*
X144761903Y-80295771D01*
X144761903Y-80295771D02*
X144857141Y-80248152D01*
X144857141Y-80248152D02*
X145047617Y-80248152D01*
X145047617Y-80248152D02*
X145142855Y-80295771D01*
X145142855Y-80295771D02*
X145190474Y-80391009D01*
X145190474Y-80391009D02*
X145190474Y-80486247D01*
X145190474Y-80486247D02*
X144714284Y-80581485D01*
X146047617Y-80867200D02*
X145952379Y-80914819D01*
X145952379Y-80914819D02*
X145761903Y-80914819D01*
X145761903Y-80914819D02*
X145666665Y-80867200D01*
X145666665Y-80867200D02*
X145619046Y-80819580D01*
X145619046Y-80819580D02*
X145571427Y-80724342D01*
X145571427Y-80724342D02*
X145571427Y-80438628D01*
X145571427Y-80438628D02*
X145619046Y-80343390D01*
X145619046Y-80343390D02*
X145666665Y-80295771D01*
X145666665Y-80295771D02*
X145761903Y-80248152D01*
X145761903Y-80248152D02*
X145952379Y-80248152D01*
X145952379Y-80248152D02*
X146047617Y-80295771D01*
X146333332Y-80248152D02*
X146714284Y-80248152D01*
X146476189Y-79914819D02*
X146476189Y-80771961D01*
X146476189Y-80771961D02*
X146523808Y-80867200D01*
X146523808Y-80867200D02*
X146619046Y-80914819D01*
X146619046Y-80914819D02*
X146714284Y-80914819D01*
X147190475Y-80914819D02*
X147095237Y-80867200D01*
X147095237Y-80867200D02*
X147047618Y-80819580D01*
X147047618Y-80819580D02*
X146999999Y-80724342D01*
X146999999Y-80724342D02*
X146999999Y-80438628D01*
X146999999Y-80438628D02*
X147047618Y-80343390D01*
X147047618Y-80343390D02*
X147095237Y-80295771D01*
X147095237Y-80295771D02*
X147190475Y-80248152D01*
X147190475Y-80248152D02*
X147333332Y-80248152D01*
X147333332Y-80248152D02*
X147428570Y-80295771D01*
X147428570Y-80295771D02*
X147476189Y-80343390D01*
X147476189Y-80343390D02*
X147523808Y-80438628D01*
X147523808Y-80438628D02*
X147523808Y-80724342D01*
X147523808Y-80724342D02*
X147476189Y-80819580D01*
X147476189Y-80819580D02*
X147428570Y-80867200D01*
X147428570Y-80867200D02*
X147333332Y-80914819D01*
X147333332Y-80914819D02*
X147190475Y-80914819D01*
X147952380Y-80914819D02*
X147952380Y-80248152D01*
X147952380Y-80438628D02*
X147999999Y-80343390D01*
X147999999Y-80343390D02*
X148047618Y-80295771D01*
X148047618Y-80295771D02*
X148142856Y-80248152D01*
X148142856Y-80248152D02*
X148238094Y-80248152D01*
X149285713Y-79867200D02*
X148428571Y-81152914D01*
X149619047Y-80248152D02*
X149619047Y-81248152D01*
X149619047Y-80295771D02*
X149714285Y-80248152D01*
X149714285Y-80248152D02*
X149904761Y-80248152D01*
X149904761Y-80248152D02*
X149999999Y-80295771D01*
X149999999Y-80295771D02*
X150047618Y-80343390D01*
X150047618Y-80343390D02*
X150095237Y-80438628D01*
X150095237Y-80438628D02*
X150095237Y-80724342D01*
X150095237Y-80724342D02*
X150047618Y-80819580D01*
X150047618Y-80819580D02*
X149999999Y-80867200D01*
X149999999Y-80867200D02*
X149904761Y-80914819D01*
X149904761Y-80914819D02*
X149714285Y-80914819D01*
X149714285Y-80914819D02*
X149619047Y-80867200D01*
X150523809Y-80914819D02*
X150523809Y-80248152D01*
X150523809Y-79914819D02*
X150476190Y-79962438D01*
X150476190Y-79962438D02*
X150523809Y-80010057D01*
X150523809Y-80010057D02*
X150571428Y-79962438D01*
X150571428Y-79962438D02*
X150523809Y-79914819D01*
X150523809Y-79914819D02*
X150523809Y-80010057D01*
X150999999Y-80248152D02*
X150999999Y-80914819D01*
X150999999Y-80343390D02*
X151047618Y-80295771D01*
X151047618Y-80295771D02*
X151142856Y-80248152D01*
X151142856Y-80248152D02*
X151285713Y-80248152D01*
X151285713Y-80248152D02*
X151380951Y-80295771D01*
X151380951Y-80295771D02*
X151428570Y-80391009D01*
X151428570Y-80391009D02*
X151428570Y-80914819D01*
X151666666Y-81010057D02*
X152428570Y-81010057D01*
X152666666Y-80914819D02*
X152666666Y-79914819D01*
X153095237Y-80914819D02*
X153095237Y-80391009D01*
X153095237Y-80391009D02*
X153047618Y-80295771D01*
X153047618Y-80295771D02*
X152952380Y-80248152D01*
X152952380Y-80248152D02*
X152809523Y-80248152D01*
X152809523Y-80248152D02*
X152714285Y-80295771D01*
X152714285Y-80295771D02*
X152666666Y-80343390D01*
X153952380Y-80867200D02*
X153857142Y-80914819D01*
X153857142Y-80914819D02*
X153666666Y-80914819D01*
X153666666Y-80914819D02*
X153571428Y-80867200D01*
X153571428Y-80867200D02*
X153523809Y-80771961D01*
X153523809Y-80771961D02*
X153523809Y-80391009D01*
X153523809Y-80391009D02*
X153571428Y-80295771D01*
X153571428Y-80295771D02*
X153666666Y-80248152D01*
X153666666Y-80248152D02*
X153857142Y-80248152D01*
X153857142Y-80248152D02*
X153952380Y-80295771D01*
X153952380Y-80295771D02*
X153999999Y-80391009D01*
X153999999Y-80391009D02*
X153999999Y-80486247D01*
X153999999Y-80486247D02*
X153523809Y-80581485D01*
X154857142Y-80914819D02*
X154857142Y-80391009D01*
X154857142Y-80391009D02*
X154809523Y-80295771D01*
X154809523Y-80295771D02*
X154714285Y-80248152D01*
X154714285Y-80248152D02*
X154523809Y-80248152D01*
X154523809Y-80248152D02*
X154428571Y-80295771D01*
X154857142Y-80867200D02*
X154761904Y-80914819D01*
X154761904Y-80914819D02*
X154523809Y-80914819D01*
X154523809Y-80914819D02*
X154428571Y-80867200D01*
X154428571Y-80867200D02*
X154380952Y-80771961D01*
X154380952Y-80771961D02*
X154380952Y-80676723D01*
X154380952Y-80676723D02*
X154428571Y-80581485D01*
X154428571Y-80581485D02*
X154523809Y-80533866D01*
X154523809Y-80533866D02*
X154761904Y-80533866D01*
X154761904Y-80533866D02*
X154857142Y-80486247D01*
X155761904Y-80914819D02*
X155761904Y-79914819D01*
X155761904Y-80867200D02*
X155666666Y-80914819D01*
X155666666Y-80914819D02*
X155476190Y-80914819D01*
X155476190Y-80914819D02*
X155380952Y-80867200D01*
X155380952Y-80867200D02*
X155333333Y-80819580D01*
X155333333Y-80819580D02*
X155285714Y-80724342D01*
X155285714Y-80724342D02*
X155285714Y-80438628D01*
X155285714Y-80438628D02*
X155333333Y-80343390D01*
X155333333Y-80343390D02*
X155380952Y-80295771D01*
X155380952Y-80295771D02*
X155476190Y-80248152D01*
X155476190Y-80248152D02*
X155666666Y-80248152D01*
X155666666Y-80248152D02*
X155761904Y-80295771D01*
X156619047Y-80867200D02*
X156523809Y-80914819D01*
X156523809Y-80914819D02*
X156333333Y-80914819D01*
X156333333Y-80914819D02*
X156238095Y-80867200D01*
X156238095Y-80867200D02*
X156190476Y-80771961D01*
X156190476Y-80771961D02*
X156190476Y-80391009D01*
X156190476Y-80391009D02*
X156238095Y-80295771D01*
X156238095Y-80295771D02*
X156333333Y-80248152D01*
X156333333Y-80248152D02*
X156523809Y-80248152D01*
X156523809Y-80248152D02*
X156619047Y-80295771D01*
X156619047Y-80295771D02*
X156666666Y-80391009D01*
X156666666Y-80391009D02*
X156666666Y-80486247D01*
X156666666Y-80486247D02*
X156190476Y-80581485D01*
X157095238Y-80914819D02*
X157095238Y-80248152D01*
X157095238Y-80438628D02*
X157142857Y-80343390D01*
X157142857Y-80343390D02*
X157190476Y-80295771D01*
X157190476Y-80295771D02*
X157285714Y-80248152D01*
X157285714Y-80248152D02*
X157380952Y-80248152D01*
X157476191Y-81010057D02*
X158238095Y-81010057D01*
X158428572Y-80867200D02*
X158523810Y-80914819D01*
X158523810Y-80914819D02*
X158714286Y-80914819D01*
X158714286Y-80914819D02*
X158809524Y-80867200D01*
X158809524Y-80867200D02*
X158857143Y-80771961D01*
X158857143Y-80771961D02*
X158857143Y-80724342D01*
X158857143Y-80724342D02*
X158809524Y-80629104D01*
X158809524Y-80629104D02*
X158714286Y-80581485D01*
X158714286Y-80581485D02*
X158571429Y-80581485D01*
X158571429Y-80581485D02*
X158476191Y-80533866D01*
X158476191Y-80533866D02*
X158428572Y-80438628D01*
X158428572Y-80438628D02*
X158428572Y-80391009D01*
X158428572Y-80391009D02*
X158476191Y-80295771D01*
X158476191Y-80295771D02*
X158571429Y-80248152D01*
X158571429Y-80248152D02*
X158714286Y-80248152D01*
X158714286Y-80248152D02*
X158809524Y-80295771D01*
X159428572Y-80914819D02*
X159333334Y-80867200D01*
X159333334Y-80867200D02*
X159285715Y-80819580D01*
X159285715Y-80819580D02*
X159238096Y-80724342D01*
X159238096Y-80724342D02*
X159238096Y-80438628D01*
X159238096Y-80438628D02*
X159285715Y-80343390D01*
X159285715Y-80343390D02*
X159333334Y-80295771D01*
X159333334Y-80295771D02*
X159428572Y-80248152D01*
X159428572Y-80248152D02*
X159571429Y-80248152D01*
X159571429Y-80248152D02*
X159666667Y-80295771D01*
X159666667Y-80295771D02*
X159714286Y-80343390D01*
X159714286Y-80343390D02*
X159761905Y-80438628D01*
X159761905Y-80438628D02*
X159761905Y-80724342D01*
X159761905Y-80724342D02*
X159714286Y-80819580D01*
X159714286Y-80819580D02*
X159666667Y-80867200D01*
X159666667Y-80867200D02*
X159571429Y-80914819D01*
X159571429Y-80914819D02*
X159428572Y-80914819D01*
X160619048Y-80867200D02*
X160523810Y-80914819D01*
X160523810Y-80914819D02*
X160333334Y-80914819D01*
X160333334Y-80914819D02*
X160238096Y-80867200D01*
X160238096Y-80867200D02*
X160190477Y-80819580D01*
X160190477Y-80819580D02*
X160142858Y-80724342D01*
X160142858Y-80724342D02*
X160142858Y-80438628D01*
X160142858Y-80438628D02*
X160190477Y-80343390D01*
X160190477Y-80343390D02*
X160238096Y-80295771D01*
X160238096Y-80295771D02*
X160333334Y-80248152D01*
X160333334Y-80248152D02*
X160523810Y-80248152D01*
X160523810Y-80248152D02*
X160619048Y-80295771D01*
X161047620Y-80914819D02*
X161047620Y-79914819D01*
X161142858Y-80533866D02*
X161428572Y-80914819D01*
X161428572Y-80248152D02*
X161047620Y-80629104D01*
X162238096Y-80867200D02*
X162142858Y-80914819D01*
X162142858Y-80914819D02*
X161952382Y-80914819D01*
X161952382Y-80914819D02*
X161857144Y-80867200D01*
X161857144Y-80867200D02*
X161809525Y-80771961D01*
X161809525Y-80771961D02*
X161809525Y-80391009D01*
X161809525Y-80391009D02*
X161857144Y-80295771D01*
X161857144Y-80295771D02*
X161952382Y-80248152D01*
X161952382Y-80248152D02*
X162142858Y-80248152D01*
X162142858Y-80248152D02*
X162238096Y-80295771D01*
X162238096Y-80295771D02*
X162285715Y-80391009D01*
X162285715Y-80391009D02*
X162285715Y-80486247D01*
X162285715Y-80486247D02*
X161809525Y-80581485D01*
X162571430Y-80248152D02*
X162952382Y-80248152D01*
X162714287Y-79914819D02*
X162714287Y-80771961D01*
X162714287Y-80771961D02*
X162761906Y-80867200D01*
X162761906Y-80867200D02*
X162857144Y-80914819D01*
X162857144Y-80914819D02*
X162952382Y-80914819D01*
X151454819Y-89683333D02*
X152169104Y-89683333D01*
X152169104Y-89683333D02*
X152311961Y-89730952D01*
X152311961Y-89730952D02*
X152407200Y-89826190D01*
X152407200Y-89826190D02*
X152454819Y-89969047D01*
X152454819Y-89969047D02*
X152454819Y-90064285D01*
X152454819Y-88683333D02*
X152454819Y-89254761D01*
X152454819Y-88969047D02*
X151454819Y-88969047D01*
X151454819Y-88969047D02*
X151597676Y-89064285D01*
X151597676Y-89064285D02*
X151692914Y-89159523D01*
X151692914Y-89159523D02*
X151740533Y-89254761D01*
X172334819Y-93347619D02*
X172334819Y-93919047D01*
X172334819Y-93633333D02*
X171334819Y-93633333D01*
X171334819Y-93633333D02*
X171477676Y-93728571D01*
X171477676Y-93728571D02*
X171572914Y-93823809D01*
X171572914Y-93823809D02*
X171620533Y-93919047D01*
X171334819Y-92728571D02*
X171334819Y-92633333D01*
X171334819Y-92633333D02*
X171382438Y-92538095D01*
X171382438Y-92538095D02*
X171430057Y-92490476D01*
X171430057Y-92490476D02*
X171525295Y-92442857D01*
X171525295Y-92442857D02*
X171715771Y-92395238D01*
X171715771Y-92395238D02*
X171953866Y-92395238D01*
X171953866Y-92395238D02*
X172144342Y-92442857D01*
X172144342Y-92442857D02*
X172239580Y-92490476D01*
X172239580Y-92490476D02*
X172287200Y-92538095D01*
X172287200Y-92538095D02*
X172334819Y-92633333D01*
X172334819Y-92633333D02*
X172334819Y-92728571D01*
X172334819Y-92728571D02*
X172287200Y-92823809D01*
X172287200Y-92823809D02*
X172239580Y-92871428D01*
X172239580Y-92871428D02*
X172144342Y-92919047D01*
X172144342Y-92919047D02*
X171953866Y-92966666D01*
X171953866Y-92966666D02*
X171715771Y-92966666D01*
X171715771Y-92966666D02*
X171525295Y-92919047D01*
X171525295Y-92919047D02*
X171430057Y-92871428D01*
X171430057Y-92871428D02*
X171382438Y-92823809D01*
X171382438Y-92823809D02*
X171334819Y-92728571D01*
X171334819Y-91776190D02*
X171334819Y-91680952D01*
X171334819Y-91680952D02*
X171382438Y-91585714D01*
X171382438Y-91585714D02*
X171430057Y-91538095D01*
X171430057Y-91538095D02*
X171525295Y-91490476D01*
X171525295Y-91490476D02*
X171715771Y-91442857D01*
X171715771Y-91442857D02*
X171953866Y-91442857D01*
X171953866Y-91442857D02*
X172144342Y-91490476D01*
X172144342Y-91490476D02*
X172239580Y-91538095D01*
X172239580Y-91538095D02*
X172287200Y-91585714D01*
X172287200Y-91585714D02*
X172334819Y-91680952D01*
X172334819Y-91680952D02*
X172334819Y-91776190D01*
X172334819Y-91776190D02*
X172287200Y-91871428D01*
X172287200Y-91871428D02*
X172239580Y-91919047D01*
X172239580Y-91919047D02*
X172144342Y-91966666D01*
X172144342Y-91966666D02*
X171953866Y-92014285D01*
X171953866Y-92014285D02*
X171715771Y-92014285D01*
X171715771Y-92014285D02*
X171525295Y-91966666D01*
X171525295Y-91966666D02*
X171430057Y-91919047D01*
X171430057Y-91919047D02*
X171382438Y-91871428D01*
X171382438Y-91871428D02*
X171334819Y-91776190D01*
X171668152Y-91014285D02*
X172334819Y-91014285D01*
X171763390Y-91014285D02*
X171715771Y-90966666D01*
X171715771Y-90966666D02*
X171668152Y-90871428D01*
X171668152Y-90871428D02*
X171668152Y-90728571D01*
X171668152Y-90728571D02*
X171715771Y-90633333D01*
X171715771Y-90633333D02*
X171811009Y-90585714D01*
X171811009Y-90585714D02*
X172334819Y-90585714D01*
X171811009Y-89776190D02*
X171811009Y-90109523D01*
X172334819Y-90109523D02*
X171334819Y-90109523D01*
X171334819Y-90109523D02*
X171334819Y-89633333D01*
D11*
X170379530Y-91883333D02*
X170403340Y-91907142D01*
X170403340Y-91907142D02*
X170427149Y-91978571D01*
X170427149Y-91978571D02*
X170427149Y-92026190D01*
X170427149Y-92026190D02*
X170403340Y-92097618D01*
X170403340Y-92097618D02*
X170355720Y-92145237D01*
X170355720Y-92145237D02*
X170308101Y-92169047D01*
X170308101Y-92169047D02*
X170212863Y-92192856D01*
X170212863Y-92192856D02*
X170141435Y-92192856D01*
X170141435Y-92192856D02*
X170046197Y-92169047D01*
X170046197Y-92169047D02*
X169998578Y-92145237D01*
X169998578Y-92145237D02*
X169950959Y-92097618D01*
X169950959Y-92097618D02*
X169927149Y-92026190D01*
X169927149Y-92026190D02*
X169927149Y-91978571D01*
X169927149Y-91978571D02*
X169950959Y-91907142D01*
X169950959Y-91907142D02*
X169974768Y-91883333D01*
X169927149Y-91454761D02*
X169927149Y-91549999D01*
X169927149Y-91549999D02*
X169950959Y-91597618D01*
X169950959Y-91597618D02*
X169974768Y-91621428D01*
X169974768Y-91621428D02*
X170046197Y-91669047D01*
X170046197Y-91669047D02*
X170141435Y-91692856D01*
X170141435Y-91692856D02*
X170331911Y-91692856D01*
X170331911Y-91692856D02*
X170379530Y-91669047D01*
X170379530Y-91669047D02*
X170403340Y-91645237D01*
X170403340Y-91645237D02*
X170427149Y-91597618D01*
X170427149Y-91597618D02*
X170427149Y-91502380D01*
X170427149Y-91502380D02*
X170403340Y-91454761D01*
X170403340Y-91454761D02*
X170379530Y-91430952D01*
X170379530Y-91430952D02*
X170331911Y-91407142D01*
X170331911Y-91407142D02*
X170212863Y-91407142D01*
X170212863Y-91407142D02*
X170165244Y-91430952D01*
X170165244Y-91430952D02*
X170141435Y-91454761D01*
X170141435Y-91454761D02*
X170117625Y-91502380D01*
X170117625Y-91502380D02*
X170117625Y-91597618D01*
X170117625Y-91597618D02*
X170141435Y-91645237D01*
X170141435Y-91645237D02*
X170165244Y-91669047D01*
X170165244Y-91669047D02*
X170212863Y-91692856D01*
D10*
X155304761Y-77074819D02*
X154733333Y-77074819D01*
X155019047Y-77074819D02*
X155019047Y-76074819D01*
X155019047Y-76074819D02*
X154923809Y-76217676D01*
X154923809Y-76217676D02*
X154828571Y-76312914D01*
X154828571Y-76312914D02*
X154733333Y-76360533D01*
X156161904Y-76408152D02*
X156161904Y-77074819D01*
X155733333Y-76408152D02*
X155733333Y-76931961D01*
X155733333Y-76931961D02*
X155780952Y-77027200D01*
X155780952Y-77027200D02*
X155876190Y-77074819D01*
X155876190Y-77074819D02*
X156019047Y-77074819D01*
X156019047Y-77074819D02*
X156114285Y-77027200D01*
X156114285Y-77027200D02*
X156161904Y-76979580D01*
X156971428Y-76551009D02*
X156638095Y-76551009D01*
X156638095Y-77074819D02*
X156638095Y-76074819D01*
X156638095Y-76074819D02*
X157114285Y-76074819D01*
D11*
X155816666Y-78479530D02*
X155792857Y-78503340D01*
X155792857Y-78503340D02*
X155721428Y-78527149D01*
X155721428Y-78527149D02*
X155673809Y-78527149D01*
X155673809Y-78527149D02*
X155602381Y-78503340D01*
X155602381Y-78503340D02*
X155554762Y-78455720D01*
X155554762Y-78455720D02*
X155530952Y-78408101D01*
X155530952Y-78408101D02*
X155507143Y-78312863D01*
X155507143Y-78312863D02*
X155507143Y-78241435D01*
X155507143Y-78241435D02*
X155530952Y-78146197D01*
X155530952Y-78146197D02*
X155554762Y-78098578D01*
X155554762Y-78098578D02*
X155602381Y-78050959D01*
X155602381Y-78050959D02*
X155673809Y-78027149D01*
X155673809Y-78027149D02*
X155721428Y-78027149D01*
X155721428Y-78027149D02*
X155792857Y-78050959D01*
X155792857Y-78050959D02*
X155816666Y-78074768D01*
X156292857Y-78527149D02*
X156007143Y-78527149D01*
X156150000Y-78527149D02*
X156150000Y-78027149D01*
X156150000Y-78027149D02*
X156102381Y-78098578D01*
X156102381Y-78098578D02*
X156054762Y-78146197D01*
X156054762Y-78146197D02*
X156007143Y-78170006D01*
D10*
X165904819Y-86095238D02*
X165904819Y-86666666D01*
X165904819Y-86380952D02*
X164904819Y-86380952D01*
X164904819Y-86380952D02*
X165047676Y-86476190D01*
X165047676Y-86476190D02*
X165142914Y-86571428D01*
X165142914Y-86571428D02*
X165190533Y-86666666D01*
X164904819Y-85476190D02*
X164904819Y-85380952D01*
X164904819Y-85380952D02*
X164952438Y-85285714D01*
X164952438Y-85285714D02*
X165000057Y-85238095D01*
X165000057Y-85238095D02*
X165095295Y-85190476D01*
X165095295Y-85190476D02*
X165285771Y-85142857D01*
X165285771Y-85142857D02*
X165523866Y-85142857D01*
X165523866Y-85142857D02*
X165714342Y-85190476D01*
X165714342Y-85190476D02*
X165809580Y-85238095D01*
X165809580Y-85238095D02*
X165857200Y-85285714D01*
X165857200Y-85285714D02*
X165904819Y-85380952D01*
X165904819Y-85380952D02*
X165904819Y-85476190D01*
X165904819Y-85476190D02*
X165857200Y-85571428D01*
X165857200Y-85571428D02*
X165809580Y-85619047D01*
X165809580Y-85619047D02*
X165714342Y-85666666D01*
X165714342Y-85666666D02*
X165523866Y-85714285D01*
X165523866Y-85714285D02*
X165285771Y-85714285D01*
X165285771Y-85714285D02*
X165095295Y-85666666D01*
X165095295Y-85666666D02*
X165000057Y-85619047D01*
X165000057Y-85619047D02*
X164952438Y-85571428D01*
X164952438Y-85571428D02*
X164904819Y-85476190D01*
X165904819Y-84714285D02*
X164904819Y-84714285D01*
X165523866Y-84619047D02*
X165904819Y-84333333D01*
X165238152Y-84333333D02*
X165619104Y-84714285D01*
D11*
X167327149Y-85583333D02*
X167089054Y-85749999D01*
X167327149Y-85869047D02*
X166827149Y-85869047D01*
X166827149Y-85869047D02*
X166827149Y-85678571D01*
X166827149Y-85678571D02*
X166850959Y-85630952D01*
X166850959Y-85630952D02*
X166874768Y-85607142D01*
X166874768Y-85607142D02*
X166922387Y-85583333D01*
X166922387Y-85583333D02*
X166993816Y-85583333D01*
X166993816Y-85583333D02*
X167041435Y-85607142D01*
X167041435Y-85607142D02*
X167065244Y-85630952D01*
X167065244Y-85630952D02*
X167089054Y-85678571D01*
X167089054Y-85678571D02*
X167089054Y-85869047D01*
X166993816Y-85154761D02*
X167327149Y-85154761D01*
X166803340Y-85273809D02*
X167160482Y-85392856D01*
X167160482Y-85392856D02*
X167160482Y-85083333D01*
D10*
X159238095Y-78054819D02*
X159238095Y-78864342D01*
X159238095Y-78864342D02*
X159285714Y-78959580D01*
X159285714Y-78959580D02*
X159333333Y-79007200D01*
X159333333Y-79007200D02*
X159428571Y-79054819D01*
X159428571Y-79054819D02*
X159619047Y-79054819D01*
X159619047Y-79054819D02*
X159714285Y-79007200D01*
X159714285Y-79007200D02*
X159761904Y-78959580D01*
X159761904Y-78959580D02*
X159809523Y-78864342D01*
X159809523Y-78864342D02*
X159809523Y-78054819D01*
X160190476Y-78054819D02*
X160809523Y-78054819D01*
X160809523Y-78054819D02*
X160476190Y-78435771D01*
X160476190Y-78435771D02*
X160619047Y-78435771D01*
X160619047Y-78435771D02*
X160714285Y-78483390D01*
X160714285Y-78483390D02*
X160761904Y-78531009D01*
X160761904Y-78531009D02*
X160809523Y-78626247D01*
X160809523Y-78626247D02*
X160809523Y-78864342D01*
X160809523Y-78864342D02*
X160761904Y-78959580D01*
X160761904Y-78959580D02*
X160714285Y-79007200D01*
X160714285Y-79007200D02*
X160619047Y-79054819D01*
X160619047Y-79054819D02*
X160333333Y-79054819D01*
X160333333Y-79054819D02*
X160238095Y-79007200D01*
X160238095Y-79007200D02*
X160190476Y-78959580D01*
X155047619Y-83569104D02*
X155523809Y-83569104D01*
X154952381Y-83854819D02*
X155285714Y-82854819D01*
X155285714Y-82854819D02*
X155619047Y-83854819D01*
X155952381Y-83854819D02*
X155952381Y-82854819D01*
X155952381Y-82854819D02*
X156333333Y-82854819D01*
X156333333Y-82854819D02*
X156428571Y-82902438D01*
X156428571Y-82902438D02*
X156476190Y-82950057D01*
X156476190Y-82950057D02*
X156523809Y-83045295D01*
X156523809Y-83045295D02*
X156523809Y-83188152D01*
X156523809Y-83188152D02*
X156476190Y-83283390D01*
X156476190Y-83283390D02*
X156428571Y-83331009D01*
X156428571Y-83331009D02*
X156333333Y-83378628D01*
X156333333Y-83378628D02*
X155952381Y-83378628D01*
X156904762Y-82950057D02*
X156952381Y-82902438D01*
X156952381Y-82902438D02*
X157047619Y-82854819D01*
X157047619Y-82854819D02*
X157285714Y-82854819D01*
X157285714Y-82854819D02*
X157380952Y-82902438D01*
X157380952Y-82902438D02*
X157428571Y-82950057D01*
X157428571Y-82950057D02*
X157476190Y-83045295D01*
X157476190Y-83045295D02*
X157476190Y-83140533D01*
X157476190Y-83140533D02*
X157428571Y-83283390D01*
X157428571Y-83283390D02*
X156857143Y-83854819D01*
X156857143Y-83854819D02*
X157476190Y-83854819D01*
X158428571Y-83854819D02*
X157857143Y-83854819D01*
X158142857Y-83854819D02*
X158142857Y-82854819D01*
X158142857Y-82854819D02*
X158047619Y-82997676D01*
X158047619Y-82997676D02*
X157952381Y-83092914D01*
X157952381Y-83092914D02*
X157857143Y-83140533D01*
X158809524Y-82950057D02*
X158857143Y-82902438D01*
X158857143Y-82902438D02*
X158952381Y-82854819D01*
X158952381Y-82854819D02*
X159190476Y-82854819D01*
X159190476Y-82854819D02*
X159285714Y-82902438D01*
X159285714Y-82902438D02*
X159333333Y-82950057D01*
X159333333Y-82950057D02*
X159380952Y-83045295D01*
X159380952Y-83045295D02*
X159380952Y-83140533D01*
X159380952Y-83140533D02*
X159333333Y-83283390D01*
X159333333Y-83283390D02*
X158761905Y-83854819D01*
X158761905Y-83854819D02*
X159380952Y-83854819D01*
X159714286Y-82854819D02*
X160380952Y-82854819D01*
X160380952Y-82854819D02*
X159952381Y-83854819D01*
X160761905Y-83854819D02*
X160761905Y-82854819D01*
X161333333Y-83854819D02*
X160904762Y-83283390D01*
X161333333Y-82854819D02*
X160761905Y-83426247D01*
X161761905Y-83473866D02*
X162523810Y-83473866D01*
X163523809Y-83854819D02*
X162952381Y-83854819D01*
X163238095Y-83854819D02*
X163238095Y-82854819D01*
X163238095Y-82854819D02*
X163142857Y-82997676D01*
X163142857Y-82997676D02*
X163047619Y-83092914D01*
X163047619Y-83092914D02*
X162952381Y-83140533D01*
X163952381Y-83759580D02*
X164000000Y-83807200D01*
X164000000Y-83807200D02*
X163952381Y-83854819D01*
X163952381Y-83854819D02*
X163904762Y-83807200D01*
X163904762Y-83807200D02*
X163952381Y-83759580D01*
X163952381Y-83759580D02*
X163952381Y-83854819D01*
X164571428Y-83283390D02*
X164476190Y-83235771D01*
X164476190Y-83235771D02*
X164428571Y-83188152D01*
X164428571Y-83188152D02*
X164380952Y-83092914D01*
X164380952Y-83092914D02*
X164380952Y-83045295D01*
X164380952Y-83045295D02*
X164428571Y-82950057D01*
X164428571Y-82950057D02*
X164476190Y-82902438D01*
X164476190Y-82902438D02*
X164571428Y-82854819D01*
X164571428Y-82854819D02*
X164761904Y-82854819D01*
X164761904Y-82854819D02*
X164857142Y-82902438D01*
X164857142Y-82902438D02*
X164904761Y-82950057D01*
X164904761Y-82950057D02*
X164952380Y-83045295D01*
X164952380Y-83045295D02*
X164952380Y-83092914D01*
X164952380Y-83092914D02*
X164904761Y-83188152D01*
X164904761Y-83188152D02*
X164857142Y-83235771D01*
X164857142Y-83235771D02*
X164761904Y-83283390D01*
X164761904Y-83283390D02*
X164571428Y-83283390D01*
X164571428Y-83283390D02*
X164476190Y-83331009D01*
X164476190Y-83331009D02*
X164428571Y-83378628D01*
X164428571Y-83378628D02*
X164380952Y-83473866D01*
X164380952Y-83473866D02*
X164380952Y-83664342D01*
X164380952Y-83664342D02*
X164428571Y-83759580D01*
X164428571Y-83759580D02*
X164476190Y-83807200D01*
X164476190Y-83807200D02*
X164571428Y-83854819D01*
X164571428Y-83854819D02*
X164761904Y-83854819D01*
X164761904Y-83854819D02*
X164857142Y-83807200D01*
X164857142Y-83807200D02*
X164904761Y-83759580D01*
X164904761Y-83759580D02*
X164952380Y-83664342D01*
X164952380Y-83664342D02*
X164952380Y-83473866D01*
X164952380Y-83473866D02*
X164904761Y-83378628D01*
X164904761Y-83378628D02*
X164857142Y-83331009D01*
X164857142Y-83331009D02*
X164761904Y-83283390D01*
D12*
X159607365Y-81548571D02*
X160190222Y-81548571D01*
X160190222Y-81548571D02*
X160258794Y-81514285D01*
X160258794Y-81514285D02*
X160293080Y-81480000D01*
X160293080Y-81480000D02*
X160327365Y-81411428D01*
X160327365Y-81411428D02*
X160327365Y-81274285D01*
X160327365Y-81274285D02*
X160293080Y-81205714D01*
X160293080Y-81205714D02*
X160258794Y-81171428D01*
X160258794Y-81171428D02*
X160190222Y-81137142D01*
X160190222Y-81137142D02*
X159607365Y-81137142D01*
X159607365Y-80862856D02*
X159607365Y-80417142D01*
X159607365Y-80417142D02*
X159881651Y-80657142D01*
X159881651Y-80657142D02*
X159881651Y-80554285D01*
X159881651Y-80554285D02*
X159915937Y-80485714D01*
X159915937Y-80485714D02*
X159950222Y-80451428D01*
X159950222Y-80451428D02*
X160018794Y-80417142D01*
X160018794Y-80417142D02*
X160190222Y-80417142D01*
X160190222Y-80417142D02*
X160258794Y-80451428D01*
X160258794Y-80451428D02*
X160293080Y-80485714D01*
X160293080Y-80485714D02*
X160327365Y-80554285D01*
X160327365Y-80554285D02*
X160327365Y-80759999D01*
X160327365Y-80759999D02*
X160293080Y-80828571D01*
X160293080Y-80828571D02*
X160258794Y-80862856D01*
D10*
X155592261Y-96104819D02*
X155020833Y-96104819D01*
X155306547Y-96104819D02*
X155306547Y-95104819D01*
X155306547Y-95104819D02*
X155211309Y-95247676D01*
X155211309Y-95247676D02*
X155116071Y-95342914D01*
X155116071Y-95342914D02*
X155020833Y-95390533D01*
X156211309Y-95104819D02*
X156306547Y-95104819D01*
X156306547Y-95104819D02*
X156401785Y-95152438D01*
X156401785Y-95152438D02*
X156449404Y-95200057D01*
X156449404Y-95200057D02*
X156497023Y-95295295D01*
X156497023Y-95295295D02*
X156544642Y-95485771D01*
X156544642Y-95485771D02*
X156544642Y-95723866D01*
X156544642Y-95723866D02*
X156497023Y-95914342D01*
X156497023Y-95914342D02*
X156449404Y-96009580D01*
X156449404Y-96009580D02*
X156401785Y-96057200D01*
X156401785Y-96057200D02*
X156306547Y-96104819D01*
X156306547Y-96104819D02*
X156211309Y-96104819D01*
X156211309Y-96104819D02*
X156116071Y-96057200D01*
X156116071Y-96057200D02*
X156068452Y-96009580D01*
X156068452Y-96009580D02*
X156020833Y-95914342D01*
X156020833Y-95914342D02*
X155973214Y-95723866D01*
X155973214Y-95723866D02*
X155973214Y-95485771D01*
X155973214Y-95485771D02*
X156020833Y-95295295D01*
X156020833Y-95295295D02*
X156068452Y-95200057D01*
X156068452Y-95200057D02*
X156116071Y-95152438D01*
X156116071Y-95152438D02*
X156211309Y-95104819D01*
X156973214Y-96104819D02*
X156973214Y-95104819D01*
X157068452Y-95723866D02*
X157354166Y-96104819D01*
X157354166Y-95438152D02*
X156973214Y-95819104D01*
D11*
X156104166Y-97527149D02*
X155937500Y-97289054D01*
X155818452Y-97527149D02*
X155818452Y-97027149D01*
X155818452Y-97027149D02*
X156008928Y-97027149D01*
X156008928Y-97027149D02*
X156056547Y-97050959D01*
X156056547Y-97050959D02*
X156080357Y-97074768D01*
X156080357Y-97074768D02*
X156104166Y-97122387D01*
X156104166Y-97122387D02*
X156104166Y-97193816D01*
X156104166Y-97193816D02*
X156080357Y-97241435D01*
X156080357Y-97241435D02*
X156056547Y-97265244D01*
X156056547Y-97265244D02*
X156008928Y-97289054D01*
X156008928Y-97289054D02*
X155818452Y-97289054D01*
X156294643Y-97074768D02*
X156318452Y-97050959D01*
X156318452Y-97050959D02*
X156366071Y-97027149D01*
X156366071Y-97027149D02*
X156485119Y-97027149D01*
X156485119Y-97027149D02*
X156532738Y-97050959D01*
X156532738Y-97050959D02*
X156556547Y-97074768D01*
X156556547Y-97074768D02*
X156580357Y-97122387D01*
X156580357Y-97122387D02*
X156580357Y-97170006D01*
X156580357Y-97170006D02*
X156556547Y-97241435D01*
X156556547Y-97241435D02*
X156270833Y-97527149D01*
X156270833Y-97527149D02*
X156580357Y-97527149D01*
D10*
X163604819Y-86095238D02*
X163604819Y-86666666D01*
X163604819Y-86380952D02*
X162604819Y-86380952D01*
X162604819Y-86380952D02*
X162747676Y-86476190D01*
X162747676Y-86476190D02*
X162842914Y-86571428D01*
X162842914Y-86571428D02*
X162890533Y-86666666D01*
X162604819Y-85476190D02*
X162604819Y-85380952D01*
X162604819Y-85380952D02*
X162652438Y-85285714D01*
X162652438Y-85285714D02*
X162700057Y-85238095D01*
X162700057Y-85238095D02*
X162795295Y-85190476D01*
X162795295Y-85190476D02*
X162985771Y-85142857D01*
X162985771Y-85142857D02*
X163223866Y-85142857D01*
X163223866Y-85142857D02*
X163414342Y-85190476D01*
X163414342Y-85190476D02*
X163509580Y-85238095D01*
X163509580Y-85238095D02*
X163557200Y-85285714D01*
X163557200Y-85285714D02*
X163604819Y-85380952D01*
X163604819Y-85380952D02*
X163604819Y-85476190D01*
X163604819Y-85476190D02*
X163557200Y-85571428D01*
X163557200Y-85571428D02*
X163509580Y-85619047D01*
X163509580Y-85619047D02*
X163414342Y-85666666D01*
X163414342Y-85666666D02*
X163223866Y-85714285D01*
X163223866Y-85714285D02*
X162985771Y-85714285D01*
X162985771Y-85714285D02*
X162795295Y-85666666D01*
X162795295Y-85666666D02*
X162700057Y-85619047D01*
X162700057Y-85619047D02*
X162652438Y-85571428D01*
X162652438Y-85571428D02*
X162604819Y-85476190D01*
X163604819Y-84714285D02*
X162604819Y-84714285D01*
X163223866Y-84619047D02*
X163604819Y-84333333D01*
X162938152Y-84333333D02*
X163319104Y-84714285D01*
D11*
X165027149Y-85583333D02*
X164789054Y-85749999D01*
X165027149Y-85869047D02*
X164527149Y-85869047D01*
X164527149Y-85869047D02*
X164527149Y-85678571D01*
X164527149Y-85678571D02*
X164550959Y-85630952D01*
X164550959Y-85630952D02*
X164574768Y-85607142D01*
X164574768Y-85607142D02*
X164622387Y-85583333D01*
X164622387Y-85583333D02*
X164693816Y-85583333D01*
X164693816Y-85583333D02*
X164741435Y-85607142D01*
X164741435Y-85607142D02*
X164765244Y-85630952D01*
X164765244Y-85630952D02*
X164789054Y-85678571D01*
X164789054Y-85678571D02*
X164789054Y-85869047D01*
X165027149Y-85107142D02*
X165027149Y-85392856D01*
X165027149Y-85249999D02*
X164527149Y-85249999D01*
X164527149Y-85249999D02*
X164598578Y-85297618D01*
X164598578Y-85297618D02*
X164646197Y-85345237D01*
X164646197Y-85345237D02*
X164670006Y-85392856D01*
D10*
X155592261Y-101704819D02*
X155020833Y-101704819D01*
X155306547Y-101704819D02*
X155306547Y-100704819D01*
X155306547Y-100704819D02*
X155211309Y-100847676D01*
X155211309Y-100847676D02*
X155116071Y-100942914D01*
X155116071Y-100942914D02*
X155020833Y-100990533D01*
X156211309Y-100704819D02*
X156306547Y-100704819D01*
X156306547Y-100704819D02*
X156401785Y-100752438D01*
X156401785Y-100752438D02*
X156449404Y-100800057D01*
X156449404Y-100800057D02*
X156497023Y-100895295D01*
X156497023Y-100895295D02*
X156544642Y-101085771D01*
X156544642Y-101085771D02*
X156544642Y-101323866D01*
X156544642Y-101323866D02*
X156497023Y-101514342D01*
X156497023Y-101514342D02*
X156449404Y-101609580D01*
X156449404Y-101609580D02*
X156401785Y-101657200D01*
X156401785Y-101657200D02*
X156306547Y-101704819D01*
X156306547Y-101704819D02*
X156211309Y-101704819D01*
X156211309Y-101704819D02*
X156116071Y-101657200D01*
X156116071Y-101657200D02*
X156068452Y-101609580D01*
X156068452Y-101609580D02*
X156020833Y-101514342D01*
X156020833Y-101514342D02*
X155973214Y-101323866D01*
X155973214Y-101323866D02*
X155973214Y-101085771D01*
X155973214Y-101085771D02*
X156020833Y-100895295D01*
X156020833Y-100895295D02*
X156068452Y-100800057D01*
X156068452Y-100800057D02*
X156116071Y-100752438D01*
X156116071Y-100752438D02*
X156211309Y-100704819D01*
X156973214Y-101704819D02*
X156973214Y-100704819D01*
X157068452Y-101323866D02*
X157354166Y-101704819D01*
X157354166Y-101038152D02*
X156973214Y-101419104D01*
D11*
X156104166Y-99827149D02*
X155937500Y-99589054D01*
X155818452Y-99827149D02*
X155818452Y-99327149D01*
X155818452Y-99327149D02*
X156008928Y-99327149D01*
X156008928Y-99327149D02*
X156056547Y-99350959D01*
X156056547Y-99350959D02*
X156080357Y-99374768D01*
X156080357Y-99374768D02*
X156104166Y-99422387D01*
X156104166Y-99422387D02*
X156104166Y-99493816D01*
X156104166Y-99493816D02*
X156080357Y-99541435D01*
X156080357Y-99541435D02*
X156056547Y-99565244D01*
X156056547Y-99565244D02*
X156008928Y-99589054D01*
X156008928Y-99589054D02*
X155818452Y-99589054D01*
X156270833Y-99327149D02*
X156580357Y-99327149D01*
X156580357Y-99327149D02*
X156413690Y-99517625D01*
X156413690Y-99517625D02*
X156485119Y-99517625D01*
X156485119Y-99517625D02*
X156532738Y-99541435D01*
X156532738Y-99541435D02*
X156556547Y-99565244D01*
X156556547Y-99565244D02*
X156580357Y-99612863D01*
X156580357Y-99612863D02*
X156580357Y-99731911D01*
X156580357Y-99731911D02*
X156556547Y-99779530D01*
X156556547Y-99779530D02*
X156532738Y-99803340D01*
X156532738Y-99803340D02*
X156485119Y-99827149D01*
X156485119Y-99827149D02*
X156342262Y-99827149D01*
X156342262Y-99827149D02*
X156294643Y-99803340D01*
X156294643Y-99803340D02*
X156270833Y-99779530D01*
D10*
X161163118Y-89888321D02*
X161163118Y-90697844D01*
X161163118Y-90697844D02*
X161210737Y-90793082D01*
X161210737Y-90793082D02*
X161258356Y-90840702D01*
X161258356Y-90840702D02*
X161353594Y-90888321D01*
X161353594Y-90888321D02*
X161544070Y-90888321D01*
X161544070Y-90888321D02*
X161639308Y-90840702D01*
X161639308Y-90840702D02*
X161686927Y-90793082D01*
X161686927Y-90793082D02*
X161734546Y-90697844D01*
X161734546Y-90697844D02*
X161734546Y-89888321D01*
X162163118Y-89983559D02*
X162210737Y-89935940D01*
X162210737Y-89935940D02*
X162305975Y-89888321D01*
X162305975Y-89888321D02*
X162544070Y-89888321D01*
X162544070Y-89888321D02*
X162639308Y-89935940D01*
X162639308Y-89935940D02*
X162686927Y-89983559D01*
X162686927Y-89983559D02*
X162734546Y-90078797D01*
X162734546Y-90078797D02*
X162734546Y-90174035D01*
X162734546Y-90174035D02*
X162686927Y-90316892D01*
X162686927Y-90316892D02*
X162115499Y-90888321D01*
X162115499Y-90888321D02*
X162734546Y-90888321D01*
X157686928Y-86438321D02*
X158258356Y-86438321D01*
X157972642Y-87438321D02*
X157972642Y-86438321D01*
X158496452Y-86438321D02*
X159163118Y-87438321D01*
X159163118Y-86438321D02*
X158496452Y-87438321D01*
X159877404Y-86914511D02*
X160020261Y-86962130D01*
X160020261Y-86962130D02*
X160067880Y-87009749D01*
X160067880Y-87009749D02*
X160115499Y-87104987D01*
X160115499Y-87104987D02*
X160115499Y-87247844D01*
X160115499Y-87247844D02*
X160067880Y-87343082D01*
X160067880Y-87343082D02*
X160020261Y-87390702D01*
X160020261Y-87390702D02*
X159925023Y-87438321D01*
X159925023Y-87438321D02*
X159544071Y-87438321D01*
X159544071Y-87438321D02*
X159544071Y-86438321D01*
X159544071Y-86438321D02*
X159877404Y-86438321D01*
X159877404Y-86438321D02*
X159972642Y-86485940D01*
X159972642Y-86485940D02*
X160020261Y-86533559D01*
X160020261Y-86533559D02*
X160067880Y-86628797D01*
X160067880Y-86628797D02*
X160067880Y-86724035D01*
X160067880Y-86724035D02*
X160020261Y-86819273D01*
X160020261Y-86819273D02*
X159972642Y-86866892D01*
X159972642Y-86866892D02*
X159877404Y-86914511D01*
X159877404Y-86914511D02*
X159544071Y-86914511D01*
X160734547Y-86438321D02*
X160829785Y-86438321D01*
X160829785Y-86438321D02*
X160925023Y-86485940D01*
X160925023Y-86485940D02*
X160972642Y-86533559D01*
X160972642Y-86533559D02*
X161020261Y-86628797D01*
X161020261Y-86628797D02*
X161067880Y-86819273D01*
X161067880Y-86819273D02*
X161067880Y-87057368D01*
X161067880Y-87057368D02*
X161020261Y-87247844D01*
X161020261Y-87247844D02*
X160972642Y-87343082D01*
X160972642Y-87343082D02*
X160925023Y-87390702D01*
X160925023Y-87390702D02*
X160829785Y-87438321D01*
X160829785Y-87438321D02*
X160734547Y-87438321D01*
X160734547Y-87438321D02*
X160639309Y-87390702D01*
X160639309Y-87390702D02*
X160591690Y-87343082D01*
X160591690Y-87343082D02*
X160544071Y-87247844D01*
X160544071Y-87247844D02*
X160496452Y-87057368D01*
X160496452Y-87057368D02*
X160496452Y-86819273D01*
X160496452Y-86819273D02*
X160544071Y-86628797D01*
X160544071Y-86628797D02*
X160591690Y-86533559D01*
X160591690Y-86533559D02*
X160639309Y-86485940D01*
X160639309Y-86485940D02*
X160734547Y-86438321D01*
X162020261Y-87438321D02*
X161448833Y-87438321D01*
X161734547Y-87438321D02*
X161734547Y-86438321D01*
X161734547Y-86438321D02*
X161639309Y-86581178D01*
X161639309Y-86581178D02*
X161544071Y-86676416D01*
X161544071Y-86676416D02*
X161448833Y-86724035D01*
X162639309Y-86438321D02*
X162734547Y-86438321D01*
X162734547Y-86438321D02*
X162829785Y-86485940D01*
X162829785Y-86485940D02*
X162877404Y-86533559D01*
X162877404Y-86533559D02*
X162925023Y-86628797D01*
X162925023Y-86628797D02*
X162972642Y-86819273D01*
X162972642Y-86819273D02*
X162972642Y-87057368D01*
X162972642Y-87057368D02*
X162925023Y-87247844D01*
X162925023Y-87247844D02*
X162877404Y-87343082D01*
X162877404Y-87343082D02*
X162829785Y-87390702D01*
X162829785Y-87390702D02*
X162734547Y-87438321D01*
X162734547Y-87438321D02*
X162639309Y-87438321D01*
X162639309Y-87438321D02*
X162544071Y-87390702D01*
X162544071Y-87390702D02*
X162496452Y-87343082D01*
X162496452Y-87343082D02*
X162448833Y-87247844D01*
X162448833Y-87247844D02*
X162401214Y-87057368D01*
X162401214Y-87057368D02*
X162401214Y-86819273D01*
X162401214Y-86819273D02*
X162448833Y-86628797D01*
X162448833Y-86628797D02*
X162496452Y-86533559D01*
X162496452Y-86533559D02*
X162544071Y-86485940D01*
X162544071Y-86485940D02*
X162639309Y-86438321D01*
X163829785Y-86438321D02*
X163639309Y-86438321D01*
X163639309Y-86438321D02*
X163544071Y-86485940D01*
X163544071Y-86485940D02*
X163496452Y-86533559D01*
X163496452Y-86533559D02*
X163401214Y-86676416D01*
X163401214Y-86676416D02*
X163353595Y-86866892D01*
X163353595Y-86866892D02*
X163353595Y-87247844D01*
X163353595Y-87247844D02*
X163401214Y-87343082D01*
X163401214Y-87343082D02*
X163448833Y-87390702D01*
X163448833Y-87390702D02*
X163544071Y-87438321D01*
X163544071Y-87438321D02*
X163734547Y-87438321D01*
X163734547Y-87438321D02*
X163829785Y-87390702D01*
X163829785Y-87390702D02*
X163877404Y-87343082D01*
X163877404Y-87343082D02*
X163925023Y-87247844D01*
X163925023Y-87247844D02*
X163925023Y-87009749D01*
X163925023Y-87009749D02*
X163877404Y-86914511D01*
X163877404Y-86914511D02*
X163829785Y-86866892D01*
X163829785Y-86866892D02*
X163734547Y-86819273D01*
X163734547Y-86819273D02*
X163544071Y-86819273D01*
X163544071Y-86819273D02*
X163448833Y-86866892D01*
X163448833Y-86866892D02*
X163401214Y-86914511D01*
X163401214Y-86914511D02*
X163353595Y-87009749D01*
X164353595Y-87438321D02*
X164353595Y-86438321D01*
X164353595Y-86438321D02*
X164734547Y-86438321D01*
X164734547Y-86438321D02*
X164829785Y-86485940D01*
X164829785Y-86485940D02*
X164877404Y-86533559D01*
X164877404Y-86533559D02*
X164925023Y-86628797D01*
X164925023Y-86628797D02*
X164925023Y-86771654D01*
X164925023Y-86771654D02*
X164877404Y-86866892D01*
X164877404Y-86866892D02*
X164829785Y-86914511D01*
X164829785Y-86914511D02*
X164734547Y-86962130D01*
X164734547Y-86962130D02*
X164353595Y-86962130D01*
X165258357Y-86438321D02*
X165496452Y-87438321D01*
X165496452Y-87438321D02*
X165686928Y-86724035D01*
X165686928Y-86724035D02*
X165877404Y-87438321D01*
X165877404Y-87438321D02*
X166115500Y-86438321D01*
X161163118Y-89888321D02*
X161163118Y-90697844D01*
X161163118Y-90697844D02*
X161210737Y-90793082D01*
X161210737Y-90793082D02*
X161258356Y-90840702D01*
X161258356Y-90840702D02*
X161353594Y-90888321D01*
X161353594Y-90888321D02*
X161544070Y-90888321D01*
X161544070Y-90888321D02*
X161639308Y-90840702D01*
X161639308Y-90840702D02*
X161686927Y-90793082D01*
X161686927Y-90793082D02*
X161734546Y-90697844D01*
X161734546Y-90697844D02*
X161734546Y-89888321D01*
X162163118Y-89983559D02*
X162210737Y-89935940D01*
X162210737Y-89935940D02*
X162305975Y-89888321D01*
X162305975Y-89888321D02*
X162544070Y-89888321D01*
X162544070Y-89888321D02*
X162639308Y-89935940D01*
X162639308Y-89935940D02*
X162686927Y-89983559D01*
X162686927Y-89983559D02*
X162734546Y-90078797D01*
X162734546Y-90078797D02*
X162734546Y-90174035D01*
X162734546Y-90174035D02*
X162686927Y-90316892D01*
X162686927Y-90316892D02*
X162115499Y-90888321D01*
X162115499Y-90888321D02*
X162734546Y-90888321D01*
X165638095Y-96454819D02*
X165638095Y-97264342D01*
X165638095Y-97264342D02*
X165685714Y-97359580D01*
X165685714Y-97359580D02*
X165733333Y-97407200D01*
X165733333Y-97407200D02*
X165828571Y-97454819D01*
X165828571Y-97454819D02*
X166019047Y-97454819D01*
X166019047Y-97454819D02*
X166114285Y-97407200D01*
X166114285Y-97407200D02*
X166161904Y-97359580D01*
X166161904Y-97359580D02*
X166209523Y-97264342D01*
X166209523Y-97264342D02*
X166209523Y-96454819D01*
X167209523Y-97454819D02*
X166638095Y-97454819D01*
X166923809Y-97454819D02*
X166923809Y-96454819D01*
X166923809Y-96454819D02*
X166828571Y-96597676D01*
X166828571Y-96597676D02*
X166733333Y-96692914D01*
X166733333Y-96692914D02*
X166638095Y-96740533D01*
X166223095Y-102054104D02*
X166699285Y-102054104D01*
X166127857Y-102339819D02*
X166461190Y-101339819D01*
X166461190Y-101339819D02*
X166794523Y-102339819D01*
X167080238Y-102292200D02*
X167223095Y-102339819D01*
X167223095Y-102339819D02*
X167461190Y-102339819D01*
X167461190Y-102339819D02*
X167556428Y-102292200D01*
X167556428Y-102292200D02*
X167604047Y-102244580D01*
X167604047Y-102244580D02*
X167651666Y-102149342D01*
X167651666Y-102149342D02*
X167651666Y-102054104D01*
X167651666Y-102054104D02*
X167604047Y-101958866D01*
X167604047Y-101958866D02*
X167556428Y-101911247D01*
X167556428Y-101911247D02*
X167461190Y-101863628D01*
X167461190Y-101863628D02*
X167270714Y-101816009D01*
X167270714Y-101816009D02*
X167175476Y-101768390D01*
X167175476Y-101768390D02*
X167127857Y-101720771D01*
X167127857Y-101720771D02*
X167080238Y-101625533D01*
X167080238Y-101625533D02*
X167080238Y-101530295D01*
X167080238Y-101530295D02*
X167127857Y-101435057D01*
X167127857Y-101435057D02*
X167175476Y-101387438D01*
X167175476Y-101387438D02*
X167270714Y-101339819D01*
X167270714Y-101339819D02*
X167508809Y-101339819D01*
X167508809Y-101339819D02*
X167651666Y-101387438D01*
X168556428Y-101339819D02*
X168080238Y-101339819D01*
X168080238Y-101339819D02*
X168032619Y-101816009D01*
X168032619Y-101816009D02*
X168080238Y-101768390D01*
X168080238Y-101768390D02*
X168175476Y-101720771D01*
X168175476Y-101720771D02*
X168413571Y-101720771D01*
X168413571Y-101720771D02*
X168508809Y-101768390D01*
X168508809Y-101768390D02*
X168556428Y-101816009D01*
X168556428Y-101816009D02*
X168604047Y-101911247D01*
X168604047Y-101911247D02*
X168604047Y-102149342D01*
X168604047Y-102149342D02*
X168556428Y-102244580D01*
X168556428Y-102244580D02*
X168508809Y-102292200D01*
X168508809Y-102292200D02*
X168413571Y-102339819D01*
X168413571Y-102339819D02*
X168175476Y-102339819D01*
X168175476Y-102339819D02*
X168080238Y-102292200D01*
X168080238Y-102292200D02*
X168032619Y-102244580D01*
X169365952Y-101816009D02*
X169032619Y-101816009D01*
X169032619Y-102339819D02*
X169032619Y-101339819D01*
X169032619Y-101339819D02*
X169508809Y-101339819D01*
X170413571Y-102339819D02*
X169842143Y-102339819D01*
X170127857Y-102339819D02*
X170127857Y-101339819D01*
X170127857Y-101339819D02*
X170032619Y-101482676D01*
X170032619Y-101482676D02*
X169937381Y-101577914D01*
X169937381Y-101577914D02*
X169842143Y-101625533D01*
X170985000Y-101768390D02*
X170889762Y-101720771D01*
X170889762Y-101720771D02*
X170842143Y-101673152D01*
X170842143Y-101673152D02*
X170794524Y-101577914D01*
X170794524Y-101577914D02*
X170794524Y-101530295D01*
X170794524Y-101530295D02*
X170842143Y-101435057D01*
X170842143Y-101435057D02*
X170889762Y-101387438D01*
X170889762Y-101387438D02*
X170985000Y-101339819D01*
X170985000Y-101339819D02*
X171175476Y-101339819D01*
X171175476Y-101339819D02*
X171270714Y-101387438D01*
X171270714Y-101387438D02*
X171318333Y-101435057D01*
X171318333Y-101435057D02*
X171365952Y-101530295D01*
X171365952Y-101530295D02*
X171365952Y-101577914D01*
X171365952Y-101577914D02*
X171318333Y-101673152D01*
X171318333Y-101673152D02*
X171270714Y-101720771D01*
X171270714Y-101720771D02*
X171175476Y-101768390D01*
X171175476Y-101768390D02*
X170985000Y-101768390D01*
X170985000Y-101768390D02*
X170889762Y-101816009D01*
X170889762Y-101816009D02*
X170842143Y-101863628D01*
X170842143Y-101863628D02*
X170794524Y-101958866D01*
X170794524Y-101958866D02*
X170794524Y-102149342D01*
X170794524Y-102149342D02*
X170842143Y-102244580D01*
X170842143Y-102244580D02*
X170889762Y-102292200D01*
X170889762Y-102292200D02*
X170985000Y-102339819D01*
X170985000Y-102339819D02*
X171175476Y-102339819D01*
X171175476Y-102339819D02*
X171270714Y-102292200D01*
X171270714Y-102292200D02*
X171318333Y-102244580D01*
X171318333Y-102244580D02*
X171365952Y-102149342D01*
X171365952Y-102149342D02*
X171365952Y-101958866D01*
X171365952Y-101958866D02*
X171318333Y-101863628D01*
X171318333Y-101863628D02*
X171270714Y-101816009D01*
X171270714Y-101816009D02*
X171175476Y-101768390D01*
X172318333Y-101387438D02*
X172223095Y-101339819D01*
X172223095Y-101339819D02*
X172080238Y-101339819D01*
X172080238Y-101339819D02*
X171937381Y-101387438D01*
X171937381Y-101387438D02*
X171842143Y-101482676D01*
X171842143Y-101482676D02*
X171794524Y-101577914D01*
X171794524Y-101577914D02*
X171746905Y-101768390D01*
X171746905Y-101768390D02*
X171746905Y-101911247D01*
X171746905Y-101911247D02*
X171794524Y-102101723D01*
X171794524Y-102101723D02*
X171842143Y-102196961D01*
X171842143Y-102196961D02*
X171937381Y-102292200D01*
X171937381Y-102292200D02*
X172080238Y-102339819D01*
X172080238Y-102339819D02*
X172175476Y-102339819D01*
X172175476Y-102339819D02*
X172318333Y-102292200D01*
X172318333Y-102292200D02*
X172365952Y-102244580D01*
X172365952Y-102244580D02*
X172365952Y-101911247D01*
X172365952Y-101911247D02*
X172175476Y-101911247D01*
X172985000Y-101339819D02*
X173080238Y-101339819D01*
X173080238Y-101339819D02*
X173175476Y-101387438D01*
X173175476Y-101387438D02*
X173223095Y-101435057D01*
X173223095Y-101435057D02*
X173270714Y-101530295D01*
X173270714Y-101530295D02*
X173318333Y-101720771D01*
X173318333Y-101720771D02*
X173318333Y-101958866D01*
X173318333Y-101958866D02*
X173270714Y-102149342D01*
X173270714Y-102149342D02*
X173223095Y-102244580D01*
X173223095Y-102244580D02*
X173175476Y-102292200D01*
X173175476Y-102292200D02*
X173080238Y-102339819D01*
X173080238Y-102339819D02*
X172985000Y-102339819D01*
X172985000Y-102339819D02*
X172889762Y-102292200D01*
X172889762Y-102292200D02*
X172842143Y-102244580D01*
X172842143Y-102244580D02*
X172794524Y-102149342D01*
X172794524Y-102149342D02*
X172746905Y-101958866D01*
X172746905Y-101958866D02*
X172746905Y-101720771D01*
X172746905Y-101720771D02*
X172794524Y-101530295D01*
X172794524Y-101530295D02*
X172842143Y-101435057D01*
X172842143Y-101435057D02*
X172889762Y-101387438D01*
X172889762Y-101387438D02*
X172985000Y-101339819D01*
X174175476Y-101673152D02*
X174175476Y-102339819D01*
X173937381Y-101292200D02*
X173699286Y-102006485D01*
X173699286Y-102006485D02*
X174318333Y-102006485D01*
X174651667Y-102292200D02*
X174794524Y-102339819D01*
X174794524Y-102339819D02*
X175032619Y-102339819D01*
X175032619Y-102339819D02*
X175127857Y-102292200D01*
X175127857Y-102292200D02*
X175175476Y-102244580D01*
X175175476Y-102244580D02*
X175223095Y-102149342D01*
X175223095Y-102149342D02*
X175223095Y-102054104D01*
X175223095Y-102054104D02*
X175175476Y-101958866D01*
X175175476Y-101958866D02*
X175127857Y-101911247D01*
X175127857Y-101911247D02*
X175032619Y-101863628D01*
X175032619Y-101863628D02*
X174842143Y-101816009D01*
X174842143Y-101816009D02*
X174746905Y-101768390D01*
X174746905Y-101768390D02*
X174699286Y-101720771D01*
X174699286Y-101720771D02*
X174651667Y-101625533D01*
X174651667Y-101625533D02*
X174651667Y-101530295D01*
X174651667Y-101530295D02*
X174699286Y-101435057D01*
X174699286Y-101435057D02*
X174746905Y-101387438D01*
X174746905Y-101387438D02*
X174842143Y-101339819D01*
X174842143Y-101339819D02*
X175080238Y-101339819D01*
X175080238Y-101339819D02*
X175223095Y-101387438D01*
X175651667Y-102339819D02*
X175651667Y-101339819D01*
X175651667Y-101339819D02*
X176223095Y-102339819D01*
X176223095Y-102339819D02*
X176223095Y-101339819D01*
X176699286Y-102339819D02*
X176699286Y-101339819D01*
X176699286Y-101339819D02*
X176937381Y-101339819D01*
X176937381Y-101339819D02*
X177080238Y-101387438D01*
X177080238Y-101387438D02*
X177175476Y-101482676D01*
X177175476Y-101482676D02*
X177223095Y-101577914D01*
X177223095Y-101577914D02*
X177270714Y-101768390D01*
X177270714Y-101768390D02*
X177270714Y-101911247D01*
X177270714Y-101911247D02*
X177223095Y-102101723D01*
X177223095Y-102101723D02*
X177175476Y-102196961D01*
X177175476Y-102196961D02*
X177080238Y-102292200D01*
X177080238Y-102292200D02*
X176937381Y-102339819D01*
X176937381Y-102339819D02*
X176699286Y-102339819D01*
X177699286Y-101958866D02*
X178461191Y-101958866D01*
X179461190Y-102339819D02*
X178889762Y-102339819D01*
X179175476Y-102339819D02*
X179175476Y-101339819D01*
X179175476Y-101339819D02*
X179080238Y-101482676D01*
X179080238Y-101482676D02*
X178985000Y-101577914D01*
X178985000Y-101577914D02*
X178889762Y-101625533D01*
X180080238Y-101339819D02*
X180175476Y-101339819D01*
X180175476Y-101339819D02*
X180270714Y-101387438D01*
X180270714Y-101387438D02*
X180318333Y-101435057D01*
X180318333Y-101435057D02*
X180365952Y-101530295D01*
X180365952Y-101530295D02*
X180413571Y-101720771D01*
X180413571Y-101720771D02*
X180413571Y-101958866D01*
X180413571Y-101958866D02*
X180365952Y-102149342D01*
X180365952Y-102149342D02*
X180318333Y-102244580D01*
X180318333Y-102244580D02*
X180270714Y-102292200D01*
X180270714Y-102292200D02*
X180175476Y-102339819D01*
X180175476Y-102339819D02*
X180080238Y-102339819D01*
X180080238Y-102339819D02*
X179985000Y-102292200D01*
X179985000Y-102292200D02*
X179937381Y-102244580D01*
X179937381Y-102244580D02*
X179889762Y-102149342D01*
X179889762Y-102149342D02*
X179842143Y-101958866D01*
X179842143Y-101958866D02*
X179842143Y-101720771D01*
X179842143Y-101720771D02*
X179889762Y-101530295D01*
X179889762Y-101530295D02*
X179937381Y-101435057D01*
X179937381Y-101435057D02*
X179985000Y-101387438D01*
X179985000Y-101387438D02*
X180080238Y-101339819D01*
X181318333Y-102339819D02*
X180842143Y-102339819D01*
X180842143Y-102339819D02*
X180842143Y-101339819D01*
X181651667Y-102339819D02*
X181651667Y-101339819D01*
X182127857Y-102339819D02*
X182127857Y-101339819D01*
X182127857Y-101339819D02*
X182699285Y-102339819D01*
X182699285Y-102339819D02*
X182699285Y-101339819D01*
X169834819Y-92395238D02*
X169834819Y-92966666D01*
X169834819Y-92680952D02*
X168834819Y-92680952D01*
X168834819Y-92680952D02*
X168977676Y-92776190D01*
X168977676Y-92776190D02*
X169072914Y-92871428D01*
X169072914Y-92871428D02*
X169120533Y-92966666D01*
X169168152Y-91538095D02*
X169834819Y-91538095D01*
X169168152Y-91966666D02*
X169691961Y-91966666D01*
X169691961Y-91966666D02*
X169787200Y-91919047D01*
X169787200Y-91919047D02*
X169834819Y-91823809D01*
X169834819Y-91823809D02*
X169834819Y-91680952D01*
X169834819Y-91680952D02*
X169787200Y-91585714D01*
X169787200Y-91585714D02*
X169739580Y-91538095D01*
X169311009Y-90728571D02*
X169311009Y-91061904D01*
X169834819Y-91061904D02*
X168834819Y-91061904D01*
X168834819Y-91061904D02*
X168834819Y-90585714D01*
D11*
X167879530Y-91883333D02*
X167903340Y-91907142D01*
X167903340Y-91907142D02*
X167927149Y-91978571D01*
X167927149Y-91978571D02*
X167927149Y-92026190D01*
X167927149Y-92026190D02*
X167903340Y-92097618D01*
X167903340Y-92097618D02*
X167855720Y-92145237D01*
X167855720Y-92145237D02*
X167808101Y-92169047D01*
X167808101Y-92169047D02*
X167712863Y-92192856D01*
X167712863Y-92192856D02*
X167641435Y-92192856D01*
X167641435Y-92192856D02*
X167546197Y-92169047D01*
X167546197Y-92169047D02*
X167498578Y-92145237D01*
X167498578Y-92145237D02*
X167450959Y-92097618D01*
X167450959Y-92097618D02*
X167427149Y-92026190D01*
X167427149Y-92026190D02*
X167427149Y-91978571D01*
X167427149Y-91978571D02*
X167450959Y-91907142D01*
X167450959Y-91907142D02*
X167474768Y-91883333D01*
X167427149Y-91430952D02*
X167427149Y-91669047D01*
X167427149Y-91669047D02*
X167665244Y-91692856D01*
X167665244Y-91692856D02*
X167641435Y-91669047D01*
X167641435Y-91669047D02*
X167617625Y-91621428D01*
X167617625Y-91621428D02*
X167617625Y-91502380D01*
X167617625Y-91502380D02*
X167641435Y-91454761D01*
X167641435Y-91454761D02*
X167665244Y-91430952D01*
X167665244Y-91430952D02*
X167712863Y-91407142D01*
X167712863Y-91407142D02*
X167831911Y-91407142D01*
X167831911Y-91407142D02*
X167879530Y-91430952D01*
X167879530Y-91430952D02*
X167903340Y-91454761D01*
X167903340Y-91454761D02*
X167927149Y-91502380D01*
X167927149Y-91502380D02*
X167927149Y-91621428D01*
X167927149Y-91621428D02*
X167903340Y-91669047D01*
X167903340Y-91669047D02*
X167879530Y-91692856D01*
%TO.C,C2*%
D13*
X164100000Y-77675000D02*
X166100000Y-77675000D01*
X166100000Y-78925000D01*
X164100000Y-78925000D01*
X164100000Y-77675000D01*
%TO.C,C4*%
X155200000Y-93975000D02*
X157200000Y-93975000D01*
X157200000Y-95225000D01*
X155200000Y-95225000D01*
X155200000Y-93975000D01*
%TO.C,C3*%
X160338512Y-84484420D02*
X161588512Y-84484420D01*
X161588512Y-86484420D01*
X160338512Y-86484420D01*
X160338512Y-84484420D01*
%TO.C,J1*%
X150730000Y-79190000D02*
X152635000Y-79190000D01*
X150730000Y-99510000D02*
X150730000Y-79190000D01*
X152635000Y-79190000D02*
X153270000Y-79825000D01*
X153270000Y-79825000D02*
X153270000Y-99510000D01*
X153270000Y-99510000D02*
X150730000Y-99510000D01*
%TO.C,C6*%
X169575000Y-90800000D02*
X170825000Y-90800000D01*
X170825000Y-92800000D01*
X169575000Y-92800000D01*
X169575000Y-90800000D01*
%TO.C,C1*%
X154900000Y-77675000D02*
X156900000Y-77675000D01*
X156900000Y-78925000D01*
X154900000Y-78925000D01*
X154900000Y-77675000D01*
%TO.C,R4*%
X166475000Y-84500000D02*
X167725000Y-84500000D01*
X167725000Y-86500000D01*
X166475000Y-86500000D01*
X166475000Y-84500000D01*
%TO.C,U3*%
X159600000Y-79550000D02*
X160800000Y-79550000D01*
X160800000Y-82450000D01*
X159200000Y-82450000D01*
X159200000Y-79950000D01*
X159600000Y-79550000D01*
%TO.C,R2*%
X155187500Y-96675000D02*
X157187500Y-96675000D01*
X157187500Y-97925000D01*
X155187500Y-97925000D01*
X155187500Y-96675000D01*
%TO.C,R1*%
X164175000Y-84500000D02*
X165425000Y-84500000D01*
X165425000Y-86500000D01*
X164175000Y-86500000D01*
X164175000Y-84500000D01*
%TO.C,R3*%
X155187500Y-98975000D02*
X157187500Y-98975000D01*
X157187500Y-100225000D01*
X155187500Y-100225000D01*
X155187500Y-98975000D01*
%TO.C,U2*%
X163125023Y-92933502D02*
X159725023Y-92933502D01*
X159725023Y-87933502D01*
X164125023Y-87933502D01*
X164125023Y-91933502D01*
X163125023Y-92933502D01*
%TO.C,U1*%
D14*
X162400000Y-94000000D02*
X170400000Y-94000000D01*
X162400000Y-100000000D02*
X162400000Y-94000000D01*
X170400000Y-94000000D02*
X170400000Y-100000000D01*
X170400000Y-100000000D02*
X162400000Y-100000000D01*
D15*
X161135000Y-95095000D02*
G75*
G02*
X160935000Y-95095000I-100000J0D01*
G01*
X160935000Y-95095000D02*
G75*
G02*
X161135000Y-95095000I100000J0D01*
G01*
%TO.C,C5*%
D13*
X167075000Y-90800000D02*
X168325000Y-90800000D01*
X168325000Y-92800000D01*
X167075000Y-92800000D01*
X167075000Y-90800000D01*
%TD*%
M02*
