%TF.GenerationSoftware,KiCad,Pcbnew,10.0.3*%
%TF.CreationDate,2026-07-29T11:16:19-04:00*%
%TF.ProjectId,SPI NAND Breakout,53504920-4e41-44e4-9420-427265616b6f,rev?*%
%TF.SameCoordinates,Original*%
%TF.FileFunction,Copper,L2,Bot*%
%TF.FilePolarity,Positive*%
%FSLAX46Y46*%
G04 Gerber Fmt 4.6, Leading zero omitted, Abs format (unit mm)*
G04 Created by KiCad (PCBNEW 10.0.3) date 2026-07-29 11:16:19*
%MOMM*%
%LPD*%
G01*
G04 APERTURE LIST*
%TA.AperFunction,ComponentPad*%
%ADD10R,1.700000X1.700000*%
%TD*%
%TA.AperFunction,ComponentPad*%
%ADD11C,1.700000*%
%TD*%
%TA.AperFunction,ViaPad*%
%ADD12C,0.600000*%
%TD*%
%TA.AperFunction,Conductor*%
%ADD13C,0.300000*%
%TD*%
%TA.AperFunction,Conductor*%
%ADD14C,0.200000*%
%TD*%
G04 APERTURE END LIST*
D10*
%TO.P,J1,1,Pin_1_1*%
%TO.N,Net-(J1-Pin_1)*%
X152000000Y-80460000D03*
D11*
%TO.P,J1,2,Pin_2_2*%
%TO.N,Net-(J1-Pin_2)*%
X152000000Y-83000000D03*
%TO.P,J1,3,Pin_3_3*%
%TO.N,Net-(J1-Pin_3)*%
X152000000Y-85540000D03*
%TO.P,J1,4,Pin_4_4*%
%TO.N,Net-(J1-Pin_4)*%
X152000000Y-88080000D03*
%TO.P,J1,5,Pin_5_5*%
%TO.N,Net-(J1-Pin_5)*%
X152000000Y-90620000D03*
%TO.P,J1,6,Pin_6_6*%
%TO.N,Net-(J1-Pin_6)*%
X152000000Y-93160000D03*
%TO.P,J1,7,Pin_7_7*%
%TO.N,Net-(J1-Pin_7)*%
X152000000Y-95700000D03*
%TO.P,J1,8,Pin_8_8*%
%TO.N,GND*%
X152000000Y-98240000D03*
%TD*%
D12*
%TO.N,GND*%
X164600000Y-99000000D03*
X158900000Y-94100000D03*
X167000000Y-99000000D03*
X168600000Y-80500000D03*
X153800000Y-99600000D03*
X158900000Y-95100000D03*
X158900000Y-84900000D03*
X155800000Y-87300000D03*
X155800000Y-86000000D03*
X158900000Y-83600000D03*
X165800000Y-99000000D03*
X157600000Y-83600000D03*
X169400000Y-89300000D03*
X171000000Y-82000000D03*
X159000000Y-78300000D03*
X157100000Y-87300000D03*
X170600000Y-89300000D03*
X171000000Y-79000000D03*
X169800000Y-80500000D03*
X160200000Y-78300000D03*
X157300000Y-81000000D03*
X168600000Y-82000000D03*
X161400000Y-78300000D03*
X153800000Y-97200000D03*
X171000000Y-80500000D03*
X168600000Y-79000000D03*
X153800000Y-98400000D03*
X168200000Y-89300000D03*
X158900000Y-96100000D03*
X169800000Y-82000000D03*
X169800000Y-79000000D03*
%TO.N,Net-(U1-VCC)*%
X164100000Y-95100000D03*
X162400000Y-93200000D03*
%TO.N,Net-(J1-Pin_1)*%
X157700000Y-92175000D03*
X158200000Y-93600000D03*
%TO.N,Net-(J1-Pin_2)*%
X155314579Y-92075000D03*
X155161990Y-89548631D03*
%TO.N,Net-(J1-Pin_3)*%
X154700000Y-91500000D03*
X153834265Y-89065735D03*
%TO.N,Net-(J1-Pin_4)*%
X153900000Y-90825000D03*
%TO.N,Net-(J1-Pin_6)*%
X156200000Y-89525000D03*
X155300000Y-93000000D03*
%TO.N,Net-(J1-Pin_7)*%
X157100000Y-88900000D03*
%TO.N,Net-(U1-WP#{slash}SIO2)*%
X161400000Y-95000000D03*
X163050000Y-90100000D03*
%TO.N,Net-(U1-SO{slash}SIO1)*%
X163050000Y-91400000D03*
X163600000Y-96400000D03*
%TO.N,Net-(U1-SI{slash}SIO0)*%
X169200000Y-98900000D03*
X166200000Y-90200000D03*
%TO.N,Net-(U1-SCLK)*%
X166700000Y-89458502D03*
X168300000Y-97700000D03*
%TD*%
%TO.N,Net-(U1-VCC)*%
D13*
X162325735Y-93300000D02*
X162300000Y-93300000D01*
X164100000Y-95074265D02*
X162325735Y-93300000D01*
X164100000Y-95100000D02*
X164100000Y-95074265D01*
%TO.N,Net-(J1-Pin_1)*%
D14*
X157700000Y-92175000D02*
X157700000Y-92900000D01*
X158200000Y-93400000D02*
X158200000Y-93600000D01*
X157700000Y-92900000D02*
X158200000Y-93400000D01*
%TO.N,Net-(J1-Pin_2)*%
X155100000Y-89600000D02*
X155151369Y-89548631D01*
X155151369Y-89548631D02*
X155161990Y-89548631D01*
X155314579Y-89814579D02*
X155100000Y-89600000D01*
X155314579Y-92075000D02*
X155314579Y-89814579D01*
%TO.N,Net-(J1-Pin_3)*%
X154700000Y-89931470D02*
X153834265Y-89065735D01*
X154700000Y-91500000D02*
X154700000Y-89931470D01*
%TO.N,Net-(J1-Pin_4)*%
X153900000Y-89980000D02*
X152000000Y-88080000D01*
X153900000Y-90825000D02*
X153900000Y-89980000D01*
%TO.N,Net-(J1-Pin_6)*%
X156200000Y-89525000D02*
X156200000Y-92100000D01*
X156200000Y-92100000D02*
X155300000Y-93000000D01*
%TO.N,Net-(J1-Pin_7)*%
X157100000Y-88900000D02*
X157100000Y-92048529D01*
X153448529Y-95700000D02*
X152000000Y-95700000D01*
X157100000Y-92048529D02*
X153448529Y-95700000D01*
%TO.N,Net-(U1-WP#{slash}SIO2)*%
X163000000Y-90100000D02*
X163050000Y-90100000D01*
X161400000Y-91700000D02*
X163000000Y-90100000D01*
X161400000Y-95000000D02*
X161400000Y-91700000D01*
%TO.N,Net-(U1-SO{slash}SIO1)*%
X164800000Y-96200000D02*
X164800000Y-91400000D01*
X164800000Y-91400000D02*
X163050000Y-91400000D01*
X164600000Y-96400000D02*
X164800000Y-96200000D01*
X163600000Y-96400000D02*
X164600000Y-96400000D01*
%TO.N,Net-(U1-SI{slash}SIO0)*%
X169200000Y-98900000D02*
X168600000Y-98900000D01*
X168600000Y-98900000D02*
X166200000Y-96500000D01*
X166200000Y-96500000D02*
X166200000Y-90200000D01*
%TO.N,Net-(U1-SCLK)*%
X169200000Y-96800000D02*
X169200000Y-91958502D01*
X169200000Y-91958502D02*
X166700000Y-89458502D01*
X168300000Y-97700000D02*
X169200000Y-96800000D01*
%TD*%
%TA.AperFunction,Conductor*%
%TO.N,GND*%
G36*
X172242539Y-77520185D02*
G01*
X172288294Y-77572989D01*
X172299500Y-77624500D01*
X172299500Y-100375500D01*
X172279815Y-100442539D01*
X172227011Y-100488294D01*
X172175500Y-100499500D01*
X150224500Y-100499500D01*
X150157461Y-100479815D01*
X150111706Y-100427011D01*
X150100500Y-100375500D01*
X150100500Y-79562135D01*
X150649500Y-79562135D01*
X150649500Y-81357870D01*
X150649501Y-81357876D01*
X150655908Y-81417483D01*
X150706202Y-81552328D01*
X150706206Y-81552335D01*
X150792452Y-81667544D01*
X150792455Y-81667547D01*
X150907664Y-81753793D01*
X150907671Y-81753797D01*
X151039082Y-81802810D01*
X151095016Y-81844681D01*
X151119433Y-81910145D01*
X151104582Y-81978418D01*
X151083431Y-82006673D01*
X150969889Y-82120215D01*
X150844951Y-82292179D01*
X150748444Y-82481585D01*
X150682753Y-82683760D01*
X150649500Y-82893713D01*
X150649500Y-83106286D01*
X150682753Y-83316239D01*
X150748444Y-83518414D01*
X150844951Y-83707820D01*
X150969890Y-83879786D01*
X151120213Y-84030109D01*
X151292182Y-84155050D01*
X151300946Y-84159516D01*
X151351742Y-84207491D01*
X151368536Y-84275312D01*
X151345998Y-84341447D01*
X151300946Y-84380484D01*
X151292182Y-84384949D01*
X151120213Y-84509890D01*
X150969890Y-84660213D01*
X150844951Y-84832179D01*
X150748444Y-85021585D01*
X150682753Y-85223760D01*
X150649500Y-85433713D01*
X150649500Y-85646286D01*
X150682753Y-85856239D01*
X150748444Y-86058414D01*
X150844951Y-86247820D01*
X150969890Y-86419786D01*
X151120213Y-86570109D01*
X151292182Y-86695050D01*
X151300946Y-86699516D01*
X151351742Y-86747491D01*
X151368536Y-86815312D01*
X151345998Y-86881447D01*
X151300946Y-86920484D01*
X151292182Y-86924949D01*
X151120213Y-87049890D01*
X150969890Y-87200213D01*
X150844951Y-87372179D01*
X150748444Y-87561585D01*
X150682753Y-87763760D01*
X150649500Y-87973713D01*
X150649500Y-88186287D01*
X150650184Y-88190606D01*
X150681718Y-88389707D01*
X150682754Y-88396243D01*
X150734482Y-88555446D01*
X150748444Y-88598414D01*
X150844951Y-88787820D01*
X150969890Y-88959786D01*
X151120213Y-89110109D01*
X151292182Y-89235050D01*
X151300946Y-89239516D01*
X151351742Y-89287491D01*
X151368536Y-89355312D01*
X151345998Y-89421447D01*
X151300946Y-89460484D01*
X151292182Y-89464949D01*
X151120213Y-89589890D01*
X150969890Y-89740213D01*
X150844951Y-89912179D01*
X150748444Y-90101585D01*
X150682753Y-90303760D01*
X150678043Y-90333501D01*
X150649500Y-90513713D01*
X150649500Y-90726287D01*
X150682754Y-90936243D01*
X150713634Y-91031282D01*
X150748444Y-91138414D01*
X150844951Y-91327820D01*
X150969890Y-91499786D01*
X151120213Y-91650109D01*
X151292182Y-91775050D01*
X151300946Y-91779516D01*
X151351742Y-91827491D01*
X151368536Y-91895312D01*
X151345998Y-91961447D01*
X151300946Y-92000484D01*
X151292182Y-92004949D01*
X151120213Y-92129890D01*
X150969890Y-92280213D01*
X150844951Y-92452179D01*
X150748444Y-92641585D01*
X150682753Y-92843760D01*
X150661458Y-92978211D01*
X150649500Y-93053713D01*
X150649500Y-93266287D01*
X150682754Y-93476243D01*
X150709568Y-93558769D01*
X150748444Y-93678414D01*
X150844951Y-93867820D01*
X150969890Y-94039786D01*
X151120213Y-94190109D01*
X151292182Y-94315050D01*
X151300946Y-94319516D01*
X151351742Y-94367491D01*
X151368536Y-94435312D01*
X151345998Y-94501447D01*
X151300946Y-94540484D01*
X151292182Y-94544949D01*
X151120213Y-94669890D01*
X150969890Y-94820213D01*
X150844951Y-94992179D01*
X150748444Y-95181585D01*
X150682753Y-95383760D01*
X150649500Y-95593713D01*
X150649500Y-95806286D01*
X150662712Y-95889707D01*
X150682754Y-96016243D01*
X150696486Y-96058507D01*
X150748444Y-96218414D01*
X150844951Y-96407820D01*
X150969890Y-96579786D01*
X151120213Y-96730109D01*
X151292179Y-96855048D01*
X151292181Y-96855049D01*
X151292184Y-96855051D01*
X151301493Y-96859794D01*
X151352290Y-96907766D01*
X151369087Y-96975587D01*
X151346552Y-97041722D01*
X151301505Y-97080760D01*
X151292446Y-97085376D01*
X151292440Y-97085380D01*
X151238282Y-97124727D01*
X151238282Y-97124728D01*
X151870591Y-97757037D01*
X151807007Y-97774075D01*
X151692993Y-97839901D01*
X151599901Y-97932993D01*
X151534075Y-98047007D01*
X151517037Y-98110591D01*
X150884728Y-97478282D01*
X150884727Y-97478282D01*
X150845380Y-97532439D01*
X150748904Y-97721782D01*
X150683242Y-97923869D01*
X150683242Y-97923872D01*
X150650000Y-98133753D01*
X150650000Y-98346246D01*
X150683242Y-98556127D01*
X150683242Y-98556130D01*
X150748904Y-98758217D01*
X150845375Y-98947550D01*
X150884728Y-99001716D01*
X151517037Y-98369408D01*
X151534075Y-98432993D01*
X151599901Y-98547007D01*
X151692993Y-98640099D01*
X151807007Y-98705925D01*
X151870590Y-98722962D01*
X151238282Y-99355269D01*
X151238282Y-99355270D01*
X151292449Y-99394624D01*
X151481782Y-99491095D01*
X151683870Y-99556757D01*
X151893754Y-99590000D01*
X152106246Y-99590000D01*
X152316127Y-99556757D01*
X152316130Y-99556757D01*
X152518217Y-99491095D01*
X152707554Y-99394622D01*
X152761716Y-99355270D01*
X152761717Y-99355270D01*
X152129408Y-98722962D01*
X152192993Y-98705925D01*
X152307007Y-98640099D01*
X152400099Y-98547007D01*
X152465925Y-98432993D01*
X152482962Y-98369408D01*
X153115270Y-99001717D01*
X153115270Y-99001716D01*
X153154622Y-98947554D01*
X153251095Y-98758217D01*
X153316757Y-98556130D01*
X153316757Y-98556127D01*
X153350000Y-98346246D01*
X153350000Y-98133753D01*
X153316757Y-97923872D01*
X153316757Y-97923869D01*
X153251095Y-97721782D01*
X153154624Y-97532449D01*
X153115270Y-97478282D01*
X153115269Y-97478282D01*
X152482962Y-98110590D01*
X152465925Y-98047007D01*
X152400099Y-97932993D01*
X152307007Y-97839901D01*
X152192993Y-97774075D01*
X152129409Y-97757037D01*
X152761716Y-97124728D01*
X152707547Y-97085373D01*
X152707547Y-97085372D01*
X152698500Y-97080763D01*
X152647706Y-97032788D01*
X152630912Y-96964966D01*
X152653451Y-96898832D01*
X152698508Y-96859793D01*
X152707816Y-96855051D01*
X152787007Y-96797515D01*
X152879786Y-96730109D01*
X152879788Y-96730106D01*
X152879792Y-96730104D01*
X153030104Y-96579792D01*
X153030106Y-96579788D01*
X153030109Y-96579786D01*
X153105549Y-96475950D01*
X153155051Y-96407816D01*
X153155349Y-96407230D01*
X153175235Y-96368205D01*
X153185683Y-96357142D01*
X153192006Y-96343297D01*
X153209187Y-96332255D01*
X153223209Y-96317409D01*
X153238888Y-96313167D01*
X153250784Y-96305523D01*
X153285719Y-96300500D01*
X153361860Y-96300500D01*
X153361876Y-96300501D01*
X153369472Y-96300501D01*
X153527583Y-96300501D01*
X153527586Y-96300501D01*
X153680314Y-96259577D01*
X153730433Y-96230639D01*
X153817245Y-96180520D01*
X153929049Y-96068716D01*
X153929049Y-96068714D01*
X153939257Y-96058507D01*
X153939258Y-96058504D01*
X155076609Y-94921153D01*
X160599500Y-94921153D01*
X160599500Y-95078846D01*
X160630261Y-95233489D01*
X160630264Y-95233501D01*
X160690602Y-95379172D01*
X160690609Y-95379185D01*
X160778210Y-95510288D01*
X160778213Y-95510292D01*
X160889707Y-95621786D01*
X160889711Y-95621789D01*
X161020814Y-95709390D01*
X161020827Y-95709397D01*
X161166498Y-95769735D01*
X161166503Y-95769737D01*
X161321153Y-95800499D01*
X161321156Y-95800500D01*
X161321158Y-95800500D01*
X161478844Y-95800500D01*
X161478845Y-95800499D01*
X161633497Y-95769737D01*
X161779179Y-95709394D01*
X161910289Y-95621789D01*
X162021789Y-95510289D01*
X162109394Y-95379179D01*
X162169737Y-95233497D01*
X162200500Y-95078842D01*
X162200500Y-94921158D01*
X162200500Y-94921155D01*
X162200499Y-94921153D01*
X162181847Y-94827385D01*
X162169737Y-94766503D01*
X162169735Y-94766498D01*
X162109397Y-94620827D01*
X162109390Y-94620814D01*
X162021398Y-94489125D01*
X162015747Y-94471078D01*
X162005523Y-94455169D01*
X162001071Y-94424207D01*
X162000520Y-94422447D01*
X162000500Y-94420234D01*
X162000500Y-94194073D01*
X162020185Y-94127034D01*
X162072989Y-94081279D01*
X162142147Y-94071335D01*
X162205703Y-94100360D01*
X162212181Y-94106392D01*
X163276594Y-95170805D01*
X163310079Y-95232128D01*
X163310530Y-95234295D01*
X163330261Y-95333489D01*
X163330264Y-95333501D01*
X163392937Y-95484808D01*
X163390374Y-95485869D01*
X163402080Y-95542722D01*
X163376934Y-95607910D01*
X163325955Y-95647058D01*
X163220823Y-95690604D01*
X163220814Y-95690609D01*
X163089711Y-95778210D01*
X163089707Y-95778213D01*
X162978213Y-95889707D01*
X162978210Y-95889711D01*
X162890609Y-96020814D01*
X162890602Y-96020827D01*
X162830264Y-96166498D01*
X162830261Y-96166510D01*
X162799500Y-96321153D01*
X162799500Y-96478846D01*
X162830261Y-96633489D01*
X162830264Y-96633501D01*
X162890602Y-96779172D01*
X162890609Y-96779185D01*
X162978210Y-96910288D01*
X162978213Y-96910292D01*
X163089707Y-97021786D01*
X163089711Y-97021789D01*
X163220814Y-97109390D01*
X163220827Y-97109397D01*
X163364038Y-97168716D01*
X163366503Y-97169737D01*
X163521153Y-97200499D01*
X163521156Y-97200500D01*
X163521158Y-97200500D01*
X163678844Y-97200500D01*
X163678845Y-97200499D01*
X163833497Y-97169737D01*
X163979179Y-97109394D01*
X163999855Y-97095579D01*
X164110875Y-97021398D01*
X164177553Y-97000520D01*
X164179766Y-97000500D01*
X164513331Y-97000500D01*
X164513347Y-97000501D01*
X164520943Y-97000501D01*
X164679054Y-97000501D01*
X164679057Y-97000501D01*
X164831785Y-96959577D01*
X164882558Y-96930263D01*
X164968716Y-96880520D01*
X165080520Y-96768716D01*
X165080520Y-96768715D01*
X165097948Y-96751287D01*
X165097953Y-96751280D01*
X165280520Y-96568716D01*
X165359577Y-96431784D01*
X165359580Y-96431772D01*
X165360936Y-96428501D01*
X165362830Y-96426150D01*
X165363641Y-96424746D01*
X165363859Y-96424872D01*
X165404775Y-96374096D01*
X165471069Y-96352029D01*
X165538769Y-96369306D01*
X165586381Y-96420442D01*
X165599499Y-96475950D01*
X165599499Y-96579054D01*
X165599498Y-96579054D01*
X165599499Y-96579057D01*
X165640423Y-96731785D01*
X165667786Y-96779179D01*
X165667786Y-96779180D01*
X165719475Y-96868709D01*
X165719481Y-96868717D01*
X165838349Y-96987585D01*
X165838354Y-96987589D01*
X168231284Y-99380520D01*
X168231286Y-99380521D01*
X168231290Y-99380524D01*
X168368209Y-99459573D01*
X168368216Y-99459577D01*
X168520943Y-99500501D01*
X168620236Y-99500501D01*
X168687275Y-99520186D01*
X168689127Y-99521399D01*
X168820814Y-99609390D01*
X168820827Y-99609397D01*
X168966498Y-99669735D01*
X168966503Y-99669737D01*
X169121153Y-99700499D01*
X169121156Y-99700500D01*
X169121158Y-99700500D01*
X169278844Y-99700500D01*
X169278845Y-99700499D01*
X169433497Y-99669737D01*
X169579179Y-99609394D01*
X169710289Y-99521789D01*
X169821789Y-99410289D01*
X169909394Y-99279179D01*
X169969737Y-99133497D01*
X170000500Y-98978842D01*
X170000500Y-98821158D01*
X170000500Y-98821155D01*
X170000499Y-98821153D01*
X169987980Y-98758217D01*
X169969737Y-98666503D01*
X169939521Y-98593554D01*
X169909397Y-98520827D01*
X169909390Y-98520814D01*
X169821789Y-98389711D01*
X169821786Y-98389707D01*
X169710292Y-98278213D01*
X169710288Y-98278210D01*
X169579185Y-98190609D01*
X169579172Y-98190602D01*
X169433501Y-98130264D01*
X169433489Y-98130261D01*
X169278845Y-98099500D01*
X169278842Y-98099500D01*
X169186555Y-98099500D01*
X169119516Y-98079815D01*
X169073761Y-98027011D01*
X169063817Y-97957853D01*
X169065109Y-97950462D01*
X169067486Y-97938930D01*
X169069737Y-97933497D01*
X169100500Y-97778842D01*
X169100500Y-97778801D01*
X169100809Y-97777303D01*
X169117049Y-97746776D01*
X169133023Y-97716239D01*
X169133616Y-97715634D01*
X169133625Y-97715619D01*
X169133640Y-97715610D01*
X169134519Y-97714715D01*
X169558506Y-97290727D01*
X169558511Y-97290724D01*
X169568714Y-97280520D01*
X169568716Y-97280520D01*
X169680520Y-97168716D01*
X169743531Y-97059577D01*
X169759577Y-97031785D01*
X169800500Y-96879058D01*
X169800500Y-96720943D01*
X169800500Y-92047561D01*
X169800501Y-92047548D01*
X169800501Y-91879447D01*
X169800501Y-91879445D01*
X169759577Y-91726717D01*
X169726672Y-91669724D01*
X169726672Y-91669723D01*
X169680524Y-91589792D01*
X169680521Y-91589788D01*
X169680520Y-91589786D01*
X169568716Y-91477982D01*
X169568715Y-91477981D01*
X169564385Y-91473651D01*
X169564374Y-91473641D01*
X167534574Y-89443841D01*
X167501089Y-89382518D01*
X167500638Y-89380351D01*
X167480513Y-89279179D01*
X167469737Y-89225005D01*
X167431835Y-89133501D01*
X167409397Y-89079329D01*
X167409390Y-89079316D01*
X167321789Y-88948213D01*
X167321786Y-88948209D01*
X167210292Y-88836715D01*
X167210288Y-88836712D01*
X167079185Y-88749111D01*
X167079172Y-88749104D01*
X166933501Y-88688766D01*
X166933489Y-88688763D01*
X166778845Y-88658002D01*
X166778842Y-88658002D01*
X166621158Y-88658002D01*
X166621155Y-88658002D01*
X166466510Y-88688763D01*
X166466498Y-88688766D01*
X166320827Y-88749104D01*
X166320814Y-88749111D01*
X166189711Y-88836712D01*
X166189707Y-88836715D01*
X166078213Y-88948209D01*
X166078210Y-88948213D01*
X165990609Y-89079316D01*
X165990602Y-89079329D01*
X165930264Y-89225000D01*
X165930261Y-89225012D01*
X165899500Y-89379655D01*
X165898903Y-89385720D01*
X165896469Y-89385480D01*
X165879815Y-89442200D01*
X165827011Y-89487955D01*
X165822962Y-89489718D01*
X165820830Y-89490601D01*
X165820814Y-89490609D01*
X165689711Y-89578210D01*
X165689707Y-89578213D01*
X165578213Y-89689707D01*
X165578210Y-89689711D01*
X165490609Y-89820814D01*
X165490602Y-89820827D01*
X165430264Y-89966498D01*
X165430261Y-89966510D01*
X165399500Y-90121153D01*
X165399500Y-90278846D01*
X165430261Y-90433489D01*
X165430264Y-90433501D01*
X165490602Y-90579172D01*
X165490609Y-90579185D01*
X165578602Y-90710874D01*
X165599480Y-90777551D01*
X165599500Y-90779765D01*
X165599500Y-91124051D01*
X165579815Y-91191090D01*
X165527011Y-91236845D01*
X165457853Y-91246789D01*
X165394297Y-91217764D01*
X165363642Y-91175253D01*
X165363641Y-91175254D01*
X165363631Y-91175237D01*
X165360940Y-91171505D01*
X165359577Y-91168215D01*
X165280524Y-91031290D01*
X165280518Y-91031282D01*
X165168717Y-90919481D01*
X165168709Y-90919475D01*
X165031790Y-90840426D01*
X165031786Y-90840424D01*
X165031784Y-90840423D01*
X164879057Y-90799500D01*
X164879056Y-90799500D01*
X163777350Y-90799500D01*
X163710311Y-90779815D01*
X163664556Y-90727011D01*
X163654612Y-90657853D01*
X163674248Y-90606609D01*
X163759390Y-90479185D01*
X163759390Y-90479184D01*
X163759394Y-90479179D01*
X163819737Y-90333497D01*
X163850500Y-90178842D01*
X163850500Y-90021158D01*
X163850500Y-90021155D01*
X163850499Y-90021153D01*
X163838222Y-89959432D01*
X163819737Y-89866503D01*
X163800812Y-89820814D01*
X163759397Y-89720827D01*
X163759390Y-89720814D01*
X163671789Y-89589711D01*
X163671786Y-89589707D01*
X163560292Y-89478213D01*
X163560288Y-89478210D01*
X163429185Y-89390609D01*
X163429172Y-89390602D01*
X163283501Y-89330264D01*
X163283489Y-89330261D01*
X163128845Y-89299500D01*
X163128842Y-89299500D01*
X162971158Y-89299500D01*
X162971155Y-89299500D01*
X162816510Y-89330261D01*
X162816498Y-89330264D01*
X162670827Y-89390602D01*
X162670814Y-89390609D01*
X162539711Y-89478210D01*
X162539707Y-89478213D01*
X162428213Y-89589707D01*
X162428210Y-89589711D01*
X162340609Y-89720814D01*
X162340602Y-89720827D01*
X162280264Y-89866498D01*
X162280261Y-89866508D01*
X162261777Y-89959432D01*
X162229391Y-90021343D01*
X162227841Y-90022921D01*
X161031286Y-91219478D01*
X160919481Y-91331282D01*
X160919475Y-91331290D01*
X160876769Y-91405261D01*
X160876769Y-91405262D01*
X160840423Y-91468214D01*
X160840423Y-91468215D01*
X160799499Y-91620943D01*
X160799499Y-91620945D01*
X160799499Y-91789046D01*
X160799500Y-91789059D01*
X160799500Y-94420234D01*
X160779815Y-94487273D01*
X160778602Y-94489125D01*
X160690609Y-94620814D01*
X160690602Y-94620827D01*
X160630264Y-94766498D01*
X160630261Y-94766510D01*
X160599500Y-94921153D01*
X155076609Y-94921153D01*
X156930559Y-93067204D01*
X156960008Y-93051124D01*
X156989100Y-93034359D01*
X156990580Y-93034430D01*
X156991880Y-93033721D01*
X157025354Y-93036114D01*
X157058887Y-93037739D01*
X157060092Y-93038599D01*
X157061572Y-93038705D01*
X157088455Y-93058830D01*
X157115769Y-93078313D01*
X157116539Y-93079854D01*
X157117505Y-93080577D01*
X157133392Y-93108892D01*
X157136116Y-93115713D01*
X157140423Y-93131785D01*
X157142817Y-93135931D01*
X157147278Y-93143658D01*
X157147279Y-93143660D01*
X157219477Y-93268712D01*
X157219481Y-93268717D01*
X157364648Y-93413884D01*
X157398133Y-93475207D01*
X157398503Y-93514939D01*
X157400097Y-93515096D01*
X157399500Y-93521158D01*
X157399500Y-93678846D01*
X157430261Y-93833489D01*
X157430264Y-93833501D01*
X157490602Y-93979172D01*
X157490609Y-93979185D01*
X157578210Y-94110288D01*
X157578213Y-94110292D01*
X157689707Y-94221786D01*
X157689711Y-94221789D01*
X157820814Y-94309390D01*
X157820827Y-94309397D01*
X157966498Y-94369735D01*
X157966503Y-94369737D01*
X158121153Y-94400499D01*
X158121156Y-94400500D01*
X158121158Y-94400500D01*
X158278844Y-94400500D01*
X158278845Y-94400499D01*
X158433497Y-94369737D01*
X158579179Y-94309394D01*
X158710289Y-94221789D01*
X158821789Y-94110289D01*
X158909394Y-93979179D01*
X158969737Y-93833497D01*
X159000500Y-93678842D01*
X159000500Y-93521158D01*
X159000500Y-93521155D01*
X159000499Y-93521153D01*
X158988484Y-93460751D01*
X158969737Y-93366503D01*
X158929231Y-93268712D01*
X158909397Y-93220827D01*
X158909390Y-93220814D01*
X158821789Y-93089711D01*
X158821786Y-93089707D01*
X158710292Y-92978213D01*
X158710288Y-92978210D01*
X158579185Y-92890609D01*
X158579179Y-92890606D01*
X158534811Y-92872228D01*
X158527878Y-92867595D01*
X158522838Y-92866499D01*
X158494584Y-92845348D01*
X158398848Y-92749612D01*
X158365363Y-92688289D01*
X158370347Y-92618597D01*
X158383422Y-92593047D01*
X158409394Y-92554179D01*
X158469737Y-92408497D01*
X158500500Y-92253842D01*
X158500500Y-92096158D01*
X158500500Y-92096155D01*
X158500499Y-92096153D01*
X158483419Y-92010288D01*
X158469737Y-91941503D01*
X158466239Y-91933057D01*
X158409397Y-91795827D01*
X158409390Y-91795814D01*
X158321789Y-91664711D01*
X158321786Y-91664707D01*
X158210292Y-91553213D01*
X158210288Y-91553210D01*
X158079185Y-91465609D01*
X158079172Y-91465602D01*
X157933501Y-91405264D01*
X157933491Y-91405261D01*
X157800308Y-91378769D01*
X157738397Y-91346384D01*
X157703823Y-91285668D01*
X157700500Y-91257152D01*
X157700500Y-89479765D01*
X157720185Y-89412726D01*
X157721398Y-89410874D01*
X157809390Y-89279185D01*
X157809390Y-89279184D01*
X157809394Y-89279179D01*
X157869737Y-89133497D01*
X157900500Y-88978842D01*
X157900500Y-88821158D01*
X157900500Y-88821155D01*
X157900499Y-88821153D01*
X157887393Y-88755264D01*
X157869737Y-88666503D01*
X157823736Y-88555446D01*
X157809397Y-88520827D01*
X157809390Y-88520814D01*
X157721789Y-88389711D01*
X157721786Y-88389707D01*
X157610292Y-88278213D01*
X157610288Y-88278210D01*
X157479185Y-88190609D01*
X157479172Y-88190602D01*
X157333501Y-88130264D01*
X157333489Y-88130261D01*
X157178845Y-88099500D01*
X157178842Y-88099500D01*
X157021158Y-88099500D01*
X157021155Y-88099500D01*
X156866510Y-88130261D01*
X156866498Y-88130264D01*
X156720827Y-88190602D01*
X156720814Y-88190609D01*
X156589711Y-88278210D01*
X156589707Y-88278213D01*
X156478213Y-88389707D01*
X156478210Y-88389711D01*
X156390609Y-88520814D01*
X156390602Y-88520827D01*
X156337947Y-88647952D01*
X156294107Y-88702356D01*
X156227813Y-88724421D01*
X156223386Y-88724500D01*
X156121155Y-88724500D01*
X155966510Y-88755261D01*
X155966498Y-88755264D01*
X155820827Y-88815602D01*
X155820814Y-88815609D01*
X155732202Y-88874819D01*
X155665525Y-88895697D01*
X155598144Y-88877213D01*
X155594440Y-88874832D01*
X155541169Y-88839237D01*
X155541166Y-88839235D01*
X155541165Y-88839235D01*
X155541164Y-88839234D01*
X155395491Y-88778895D01*
X155395479Y-88778892D01*
X155240835Y-88748131D01*
X155240832Y-88748131D01*
X155083148Y-88748131D01*
X155083145Y-88748131D01*
X154928500Y-88778892D01*
X154928488Y-88778895D01*
X154782817Y-88839233D01*
X154782801Y-88839242D01*
X154770657Y-88847356D01*
X154703979Y-88868230D01*
X154636599Y-88849742D01*
X154589912Y-88797760D01*
X154587226Y-88791737D01*
X154543659Y-88686556D01*
X154543655Y-88686549D01*
X154456054Y-88555446D01*
X154456051Y-88555442D01*
X154344557Y-88443948D01*
X154344553Y-88443945D01*
X154213450Y-88356344D01*
X154213437Y-88356337D01*
X154067766Y-88295999D01*
X154067754Y-88295996D01*
X153913110Y-88265235D01*
X153913107Y-88265235D01*
X153755423Y-88265235D01*
X153755420Y-88265235D01*
X153600775Y-88295996D01*
X153600772Y-88295997D01*
X153600771Y-88295997D01*
X153600768Y-88295998D01*
X153526015Y-88326961D01*
X153518894Y-88329911D01*
X153449424Y-88337379D01*
X153386945Y-88306103D01*
X153351293Y-88246014D01*
X153348969Y-88195952D01*
X153350500Y-88186287D01*
X153350500Y-87973713D01*
X153317246Y-87763757D01*
X153251557Y-87561588D01*
X153155051Y-87372184D01*
X153155049Y-87372181D01*
X153155048Y-87372179D01*
X153030109Y-87200213D01*
X152879786Y-87049890D01*
X152707820Y-86924951D01*
X152707115Y-86924591D01*
X152699054Y-86920485D01*
X152648259Y-86872512D01*
X152631463Y-86804692D01*
X152653999Y-86738556D01*
X152699054Y-86699515D01*
X152707816Y-86695051D01*
X152729789Y-86679086D01*
X152879786Y-86570109D01*
X152879788Y-86570106D01*
X152879792Y-86570104D01*
X153030104Y-86419792D01*
X153030106Y-86419788D01*
X153030109Y-86419786D01*
X153155048Y-86247820D01*
X153155047Y-86247820D01*
X153155051Y-86247816D01*
X153251557Y-86058412D01*
X153317246Y-85856243D01*
X153350500Y-85646287D01*
X153350500Y-85433713D01*
X153317246Y-85223757D01*
X153251557Y-85021588D01*
X153155051Y-84832184D01*
X153155049Y-84832181D01*
X153155048Y-84832179D01*
X153030109Y-84660213D01*
X152879786Y-84509890D01*
X152707820Y-84384951D01*
X152707115Y-84384591D01*
X152699054Y-84380485D01*
X152648259Y-84332512D01*
X152631463Y-84264692D01*
X152653999Y-84198556D01*
X152699054Y-84159515D01*
X152707816Y-84155051D01*
X152729789Y-84139086D01*
X152879786Y-84030109D01*
X152879788Y-84030106D01*
X152879792Y-84030104D01*
X153030104Y-83879792D01*
X153030106Y-83879788D01*
X153030109Y-83879786D01*
X153155048Y-83707820D01*
X153155047Y-83707820D01*
X153155051Y-83707816D01*
X153251557Y-83518412D01*
X153317246Y-83316243D01*
X153350500Y-83106287D01*
X153350500Y-82893713D01*
X153317246Y-82683757D01*
X153251557Y-82481588D01*
X153155051Y-82292184D01*
X153155049Y-82292181D01*
X153155048Y-82292179D01*
X153030109Y-82120213D01*
X152916569Y-82006673D01*
X152883084Y-81945350D01*
X152888068Y-81875658D01*
X152929940Y-81819725D01*
X152960915Y-81802810D01*
X153092331Y-81753796D01*
X153207546Y-81667546D01*
X153293796Y-81552331D01*
X153344091Y-81417483D01*
X153350500Y-81357873D01*
X153350499Y-79562128D01*
X153344091Y-79502517D01*
X153293796Y-79367669D01*
X153293795Y-79367668D01*
X153293793Y-79367664D01*
X153207547Y-79252455D01*
X153207544Y-79252452D01*
X153092335Y-79166206D01*
X153092328Y-79166202D01*
X152957482Y-79115908D01*
X152957483Y-79115908D01*
X152897883Y-79109501D01*
X152897881Y-79109500D01*
X152897873Y-79109500D01*
X152897864Y-79109500D01*
X151102129Y-79109500D01*
X151102123Y-79109501D01*
X151042516Y-79115908D01*
X150907671Y-79166202D01*
X150907664Y-79166206D01*
X150792455Y-79252452D01*
X150792452Y-79252455D01*
X150706206Y-79367664D01*
X150706202Y-79367671D01*
X150655908Y-79502517D01*
X150649501Y-79562116D01*
X150649501Y-79562123D01*
X150649500Y-79562135D01*
X150100500Y-79562135D01*
X150100500Y-77624500D01*
X150120185Y-77557461D01*
X150172989Y-77511706D01*
X150224500Y-77500500D01*
X172175500Y-77500500D01*
X172242539Y-77520185D01*
G37*
%TD.AperFunction*%
%TD*%
M02*
